<?xml version="1.0" encoding="utf-8"?>
<!-- Generator: Adobe Illustrator 25.3.0, SVG Export Plug-In . SVG Version: 6.00 Build 0)  -->
<svg version="1.1" xmlns="http://www.w3.org/2000/svg" xmlns:xlink="http://www.w3.org/1999/xlink" x="0px" y="0px"
	 viewBox="0 0 217.6 51.3" style="enable-background:new 0 0 217.6 51.3;" xml:space="preserve">
<style type="text/css">
	.Ombre_x0020_portée{fill:none;}
	.Lueur_x0020_externe_x0020_5 pt{fill:none;}
	.Néon_x0020_bleu{fill:none;stroke:#8AACDA;stroke-width:7;stroke-linecap:round;stroke-linejoin:round;}
	.Ton_x0020_clair_x0020_chrome{fill:url(#SVGID_1_);stroke:#FFFFFF;stroke-width:0.3629;stroke-miterlimit:1;}
	.Swing_GS{fill:#FFDD00;}
	.Alysse_GS{fill:#A6D0E4;}
	.st0{display:none;}
	.st1{fill:#FFFFFF;}
	.st2{fill:#C3066B;}
	.st3{fill:#00BEB8;}
	.st4{fill-rule:evenodd;clip-rule:evenodd;fill:#00BEB8;}
</style>
<linearGradient id="SVGID_1_" gradientUnits="userSpaceOnUse" x1="-125" y1="-224.3135" x2="-125" y2="-225.3135">
	<stop  offset="0" style="stop-color:#656565"/>
	<stop  offset="0.618" style="stop-color:#1B1B1B"/>
	<stop  offset="0.6292" style="stop-color:#545454"/>
	<stop  offset="0.9831" style="stop-color:#3E3E3E"/>
</linearGradient>
<g id="back-gnd">
	<rect x="-125" y="-223.3" class="st0" width="500" height="500"/>
</g>
<g id="Calque_1">
	<g>
		<path class="st1" d="M38.9,30.9c-1.8,0-2.7-0.8-2.7-2.4V7.4c0-0.8,0.2-1.5,0.6-1.8C37.3,5.2,37.9,5,38.8,5c1.8,0,2.6,0.8,2.6,2.4
			V11c0,3-0.1,4.8-0.3,5.3c0.6-0.6,1.3-1.1,2-1.3c0.7-0.2,1.7-0.4,2.8-0.4h3.5V7.4c0-0.8,0.2-1.5,0.6-1.8C50.6,5.2,51.2,5,52.1,5
			c1.8,0,2.6,0.8,2.6,2.4v21.1c0,0.8-0.2,1.4-0.6,1.8c-0.4,0.4-1,0.6-1.9,0.6c-1.8,0-2.7-0.8-2.7-2.4V17.8c-0.1,0.4-0.6,0.8-1.4,1.1
			s-1.7,0.4-2.8,0.4c-1.5,0-2.6,0.3-3.1,0.9c-0.6,0.6-0.8,1.7-0.8,3.4v4.9c0,0.8-0.2,1.4-0.6,1.8C40.4,30.7,39.8,30.9,38.9,30.9z"/>
		<path class="st1" d="M67.7,30.9c-2.4,0-4.3-0.4-5.6-1.2c-1.4-0.8-2.3-1.9-2.9-3.3c-0.6-1.4-0.8-3-0.8-4.8c0-3.3,0.7-5.7,2.2-7.1
			c1.5-1.5,3.4-2.2,5.9-2.2c1.5,0,2.8,0.3,4,0.8c1.2,0.5,2.1,1.2,2.7,2.1c0.6,0.9,1,2,1,3.4c0,3.8-2.7,5.8-8.2,5.8h-2.1
			c0.2,0.7,0.5,1.3,1,1.7c0.4,0.4,1.2,0.6,2.4,0.6c0.6,0,1.1,0,1.5-0.1c0.4-0.1,0.8-0.1,1.1-0.2c0.3-0.1,0.7-0.1,1.2-0.1
			c0.6,0,1.2,0.1,1.5,0.3c0.4,0.2,0.6,0.7,0.6,1.4c0,1-0.4,1.7-1.3,2.2C70.9,30.7,69.5,30.9,67.7,30.9z M63.5,21.7
			c0.2-0.3,0.4-0.4,0.6-0.5c0.2-0.1,0.6-0.1,1.1-0.1c1.4,0,2.4-0.1,2.9-0.4c0.5-0.3,0.8-0.8,0.8-1.5c0-0.9-0.3-1.6-0.8-2.1
			c-0.5-0.5-1.1-0.7-1.9-0.7c-0.9,0-1.6,0.4-2.1,1.1C63.7,18.1,63.5,19.6,63.5,21.7z"/>
		<path class="st1" d="M82.5,28.5c0,1.6-0.8,2.4-2.5,2.4c-0.8,0-1.5-0.2-1.9-0.6c-0.5-0.4-0.7-1-0.7-1.8V6c0-0.9,0.2-1.5,0.6-2.1
			c0.4-0.5,1.1-0.8,2-0.8s1.6,0.3,2,0.8c0.4,0.5,0.6,1.2,0.6,2.1V28.5z"/>
		<path class="st1" d="M93.3,30.9c-0.5,0-1-0.1-1.5-0.3c-0.5-0.2-1-0.6-1.5-1.1c-0.5-0.5-0.9-1.3-1.2-2.4l-3.8-11.8
			c-0.2-0.6-0.1-1.1,0.1-1.5c0.2-0.5,0.6-0.8,1-1.1s1-0.4,1.6-0.4c0.5,0,1,0.1,1.5,0.4c0.4,0.3,0.8,0.7,0.9,1.2L94,25.7
			c0.9-1.5,1.5-3,1.8-4.5c0.3-1.5,0.5-2.9,0.5-4.3c0-0.4,0-0.9,0-1.3c0-0.4,0-0.8,0-1.2c0-0.7,0.3-1.2,0.8-1.6
			c0.6-0.4,1.2-0.6,1.9-0.6c1.4,0,2.3,0.7,2.5,2.1c0,0.2,0.1,0.6,0.1,1c0,0.4,0,0.8,0,1.4c0,0.8-0.1,1.8-0.2,2.9
			c-0.2,1.1-0.4,2.3-0.9,3.5c-0.4,1.2-1.1,2.5-1.9,3.8c-0.7,1.2-1.4,2-2,2.6c-0.6,0.6-1.1,1-1.7,1.2C94.3,30.8,93.8,30.9,93.3,30.9z
			"/>
		<path class="st1" d="M113.1,30.9c-2.4,0-4.3-0.4-5.6-1.2c-1.4-0.8-2.3-1.9-2.9-3.3c-0.6-1.4-0.8-3-0.8-4.8c0-3.3,0.7-5.7,2.2-7.1
			c1.5-1.5,3.4-2.2,5.9-2.2c1.5,0,2.8,0.3,4,0.8c1.2,0.5,2.1,1.2,2.7,2.1c0.6,0.9,1,2,1,3.4c0,3.8-2.7,5.8-8.2,5.8h-2.1
			c0.2,0.7,0.5,1.3,1,1.7c0.4,0.4,1.2,0.6,2.4,0.6c0.6,0,1.1,0,1.5-0.1c0.4-0.1,0.8-0.1,1.1-0.2c0.3-0.1,0.7-0.1,1.2-0.1
			c0.6,0,1.2,0.1,1.5,0.3c0.4,0.2,0.6,0.7,0.6,1.4c0,1-0.4,1.7-1.3,2.2C116.3,30.7,115,30.9,113.1,30.9z M109,21.7
			c0.2-0.3,0.4-0.4,0.6-0.5c0.2-0.1,0.6-0.1,1.1-0.1c1.4,0,2.4-0.1,2.9-0.4c0.5-0.3,0.8-0.8,0.8-1.5c0-0.9-0.3-1.6-0.8-2.1
			c-0.5-0.5-1.1-0.7-1.9-0.7c-0.9,0-1.6,0.4-2.1,1.1C109.2,18.1,109,19.6,109,21.7z"/>
		<path class="st1" d="M130.3,30.9c-2.9,0-5.1-0.8-6.5-2.5c-1.4-1.7-2.1-3.9-2.1-6.7s0.7-5,2.1-6.8s3.6-2.6,6.5-2.6
			c1.8,0,3.2,0.2,4,0.6c0.9,0.4,1.3,1.1,1.3,2.1c0,0.7-0.2,1.2-0.6,1.5c-0.4,0.3-0.9,0.5-1.5,0.5c-0.5,0-0.8,0-1.1-0.1
			c-0.3-0.1-0.5-0.1-0.8-0.2c-0.3-0.1-0.8-0.1-1.4-0.1c-0.8,0-1.5,0.3-2,0.8c-0.5,0.5-0.8,1.1-1,1.9c-0.2,0.8-0.3,1.6-0.3,2.4
			c0,0.8,0.1,1.6,0.2,2.4c0.2,0.8,0.5,1.4,1,1.9c0.5,0.5,1.2,0.7,2.2,0.7c0.9,0,1.6-0.1,2-0.2c0.4-0.1,0.9-0.2,1.3-0.2
			c0.6,0,1.2,0.1,1.5,0.3c0.4,0.2,0.6,0.7,0.6,1.4c0,1-0.4,1.7-1.3,2.2C133.5,30.7,132.2,30.9,130.3,30.9z"/>
		<path class="st1" d="M144.4,28.5c0,1.6-0.8,2.4-2.5,2.4c-0.8,0-1.5-0.2-1.9-0.6c-0.5-0.4-0.7-1-0.7-1.8V6c0-0.9,0.2-1.5,0.6-2.1
			c0.4-0.5,1.1-0.8,2-0.8c0.9,0,1.6,0.3,2,0.8c0.4,0.5,0.6,1.2,0.6,2.1V28.5z"/>
		<path class="st2" d="M151.6,9.2c-0.9,0-1.6-0.3-2.2-0.9c-0.6-0.6-0.9-1.3-0.9-2.1c0-0.9,0.3-1.6,0.9-2.2c0.6-0.6,1.3-0.9,2.2-0.9
			c0.9,0,1.7,0.3,2.2,0.9c0.6,0.6,0.9,1.3,0.9,2.2c0,0.8-0.3,1.5-0.9,2.1C153.3,8.9,152.5,9.2,151.6,9.2z M154.2,28.5
			c0,1.6-0.8,2.4-2.5,2.4c-0.8,0-1.5-0.2-1.9-0.6c-0.5-0.4-0.7-1-0.7-1.8V14.8c0-0.8,0.2-1.4,0.6-1.8c0.4-0.4,1.1-0.6,2-0.6
			c0.9,0,1.6,0.2,2,0.6c0.4,0.4,0.6,1,0.6,1.8V28.5z"/>
		<path class="st1" d="M166.3,30.9c-2.9,0-5.1-0.8-6.5-2.5c-1.4-1.7-2.1-3.9-2.1-6.7s0.7-5,2.1-6.8s3.6-2.6,6.5-2.6
			c1.8,0,3.2,0.2,4,0.6c0.9,0.4,1.3,1.1,1.3,2.1c0,0.7-0.2,1.2-0.6,1.5c-0.4,0.3-0.9,0.5-1.5,0.5c-0.5,0-0.8,0-1.1-0.1
			c-0.3-0.1-0.5-0.1-0.8-0.2c-0.3-0.1-0.8-0.1-1.4-0.1c-0.8,0-1.5,0.3-2,0.8c-0.5,0.5-0.8,1.1-1,1.9c-0.2,0.8-0.3,1.6-0.3,2.4
			c0,0.8,0.1,1.6,0.2,2.4c0.2,0.8,0.5,1.4,1,1.9c0.5,0.5,1.2,0.7,2.2,0.7c0.9,0,1.6-0.1,2-0.2c0.4-0.1,0.9-0.2,1.3-0.2
			c0.6,0,1.2,0.1,1.5,0.3c0.4,0.2,0.6,0.7,0.6,1.4c0,1-0.4,1.7-1.3,2.2C169.5,30.7,168.2,30.9,166.3,30.9z"/>
		<path class="st1" d="M177.8,30.9c-0.9,0-1.6-0.3-2-0.8c-0.4-0.5-0.6-1.2-0.6-2.1V6c0-0.9,0.2-1.5,0.6-2.1c0.4-0.5,1.1-0.8,2-0.8
			c0.9,0,1.6,0.3,2,0.8c0.4,0.5,0.6,1.2,0.6,2.1v13.4c1.3-0.8,2.4-1.6,3.4-2.6c1-1,1.7-1.9,2-2.8c0.3-0.8,0.8-1.4,1.4-1.7
			s1.3-0.3,2.1,0.1c1,0.5,1.5,1.3,1.4,2.3c0,0.9-0.4,1.8-1.2,2.9c-0.8,1.1-1.7,2-2.8,2.8c1.4,0.5,2.5,1.4,3.4,2.6
			c0.9,1.3,1.3,3.1,1.3,5.5c0,1.6-0.9,2.4-2.6,2.4c-1.8,0-2.6-0.8-2.6-2.4c0-1.8-0.3-3-0.8-3.9c-0.6-0.8-1.3-1.2-2.2-1.2
			c-0.8,0-1.5,0.3-2,0.9c-0.5,0.6-0.8,1.7-0.8,3.2c0,1.4-0.2,2.3-0.6,2.7C179.4,30.7,178.7,30.9,177.8,30.9z"/>
	</g>
	<g>
		<path class="st3" d="M41,47c-0.9,0-1.6-0.2-2.2-0.5c-0.6-0.3-1.1-0.8-1.5-1.4c-0.3-0.6-0.5-1.3-0.5-2.1c0-0.8,0.2-1.5,0.5-2.1
			c0.3-0.6,0.8-1.1,1.4-1.4c0.6-0.3,1.3-0.5,2.1-0.5c0.6,0,1,0.1,1.5,0.3c0.4,0.2,0.8,0.4,1.1,0.8c0.3,0.3,0.5,0.7,0.7,1.2
			c0.2,0.5,0.2,1,0.2,1.6c0,0.2-0.1,0.3-0.2,0.4c-0.1,0.1-0.2,0.1-0.4,0.1h-5.9v-0.8h5.6l-0.3,0.2c0-0.6-0.1-1.1-0.3-1.5
			c-0.2-0.4-0.4-0.7-0.8-0.9c-0.3-0.2-0.8-0.3-1.3-0.3c-0.6,0-1.1,0.1-1.5,0.4c-0.4,0.3-0.7,0.6-0.9,1c-0.2,0.4-0.3,1-0.3,1.5V43
			c0,1,0.3,1.7,0.8,2.2S40.1,46,41,46c0.4,0,0.8,0,1.1-0.1c0.4-0.1,0.7-0.3,1.1-0.5c0.2-0.1,0.3-0.1,0.4-0.1c0.1,0,0.2,0,0.3,0.1
			c0.1,0.1,0.1,0.2,0.2,0.3c0,0.1,0,0.2,0,0.3s-0.1,0.2-0.3,0.3c-0.4,0.3-0.8,0.5-1.3,0.6C42,46.9,41.5,47,41,47z"/>
		<path class="st3" d="M49.8,47c-0.8,0-1.5-0.2-2.1-0.5c-0.6-0.3-1.1-0.8-1.4-1.4s-0.5-1.3-0.5-2.1c0-0.6,0.1-1.2,0.3-1.7
			c0.2-0.5,0.4-0.9,0.8-1.3c0.3-0.3,0.8-0.6,1.3-0.8c0.5-0.2,1-0.3,1.7-0.3c0.4,0,0.8,0.1,1.3,0.2c0.4,0.1,0.8,0.3,1.2,0.6
			c0.1,0.1,0.2,0.2,0.2,0.3c0,0.1,0,0.2,0,0.3c0,0.1-0.1,0.2-0.2,0.3s-0.2,0.1-0.3,0.1c-0.1,0-0.2,0-0.4-0.1
			c-0.3-0.2-0.6-0.4-0.9-0.4C50.4,40,50.1,40,49.8,40c-0.4,0-0.8,0.1-1.1,0.2c-0.3,0.1-0.6,0.3-0.8,0.6s-0.4,0.5-0.5,0.9
			c-0.1,0.4-0.2,0.8-0.2,1.3c0,0.9,0.2,1.7,0.7,2.2c0.5,0.5,1.1,0.8,2,0.8c0.3,0,0.6,0,0.9-0.1c0.3-0.1,0.6-0.2,0.9-0.4
			c0.1-0.1,0.2-0.1,0.4-0.1c0.1,0,0.2,0.1,0.3,0.1c0.1,0.1,0.1,0.2,0.2,0.3c0,0.1,0,0.2,0,0.3c0,0.1-0.1,0.2-0.2,0.3
			c-0.4,0.3-0.8,0.5-1.2,0.6C50.6,46.9,50.2,47,49.8,47z"/>
		<path class="st3" d="M57.5,47c-0.8,0-1.5-0.2-2.1-0.5c-0.6-0.3-1-0.8-1.4-1.4s-0.5-1.3-0.5-2.1c0-0.6,0.1-1.2,0.3-1.7
			c0.2-0.5,0.4-0.9,0.8-1.3c0.3-0.4,0.8-0.6,1.2-0.8c0.5-0.2,1-0.3,1.6-0.3c0.8,0,1.5,0.2,2.1,0.5c0.6,0.3,1,0.8,1.4,1.4
			c0.3,0.6,0.5,1.3,0.5,2.1c0,0.6-0.1,1.2-0.3,1.7c-0.2,0.5-0.4,0.9-0.8,1.3s-0.8,0.6-1.2,0.8S58.1,47,57.5,47z M57.5,46
			c0.5,0,1-0.1,1.3-0.4c0.4-0.2,0.7-0.6,0.9-1c0.2-0.4,0.3-1,0.3-1.6c0-1-0.2-1.7-0.7-2.2c-0.5-0.5-1.1-0.8-1.9-0.8
			c-0.5,0-1,0.1-1.3,0.3c-0.4,0.2-0.7,0.6-0.9,1c-0.2,0.4-0.3,1-0.3,1.6c0,1,0.2,1.7,0.7,2.2S56.8,46,57.5,46z"/>
		<path class="st3" d="M63.9,43.1c-0.2,0-0.3-0.1-0.4-0.2s-0.2-0.2-0.2-0.4c0-0.2,0.1-0.3,0.2-0.4c0.1-0.1,0.3-0.2,0.4-0.2h3.8
			c0.2,0,0.3,0.1,0.4,0.2c0.1,0.1,0.2,0.2,0.2,0.4c0,0.1-0.1,0.3-0.2,0.4c-0.1,0.1-0.2,0.2-0.4,0.2H63.9z"/>
		<path class="st3" d="M73.5,47c-0.2,0-0.4,0-0.5-0.1c-0.1-0.1-0.3-0.2-0.4-0.5l-2.5-6.5c-0.1-0.2-0.1-0.3-0.1-0.5
			c0-0.1,0.1-0.2,0.2-0.3c0.1-0.1,0.3-0.1,0.4-0.1s0.3,0,0.4,0.1c0.1,0.1,0.2,0.2,0.3,0.4l2.4,6.4h-0.4l2.4-6.4
			c0.1-0.2,0.2-0.3,0.3-0.4c0.1-0.1,0.3-0.1,0.5-0.1c0.2,0,0.3,0,0.5,0.1c0.1,0.1,0.2,0.2,0.3,0.4l2.4,6.4h-0.4l2.4-6.4
			c0.1-0.2,0.2-0.3,0.3-0.4s0.2-0.1,0.4-0.1c0.2,0,0.3,0,0.4,0.1c0.1,0.1,0.1,0.2,0.2,0.3c0,0.1,0,0.3-0.1,0.4l-2.5,6.5
			c-0.1,0.2-0.2,0.4-0.3,0.5S79.7,47,79.5,47c-0.2,0-0.4-0.1-0.5-0.2s-0.3-0.3-0.3-0.5l-2.5-6.5h0.7l-2.5,6.5
			c-0.1,0.2-0.2,0.4-0.3,0.5S73.7,47,73.5,47z"/>
		<path class="st3" d="M88.6,47c-0.9,0-1.6-0.2-2.2-0.5c-0.6-0.3-1.1-0.8-1.5-1.4c-0.3-0.6-0.5-1.3-0.5-2.1c0-0.8,0.2-1.5,0.5-2.1
			c0.3-0.6,0.8-1.1,1.4-1.4c0.6-0.3,1.3-0.5,2.1-0.5c0.6,0,1,0.1,1.5,0.3c0.4,0.2,0.8,0.4,1.1,0.8c0.3,0.3,0.5,0.7,0.7,1.2
			c0.2,0.5,0.2,1,0.2,1.6c0,0.2-0.1,0.3-0.2,0.4c-0.1,0.1-0.2,0.1-0.4,0.1h-5.9v-0.8H91l-0.3,0.2c0-0.6-0.1-1.1-0.3-1.5
			c-0.2-0.4-0.4-0.7-0.8-0.9c-0.3-0.2-0.8-0.3-1.3-0.3c-0.6,0-1.1,0.1-1.5,0.4c-0.4,0.3-0.7,0.6-0.9,1c-0.2,0.4-0.3,1-0.3,1.5V43
			c0,1,0.3,1.7,0.8,2.2s1.2,0.8,2.1,0.8c0.4,0,0.8,0,1.1-0.1c0.4-0.1,0.7-0.3,1.1-0.5c0.2-0.1,0.3-0.1,0.4-0.1c0.1,0,0.2,0,0.3,0.1
			c0.1,0.1,0.1,0.2,0.2,0.3c0,0.1,0,0.2,0,0.3s-0.1,0.2-0.3,0.3c-0.4,0.3-0.8,0.5-1.3,0.6C89.6,46.9,89.1,47,88.6,47z"/>
		<path class="st3" d="M98.1,47c-0.7,0-1.4-0.2-1.9-0.5c-0.5-0.4-0.9-0.8-1.1-1.5l0.2-0.2v1.5c0,0.2-0.1,0.4-0.2,0.5
			C95,46.9,94.8,47,94.6,47c-0.2,0-0.4-0.1-0.5-0.2c-0.1-0.1-0.2-0.3-0.2-0.5V36.1c0-0.2,0.1-0.4,0.2-0.5c0.1-0.1,0.3-0.2,0.5-0.2
			c0.2,0,0.4,0.1,0.5,0.2c0.1,0.1,0.2,0.3,0.2,0.5v4.8h-0.2c0.2-0.6,0.6-1.1,1.1-1.4c0.5-0.4,1.2-0.5,1.9-0.5c0.7,0,1.4,0.2,1.9,0.5
			c0.5,0.3,1,0.8,1.3,1.4s0.4,1.3,0.4,2.2c0,0.8-0.1,1.5-0.4,2.1s-0.7,1.1-1.3,1.4C99.4,46.8,98.8,47,98.1,47z M97.8,46
			c0.5,0,1-0.1,1.3-0.4c0.4-0.2,0.7-0.6,0.9-1c0.2-0.4,0.3-1,0.3-1.6c0-1-0.2-1.7-0.7-2.2c-0.5-0.5-1.1-0.8-1.9-0.8
			c-0.5,0-1,0.1-1.3,0.3s-0.7,0.6-0.9,1c-0.2,0.4-0.3,1-0.3,1.6c0,1,0.2,1.7,0.7,2.2S97,46,97.8,46z"/>
		<path class="st3" d="M104.2,43.1c-0.2,0-0.3-0.1-0.4-0.2s-0.2-0.2-0.2-0.4c0-0.2,0.1-0.3,0.2-0.4c0.1-0.1,0.3-0.2,0.4-0.2h3.8
			c0.2,0,0.3,0.1,0.4,0.2c0.1,0.1,0.2,0.2,0.2,0.4c0,0.1-0.1,0.3-0.2,0.4c-0.1,0.1-0.2,0.2-0.4,0.2H104.2z"/>
		<path class="st3" d="M114.4,47c-0.8,0-1.5-0.2-2.1-0.5c-0.6-0.3-1.1-0.8-1.4-1.4s-0.5-1.3-0.5-2.1c0-0.6,0.1-1.2,0.3-1.7
			c0.2-0.5,0.4-0.9,0.8-1.3c0.3-0.3,0.8-0.6,1.3-0.8c0.5-0.2,1-0.3,1.7-0.3c0.4,0,0.8,0.1,1.3,0.2c0.4,0.1,0.8,0.3,1.2,0.6
			c0.1,0.1,0.2,0.2,0.2,0.3c0,0.1,0,0.2,0,0.3c0,0.1-0.1,0.2-0.2,0.3s-0.2,0.1-0.3,0.1c-0.1,0-0.2,0-0.4-0.1
			c-0.3-0.2-0.6-0.4-0.9-0.4c-0.3-0.1-0.6-0.1-0.9-0.1c-0.4,0-0.8,0.1-1.1,0.2c-0.3,0.1-0.6,0.3-0.8,0.6s-0.4,0.5-0.5,0.9
			c-0.1,0.4-0.2,0.8-0.2,1.3c0,0.9,0.2,1.7,0.7,2.2c0.5,0.5,1.1,0.8,2,0.8c0.3,0,0.6,0,0.9-0.1c0.3-0.1,0.6-0.2,0.9-0.4
			c0.1-0.1,0.2-0.1,0.4-0.1c0.1,0,0.2,0.1,0.3,0.1c0.1,0.1,0.1,0.2,0.2,0.3c0,0.1,0,0.2,0,0.3c0,0.1-0.1,0.2-0.2,0.3
			c-0.4,0.3-0.8,0.5-1.2,0.6C115.2,46.9,114.8,47,114.4,47z"/>
		<path class="st3" d="M122.2,47c-0.8,0-1.5-0.2-2.1-0.5c-0.6-0.3-1-0.8-1.4-1.4s-0.5-1.3-0.5-2.1c0-0.6,0.1-1.2,0.3-1.7
			c0.2-0.5,0.4-0.9,0.8-1.3c0.3-0.4,0.8-0.6,1.2-0.8c0.5-0.2,1-0.3,1.6-0.3c0.8,0,1.5,0.2,2.1,0.5c0.6,0.3,1,0.8,1.4,1.4
			c0.3,0.6,0.5,1.3,0.5,2.1c0,0.6-0.1,1.2-0.3,1.7c-0.2,0.5-0.4,0.9-0.8,1.3s-0.8,0.6-1.2,0.8S122.8,47,122.2,47z M122.2,46
			c0.5,0,1-0.1,1.3-0.4c0.4-0.2,0.7-0.6,0.9-1c0.2-0.4,0.3-1,0.3-1.6c0-1-0.2-1.7-0.7-2.2c-0.5-0.5-1.1-0.8-1.9-0.8
			c-0.5,0-1,0.1-1.3,0.3c-0.4,0.2-0.7,0.6-0.9,1c-0.2,0.4-0.3,1-0.3,1.6c0,1,0.2,1.7,0.7,2.2S121.4,46,122.2,46z"/>
		<path class="st3" d="M128.8,47c-0.2,0-0.4-0.1-0.5-0.2c-0.1-0.1-0.2-0.3-0.2-0.5v-6.7c0-0.2,0.1-0.4,0.2-0.5
			c0.1-0.1,0.3-0.2,0.5-0.2s0.4,0.1,0.5,0.2c0.1,0.1,0.2,0.3,0.2,0.5V41l-0.2-0.2c0.2-0.6,0.6-1.1,1.2-1.4c0.5-0.3,1.2-0.5,1.9-0.5
			c0.7,0,1.2,0.1,1.6,0.3s0.8,0.6,1,1c0.2,0.5,0.3,1,0.3,1.7v4.3c0,0.2-0.1,0.4-0.2,0.5c-0.1,0.1-0.3,0.2-0.5,0.2
			c-0.2,0-0.4-0.1-0.5-0.2c-0.1-0.1-0.2-0.3-0.2-0.5v-4.2c0-0.7-0.1-1.3-0.4-1.6S132.6,40,132,40c-0.8,0-1.4,0.2-1.8,0.7
			c-0.4,0.4-0.7,1-0.7,1.8v3.9C129.5,46.7,129.3,47,128.8,47z"/>
		<path class="st3" d="M141.2,47c-0.8,0-1.5-0.2-2.1-0.5c-0.6-0.3-1.1-0.8-1.4-1.4s-0.5-1.3-0.5-2.1c0-0.6,0.1-1.2,0.3-1.7
			c0.2-0.5,0.4-0.9,0.8-1.3c0.3-0.3,0.8-0.6,1.3-0.8c0.5-0.2,1-0.3,1.7-0.3c0.4,0,0.8,0.1,1.3,0.2c0.4,0.1,0.8,0.3,1.2,0.6
			c0.1,0.1,0.2,0.2,0.2,0.3c0,0.1,0,0.2,0,0.3c0,0.1-0.1,0.2-0.2,0.3c-0.1,0.1-0.2,0.1-0.3,0.1c-0.1,0-0.2,0-0.4-0.1
			c-0.3-0.2-0.6-0.4-0.9-0.4c-0.3-0.1-0.6-0.1-0.9-0.1c-0.4,0-0.8,0.1-1.1,0.2c-0.3,0.1-0.6,0.3-0.8,0.6s-0.4,0.5-0.5,0.9
			c-0.1,0.4-0.2,0.8-0.2,1.3c0,0.9,0.2,1.7,0.7,2.2c0.5,0.5,1.1,0.8,2,0.8c0.3,0,0.6,0,0.9-0.1c0.3-0.1,0.6-0.2,0.9-0.4
			c0.1-0.1,0.2-0.1,0.4-0.1c0.1,0,0.2,0.1,0.3,0.1c0.1,0.1,0.1,0.2,0.2,0.3c0,0.1,0,0.2,0,0.3c0,0.1-0.1,0.2-0.2,0.3
			c-0.4,0.3-0.8,0.5-1.2,0.6S141.6,47,141.2,47z"/>
		<path class="st3" d="M149.3,47c-0.9,0-1.6-0.2-2.2-0.5c-0.6-0.3-1.1-0.8-1.5-1.4c-0.3-0.6-0.5-1.3-0.5-2.1c0-0.8,0.2-1.5,0.5-2.1
			s0.8-1.1,1.4-1.4c0.6-0.3,1.3-0.5,2.1-0.5c0.6,0,1,0.1,1.5,0.3s0.8,0.4,1.1,0.8c0.3,0.3,0.5,0.7,0.7,1.2c0.2,0.5,0.2,1,0.2,1.6
			c0,0.2-0.1,0.3-0.2,0.4s-0.2,0.1-0.4,0.1h-5.9v-0.8h5.6l-0.3,0.2c0-0.6-0.1-1.1-0.3-1.5c-0.2-0.4-0.4-0.7-0.8-0.9
			c-0.3-0.2-0.8-0.3-1.3-0.3c-0.6,0-1.1,0.1-1.5,0.4s-0.7,0.6-0.9,1c-0.2,0.4-0.3,1-0.3,1.5V43c0,1,0.3,1.7,0.8,2.2
			c0.5,0.5,1.2,0.8,2.1,0.8c0.4,0,0.8,0,1.1-0.1c0.4-0.1,0.7-0.3,1.1-0.5c0.2-0.1,0.3-0.1,0.4-0.1c0.1,0,0.2,0,0.3,0.1
			c0.1,0.1,0.1,0.2,0.2,0.3s0,0.2,0,0.3s-0.1,0.2-0.3,0.3c-0.4,0.3-0.8,0.5-1.3,0.6C150.3,46.9,149.8,47,149.3,47z"/>
		<path class="st3" d="M155.3,49.9c-0.2,0-0.4-0.1-0.5-0.2c-0.1-0.1-0.2-0.3-0.2-0.5v-9.6c0-0.2,0.1-0.4,0.2-0.5
			c0.1-0.1,0.3-0.2,0.5-0.2c0.2,0,0.4,0.1,0.5,0.2c0.1,0.1,0.2,0.3,0.2,0.5v1.5l-0.2-0.2c0.2-0.6,0.5-1.1,1.1-1.4s1.2-0.5,1.9-0.5
			c0.7,0,1.4,0.2,1.9,0.5c0.5,0.3,1,0.8,1.3,1.4s0.4,1.3,0.4,2.2c0,0.8-0.1,1.5-0.4,2.1s-0.7,1.1-1.3,1.4c-0.5,0.3-1.2,0.5-1.9,0.5
			s-1.4-0.2-1.9-0.5c-0.5-0.4-0.9-0.8-1.1-1.4h0.2v4.2c0,0.2-0.1,0.4-0.2,0.5C155.6,49.8,155.5,49.9,155.3,49.9z M158.5,46
			c0.5,0,1-0.1,1.3-0.4c0.4-0.2,0.7-0.6,0.9-1c0.2-0.4,0.3-1,0.3-1.6c0-1-0.2-1.7-0.7-2.2c-0.5-0.5-1.1-0.8-1.9-0.8
			c-0.5,0-1,0.1-1.3,0.3s-0.7,0.6-0.9,1c-0.2,0.4-0.3,1-0.3,1.6c0,1,0.2,1.7,0.7,2.2C157.1,45.7,157.7,46,158.5,46z"/>
		<path class="st3" d="M167.7,47c-0.6,0-1.2-0.1-1.6-0.3c-0.4-0.2-0.8-0.5-1-1c-0.2-0.4-0.3-0.9-0.3-1.5v-4.1h-1.1
			c-0.2,0-0.3,0-0.4-0.1c-0.1-0.1-0.2-0.2-0.2-0.4s0.1-0.3,0.2-0.4c0.1-0.1,0.2-0.1,0.4-0.1h1.1v-1.8c0-0.2,0.1-0.4,0.2-0.5
			c0.1-0.1,0.3-0.2,0.5-0.2s0.4,0.1,0.5,0.2c0.1,0.1,0.2,0.3,0.2,0.5v1.8h2.1c0.2,0,0.3,0,0.4,0.1c0.1,0.1,0.2,0.2,0.2,0.4
			s-0.1,0.3-0.2,0.4c-0.1,0.1-0.2,0.1-0.4,0.1h-2.1v4c0,0.6,0.1,1.1,0.4,1.4s0.7,0.5,1.3,0.5c0.2,0,0.4,0,0.5-0.1
			c0.2,0,0.3-0.1,0.4-0.1c0.1,0,0.2,0,0.3,0.1c0.1,0.1,0.1,0.2,0.1,0.4c0,0.1,0,0.2-0.1,0.4s-0.1,0.2-0.3,0.2
			c-0.1,0-0.3,0.1-0.5,0.1S167.9,47,167.7,47z"/>
		<path class="st3" d="M171,37.2c-0.3,0-0.5-0.1-0.7-0.2c-0.2-0.1-0.2-0.3-0.2-0.6c0-0.3,0.1-0.5,0.2-0.6c0.2-0.1,0.4-0.2,0.7-0.2
			c0.3,0,0.5,0.1,0.7,0.2c0.2,0.1,0.2,0.3,0.2,0.6c0,0.2-0.1,0.4-0.2,0.6C171.5,37.1,171.3,37.2,171,37.2z M171,46.9
			c-0.2,0-0.4-0.1-0.5-0.2c-0.1-0.1-0.2-0.3-0.2-0.5v-6.5c0-0.2,0.1-0.4,0.2-0.5s0.3-0.2,0.5-0.2c0.2,0,0.4,0.1,0.5,0.2
			s0.2,0.3,0.2,0.5v6.5c0,0.2-0.1,0.4-0.2,0.5C171.4,46.9,171.3,46.9,171,46.9z"/>
		<path class="st3" d="M177.7,47c-0.8,0-1.5-0.2-2.1-0.5c-0.6-0.3-1-0.8-1.4-1.4s-0.5-1.3-0.5-2.1c0-0.6,0.1-1.2,0.3-1.7
			c0.2-0.5,0.4-0.9,0.8-1.3s0.8-0.6,1.2-0.8c0.5-0.2,1-0.3,1.6-0.3c0.8,0,1.5,0.2,2.1,0.5s1,0.8,1.4,1.4c0.3,0.6,0.5,1.3,0.5,2.1
			c0,0.6-0.1,1.2-0.3,1.7c-0.2,0.5-0.4,0.9-0.8,1.3c-0.3,0.4-0.8,0.6-1.2,0.8S178.3,47,177.7,47z M177.7,46c0.5,0,1-0.1,1.3-0.4
			c0.4-0.2,0.7-0.6,0.9-1c0.2-0.4,0.3-1,0.3-1.6c0-1-0.2-1.7-0.7-2.2c-0.5-0.5-1.1-0.8-1.9-0.8c-0.5,0-1,0.1-1.3,0.3s-0.7,0.6-0.9,1
			c-0.2,0.4-0.3,1-0.3,1.6c0,1,0.2,1.7,0.7,2.2S176.9,46,177.7,46z"/>
		<path class="st3" d="M184.4,47c-0.2,0-0.4-0.1-0.5-0.2c-0.1-0.1-0.2-0.3-0.2-0.5v-6.7c0-0.2,0.1-0.4,0.2-0.5
			c0.1-0.1,0.3-0.2,0.5-0.2s0.4,0.1,0.5,0.2c0.1,0.1,0.2,0.3,0.2,0.5V41l-0.2-0.2c0.2-0.6,0.6-1.1,1.2-1.4c0.5-0.3,1.2-0.5,1.9-0.5
			c0.7,0,1.2,0.1,1.6,0.3s0.8,0.6,1,1c0.2,0.5,0.3,1,0.3,1.7v4.3c0,0.2-0.1,0.4-0.2,0.5c-0.1,0.1-0.3,0.2-0.5,0.2
			c-0.2,0-0.4-0.1-0.5-0.2c-0.1-0.1-0.2-0.3-0.2-0.5v-4.2c0-0.7-0.1-1.3-0.4-1.6s-0.8-0.5-1.4-0.5c-0.8,0-1.4,0.2-1.8,0.7
			c-0.4,0.4-0.7,1-0.7,1.8v3.9C185,46.7,184.8,47,184.4,47z"/>
	</g>
	<g>
		<g>
			<path class="st2" d="M211.3,37.8c2.2-2.9,3.8-5.9,4.9-8.9c1.1-3.1,1.5-6.3,1.4-9.4c-0.2-3.1-0.9-6.2-2.3-9.2
				c-1.4-2.9-3.3-5.7-5.8-8.3l0,0c-0.3-0.3-0.7-0.5-1.1-0.5c-0.4,0-0.8,0.1-1.1,0.4l0,0c-0.3,0.3-0.5,0.7-0.5,1.1
				c0,0.4,0.1,0.8,0.4,1.1c2.2,2.3,4,4.8,5.2,7.4c1.2,2.6,1.9,5.3,2,8.1c0.1,2.7-0.3,5.5-1.2,8.2c-0.9,2.7-2.4,5.4-4.4,8
				c-0.3,0.3-0.4,0.7-0.3,1.1c0,0.4,0.2,0.7,0.5,1c0,0,0.1,0.1,0.1,0.1c0.3,0.2,0.7,0.3,1.1,0.3C210.6,38.4,211,38.2,211.3,37.8
				C211.3,37.9,211.3,37.8,211.3,37.8z"/>
			<path class="st2" d="M203.1,20.4c-0.1-1.3-0.4-2.7-1-3.9c-0.6-1.3-1.4-2.5-2.4-3.6c0,0,0-0.1-0.1-0.1c-0.3-0.3-0.7-0.4-1-0.5
				c-0.4,0-0.8,0.1-1.1,0.4c0,0-0.1,0.1-0.1,0.1c-0.3,0.3-0.4,0.7-0.5,1c0,0.4,0.1,0.8,0.4,1.1c0.8,0.9,1.5,1.8,1.9,2.8
				c0.4,0.9,0.7,1.9,0.8,2.9c0.1,1-0.1,1.9-0.4,2.9c-0.3,1-0.8,2-1.5,3c-0.2,0.3-0.3,0.8-0.3,1.1c0.1,0.4,0.3,0.8,0.6,1l0,0
				c0.3,0.2,0.8,0.3,1.1,0.3c0.4-0.1,0.8-0.3,1-0.6c0.9-1.3,1.6-2.6,2-3.9C203.1,23.1,203.2,21.8,203.1,20.4z"/>
			<path class="st2" d="M209.2,26.7c0.9-2.2,1.2-4.4,1.1-6.6c-0.1-2.2-0.7-4.4-1.7-6.5c-1-2.1-2.5-4.1-4.4-6
				c-0.3-0.3-0.7-0.5-1.1-0.5c-0.4,0-0.7,0.1-1,0.4c0,0-0.1,0-0.1,0.1c-0.3,0.3-0.4,0.7-0.4,1.1c0,0.4,0.1,0.7,0.4,1
				c0,0,0,0.1,0.1,0.1c1.6,1.7,2.9,3.4,3.8,5.1c0.9,1.7,1.3,3.5,1.4,5.3c0.1,1.8-0.2,3.6-1,5.4c-0.7,1.8-1.8,3.6-3.4,5.5
				c-0.3,0.3-0.4,0.7-0.4,1.1c0,0.4,0.2,0.7,0.5,1l0,0c0.3,0.3,0.7,0.4,1.1,0.4c0.4,0,0.7-0.2,1-0.5l0,0
				C207.1,30.9,208.4,28.8,209.2,26.7z"/>
		</g>
	</g>
	<g>
		<g>
			<path class="st4" d="M0,11.4c0.1,1.8,0.2,3.8,0.4,5.8l5.4,0.3L0,11.4L0,11.4z M30.6,37l-2.9-2.9c3.2-4.8,4-9.6,2.9-14.2
				c-0.8-2.6-2.4-4.7-4.5-6.4L25.8,32l-1.3-1.3l0.4-18c-1.8-1.2-3.9-2.2-6.1-2.9l1.1,16.1l-1.3-1.3l-1-15.1
				c-2.2-0.7-4.6-1.1-6.9-1.5l0.5,8.9l-1.3-1.3L9.4,7.8C6,7.4,2.8,7.2,0,7.3l0,0v2.3c9.7,10,19,19.7,28.5,29.6
				C30.3,40.3,31.5,38.1,30.6,37L30.6,37z M0.6,18.4c0.3,2.4,0.8,4.9,1.4,7.2l12.5,0.9l-7.4-7.6L0.6,18.4L0.6,18.4z M2.4,26.8
				c0.7,2.3,1.6,4.4,2.8,6.3l15.4-0.4l-4.8-5L2.4,26.8L2.4,26.8z M6.1,34.3c1.6,2.2,3.6,4,6.1,4.9c4,1.1,8.2,0.5,12.4-2.3L22,34.1
				L6.1,34.3L6.1,34.3z"/>
		</g>
	</g>
	<g>
	</g>
	<g>
	</g>
	<g>
	</g>
	<g>
	</g>
	<g>
	</g>
	<g>
	</g>
	<g>
	</g>
	<g>
	</g>
	<g>
	</g>
	<g>
	</g>
	<g>
	</g>
	<g>
	</g>
	<g>
	</g>
	<g>
	</g>
	<g>
	</g>
</g>
</svg>
