<?xml version="1.0" encoding="utf-8"?>
<!-- Generator: Adobe Illustrator 25.3.0, SVG Export Plug-In . SVG Version: 6.00 Build 0)  -->
<svg version="1.1" id="Calque_1" xmlns="http://www.w3.org/2000/svg" xmlns:xlink="http://www.w3.org/1999/xlink" x="0px" y="0px"
	 viewBox="0 0 262 262" style="enable-background:new 0 0 262 262;" xml:space="preserve">
<style type="text/css">
	.Ombre_x0020_portée{fill:none;}
	.Lueur_x0020_externe_x0020_5 pt{fill:none;}
	.Néon_x0020_bleu{fill:none;stroke:#8AACDA;stroke-width:7;stroke-linecap:round;stroke-linejoin:round;}
	.Ton_x0020_clair_x0020_chrome{fill:url(#SVGID_1_);stroke:#FFFFFF;stroke-width:0.3629;stroke-miterlimit:1;}
	.Swing_GS{fill:#FFDD00;}
	.Alysse_GS{fill:#A6D0E4;}
	.st0{filter:url(#Adobe_OpacityMaskFilter);}
	.st1{fill:#FFFFFF;}
	.st2{mask:url(#SVGID_2_);}
	.st3{fill:#00BEB8;}
</style>
<linearGradient id="SVGID_1_" gradientUnits="userSpaceOnUse" x1="-509" y1="-257" x2="-509" y2="-258">
	<stop  offset="0" style="stop-color:#656565"/>
	<stop  offset="0.618" style="stop-color:#1B1B1B"/>
	<stop  offset="0.6292" style="stop-color:#545454"/>
	<stop  offset="0.9831" style="stop-color:#3E3E3E"/>
</linearGradient>
<g>
	<defs>
		<filter id="Adobe_OpacityMaskFilter" filterUnits="userSpaceOnUse" x="4.8" y="5.4" width="251.8" height="251.6">
			<feColorMatrix  type="matrix" values="1 0 0 0 0  0 1 0 0 0  0 0 1 0 0  0 0 0 1 0"/>
		</filter>
	</defs>
	<mask maskUnits="userSpaceOnUse" x="4.8" y="5.4" width="251.8" height="251.6" id="SVGID_2_">
		<g class="st0">
			<g>
				<g>
					
						<rect x="-81.3" y="-57.6" transform="matrix(0.8301 -0.5576 0.5576 0.8301 -55.0372 95.6533)" class="st1" width="421.5" height="391.5"/>
					<path d="M242.2,270.5c-1-0.6-1.9-1.2-2.9-1.9c-0.1,0.9-0.2,1.5-0.3,2c-0.4,0-0.7,0.1-0.9,0c-0.4-0.2-0.7-0.6-1.2-0.7
						c-2.3-0.5-1.9,0.4-1.7,1.8c0,0.3,0.2,0.5,0.5,1c-3.5,5-3.6,4.1-1.6,8c-1.3,1.5-4,1.1-3.4,4.2c-1-0.3-0.5,0.3-2.5-3.7
						c1,0,1.6,0,2.4,0c-0.1-1.9,0.2-1.6-1.9-1.2c-0.7-1.2-1.4-2.4-2.2-3.8c2.2-1.2,5.3-0.1,7-2.9c-0.6-0.4-1.2-0.8-1.7-1.2
						c2.4-5.3,2.4-5.3,4.2-6.1c0.3,1,0.2,0.5,0.2,1.9c1-0.7,1.8-1.2,2.8-1.9c0.7,0.4,1.4,0.8,2.5,1.4c0.5-0.4,1.3-0.9,1.6-1.5
						c1.4-2.6,1-1.8,4.3-2c0.2-4.3-0.3-3.5,1.8-4.1c1.8,6.3-4.1,4.5-4.4,8.2C244.8,269.4,243.8,270.3,242.2,270.5z"/>
					<path d="M136.5,325.9c2.1-3.1,3.2-5.9,6.2-5c2.8,0.8,3.5,2.3,2.4,5c-1,0.4-2,0.8-3.5,1.4c2.8,3.2,2.6,2.6,2.4,3.6
						c-0.4,3-0.4,3,2.7,3.7c0.6-2.3-0.6-4.4,0-4.5c5.8-1.2,5.1-0.8,5.5-0.4c0.2,1.7-3.3,2.6-0.4,5c-13.6,3.9-7,3.7-13.6-8.5
						C136.2,326,136.5,326.1,136.5,325.9z"/>
					<path d="M200.7,307.6c0.6,0.8,1.2,1.6,1.8,2.4c4.3-2,5.2-2.8,3.5-0.2c1.4,0.3,2.9,0.6,4.5,1c-0.3,0.7-0.4,1.1-0.5,1.3
						c4.7,5,3.9,3.8,3.4,5.2c0.1,0,0.2,0.1-3.1-2.7c-0.9,0.9-0.1,2.6-1.7,2.4c-1.3-0.1-1.9-1-2.2-2.2c0.5-0.4,0.9-0.8,1.8-1.5
						c-1.2-0.3-2-0.4-2.8-0.6c-1.7,3-0.4,5.7,0.3,8.8c-0.9-0.2-1.6-0.4-2.4-0.6c0.1-0.9,0.2-1.6,0.3-2c-2.6-3.9-1.9-2-3.3-7.4
						c-1.2-0.1-2,1.2-2.8-0.2c0.3-0.3,0.5-0.8,0.8-0.9c0.9-0.3,1.4-0.8,1.3-1.8C199.3,307.3,201.2,307.8,200.7,307.6z"/>
					<path d="M235.6,297.5c-1.2-2,0.1-1.9-6.9-1.6c0,1.3,0.9,3.2-1.2,4.4c-0.4-1.2-0.7-2.4-1.2-4c0.6-0.7,1.4-1.5,2.3-2.5
						c-1.5-2.7-1.8-1.6,2.5-2.4c-0.6-0.8-1.1-1.4-1.5-2c0.9-1.8,5.1,0.3,4.9,1.3c-0.1,0.8-1.3,1.5-0.4,2.5c0.9,1,1.8,0.4,2.8,0
						c0.7-0.2,1.4-0.3,2.1-0.5C239.6,293.5,239.7,292.4,235.6,297.5z"/>
					<path d="M40.9,290.2c0.3-0.9,0.6-1.6,1.1-2.8c-1.9,0.9-3.4,1.1-4.7-0.7c0.6-0.8,1.2-1.8,2.1-3c1.3,1.5,1.8,2.2,2.1,2
						c1-0.5,1.8-0.4,2.8,0.1c0.7,0.4,2.3-0.7,2.8-0.2c1.8,1.6,2.2,1,2.8,1.3c1.6,3.2-2.6,2.2-2.3,4.8
						C47.7,291.6,48.1,291.8,40.9,290.2z M46.1,287.2c-1,0.2-0.8,0-0.8,0.9C46.3,287.9,46.2,288.1,46.1,287.2z"/>
					<path d="M-18.2,228.4c1.2,0.5,2.4,1,3.5,1.5c0.6-0.6,1.1-1.1,1.8-1.8c0.3,1.1,0.5,1.8,0.7,2.6c1.5,0.4,2.9,0.8,4.5,1.2
						c-0.2,1.1-0.5,1.9-1.9,1.8c-5.7-0.6-4.7-0.2-8.5,1.7c0-1-0.1-1.7-0.1-2.7C-21.8,233.9-21.8,234.4-18.2,228.4z"/>
					<path d="M96.3,280.7c0.2-0.5,0.6-1.3,1.1-2.5c0.5,1.1,0.8,1.7,1.2,2.4c1.1-0.6,2.6-1.3,3.3,0.3c0.6,1.4-0.4,2.4-1.4,3
						c2.3,1.1,1.7,0.1,2.5,3.4c-1,0.8-1.9,1.5-2.9,2.3c-0.6-1.6-1.9-2.6-1.5-4.6C98.8,283.8,97.3,282.4,96.3,280.7z"/>
					<path d="M136.5,326.1c-0.6,0.5-1,1.6-1.9,0.5c-0.6-0.7-1.3-0.7-1.9-0.1c-0.7,0.6-1.1,1.2-0.3,2.1c0.2,0.2,0.1,0.7,0.2,1.3
						c-3.7-0.5-1.9-0.7-2.4,1.8c-0.1,0.6-0.5,1.1-0.8,1.8c-3-2,1-4.9,0.2-7.5c-0.1-0.4,0.9-1.3,1.5-1.8c0.5-0.4,1.2-0.5,1.7-0.9
						c2-1.2,2.2-1.2,3.1,1C136.6,326.1,136.5,325.8,136.5,326.1z"/>
					<path d="M57.2,282.7c-1.9,1-1.9,1-3.5-1.5c-0.4,0.5-0.8,1-1.1,1.5c2.3,1.5,2,1.1,1.9,1.8c-5.1,0.3-3.5,0.4-5.7-1
						c0.1-1.2,0.1-2.2,0.2-3.2C53.4,278.6,53.4,278.6,57.2,282.7z"/>
					<path d="M57.1,292.1c0.6-2.3,0.6-2.3,2.1-3c-0.1-1.1-0.1-2.2-0.2-3.7c2.7,2.5,2.2,5.5,2.9,8c0.4,1.5-1.3,1.9-2.5,2.5
						c0.2-1.5,0.4-2.8,0.6-4.2c-2.2,0-2.5,1.3-2.7,2.6c-1.3,0.2-2.6,0.4-3.8,0.6C53.2,292.8,53.2,292.8,57.1,292.1z"/>
					<path d="M73.1,214c1.7,2.5,1.4,2.3,1.5,1.4c1.4,0.5,2.7,1,4.1,1.5c-1.5,2.2,1.3,0.9,1.4,1.7c-0.9,2.1-3.2,2.4-5.1,0.5
						c-2,0.7-1.2,0.4-3.1,1C72.6,218.1,71.3,216.1,73.1,214z"/>
					<path d="M243.1,261.2c-1.3,1-2.3,2-4.2,1.5c-2.6-0.7-5.4-0.7-8.4-1.1c0.8-1,1.5-2,2.1-2.9C236.4,258.8,239.4,261.4,243.1,261.2
						z"/>
					<path d="M61,305.5c0.5,0.1,1,0.3,1.7,0.5c-1,1.8-3.4,2.7-2.2,5c-1,0.6-1.9,1.1-2.6,1.6c-0.8-0.5-2.2-1.2-2.2-1.3
						c0.7-1.7-1.7-3.4,0.1-5.2c0.4,0.7,0.8,1.3,1.3,2.3C57.1,308.4,61.8,305.5,61,305.5z"/>
					<path d="M110,228.4c-1.9,1-1.9,1-3.1,4.6c-2,0-1.7-1.8-2.4-2.9c0.6-0.6,1.1-1.1,1.8-1.8c-1.2-0.4-0.2-0.7-3.5,1
						c-1.1-2.6-1-2.7,1.2-2.8C104.9,226.5,107.2,224.9,110,228.4z"/>
					<path d="M129.4,345.1c-2.2-2.3-4.3-4.4-6.3-6.6c1.2-1.8,1.9,0.2,2.9,0.2c1.2-0.2,1.8-2,3-1c0.5,0.5,0.5,1.6,0.7,2.5
						c0.3,1.4-0.4,2.8,0.3,4.1C130,344.5,129.6,344.9,129.4,345.1z"/>
					<path d="M151,315.3c-2.3-0.4-2.3-1.8-2.5-3c-0.8-0.3-1.6-0.5-2.3-0.8c-0.3-1.5-0.3-3-2.3-3.3c-0.6-0.1-0.9-1.7-1.5-3.2
						c3.5,1.1,4.6,3.9,6.6,5.7C155.9,310.2,148.2,310.4,151,315.3z"/>
					<path d="M95.4,225.4c2.4-4.1,2.8-4.3,0.3-5.4c-0.4-0.1-0.5-0.7-0.9-1.3c2.6,0,5.5-1.5,6.6,2.5c-1.9,1.4-3.4,3.3-5.4,4.8
						C95.9,225.9,95.7,225.6,95.4,225.4z"/>
					<path d="M200.9,326c0.2-0.3,0.3-0.6,0.5-1c0.2,0.1,0.4,0.2,0.6,0.3l4.1-2.8c-0.1,0-0.3-0.1-0.4,0c-4.3,1.3-9,2.2-7.5,4.9
						c0.3,0,0.6,0,0.8-0.1L200.9,326z"/>
					<path d="M-24.2,276.1c7.5-0.2-1.1-1,0.3-3.3c0.9-1.4,3.5-0.8,4.3-0.7c-1.1,1.5-1.1,1.4,0.4,3.5c1.2,1.6-0.1,3.8-2.9,2.7
						C-22.7,278.1-23.2,277.3-24.2,276.1z"/>
					<path d="M173.8,243.7c2-1,2.4,1.9,4.3,1.7c-0.8,1.8-1.7,3.6,0.4,5.2c-1.9,1-1.3,0.9-5.4-2.6
						C173.8,245.1,173.6,246.1,173.8,243.7z"/>
					<path d="M222,253.5c-1.3,1.2,0.5,1.1-7.3,0.3c0-1.3,0.1-2.7,0.1-3.7c-1.2-0.6-2.2-1-3.4-1.6c1.7-1.3,1.7-1.3,5.1,0.5
						c-0.6,1.6-0.4,1.1-0.6,2.1c0.5,2,2.2-0.4,3.1,1.1C219.4,252.8,220.8,253,222,253.5z"/>
					<path d="M106.9,250.9c1.1,0.3,1.8,0.4,3.1,0.8c-0.1-1.1-0.2-2-0.3-2.8c1.2-0.1,0.6-0.6,3.1,3.4c-2.3,0.4-1.1,3.8-4,3.4
						C107.3,254.6,106.9,253,106.9,250.9z"/>
					<path d="M58.9,305.3c-0.2-0.6-0.4-1.4-0.8-2.8c0.4-1.3,2.6-3,0.8-5.4c1.6-0.6,2.2,0.5,2.9,1c0,1,0.1,1.8,0,2.5
						c-0.1,0.9-0.6,1.7-0.6,2.5c0,0.8,1,1.6-0.1,2.4C61.1,305.5,61.5,305.5,58.9,305.3z"/>
					<path d="M191.2,242.6c0.6-0.3,1.3-0.6,1.9-0.9c1.7,1.7-0.3,2.7-0.3,4.1c-1.7-0.3-3.3-0.6-5-0.9c1-3.7,0.1-2.8,4.1-4.4
						C192.8,241.8,191.4,242,191.2,242.6z"/>
					<path d="M163.2,286.6c-1,0.3-2.1,0.3-3.5,0.5c0-1,0-2.2,0-3.6c2.2,0.2,4,0.6,5.5-0.9C164.7,282.5,168.6,284.9,163.2,286.6z"/>
					<path d="M70.1,199c1.4,1.4,0.9,3.6,3.7,3.1c-0.9,0.9-1.1,1.4-1.5,1.5c-1.9,0.5-3.8,1-5.8,1.2c1.2-1,1.7-2.2,2.1-3.6
						C68.8,200.4,69.5,199.8,70.1,199z"/>
					<path d="M158.5,197.5c-1.2,2.4-1.6,2.5-3.4,0.4c-1-1.1-3.2-2.2-2.3-3.5c0.2-0.3,1.2-0.6,1.4-0.4
						C155.7,195,157.9,194.9,158.5,197.5z"/>
					<path d="M217.5,293.2c2.5-2.2,4.6-0.7,6.8,0.5c-0.6,0.3-1.1,0.6-2,1c0.9,1,1.7,1.8,2.4,2.6
						C222.9,297.8,223.7,297.8,217.5,293.2z"/>
					<path d="M158.1,280.5c0.3,2.6,0.4,1.7-1.5,3.7c-0.6-2.9-1-5.2-1.5-7.6c1.5,0.5,3.2,0.1,3.7,1.9
						C160.2,278.8,160.3,278.4,158.1,280.5z"/>
					<path d="M136.9,183.1c1.4-0.6,2.4-1.1,3.7-1.7c0.1,2.1,0.3,4,0.4,6.1c-0.8,0.3-1.6,0.5-2.7,0.9
						C138.5,183.7,138.9,184.8,136.9,183.1z"/>
					<path d="M78.8,404.6c-0.7-5-1-2.9,2.1-4.5c0.7-0.4,1.3-1,2.1-1.6c0.2,2.5,0.6,3.9-1.3,4.2C80.8,402.9,80,403.8,78.8,404.6z"/>
					<path d="M76.7,331.8c-0.9-1-1.5-1.7-2-2.4c-0.1-4.2,5.4-2.7,4.2-0.6C78.2,329.8,77.5,330.7,76.7,331.8z"/>
					<path d="M85,219.9c-0.6-0.6-1.1-1.1-1.9-1.9c0.5-0.4,1.1-0.8,1.7-1.3c0.3,1.2,0,2.5,1.9,2.2c1.2-0.2,2.4,0.2,3.5,0.3
						c-0.9,1.4-2.1,2.7-4.3,2c-0.6-0.2-1.3,0.3-2,0.5C83.6,221,83.4,221.3,85,219.9z"/>
					<path d="M-52.4,235.2c-0.3,4.1-1.5,0.7-3.6,4.8l0.1,0.2c1.8,0.4,0.3,1.4,7.6-5C-50,235.2-51.1,235.2-52.4,235.2z"/>
					<path d="M79.5,305.4c-2.8-1.7-3.7-3.8-3-6.8c0.5,0.2,1.5,0.5,1.4,0.5c-0.7,2.3,1.3,2.9,2.8,4.1
						C80.3,303.9,79.9,304.5,79.5,305.4z"/>
					<path d="M-51.9,211.9c4.3,3.3,2.6,2.9,7.5,2c0.1,0.2,0.2,0.4,0.3,0.7c-1.6,1.6-0.1,1-5.1,2.3C-49.1,215-51.5,214.4-51.9,211.9z
						"/>
					<path d="M-18.1,260.5c-0.1,1.8-0.2,3.3-0.4,4.7c-1.2-2.6-4-1.9-5.9-2.7C-24,261.8-24.8,262.2-18.1,260.5z"/>
					<path d="M138,300.8c0,1.4-0.8,1.7-1.9,2c-1.4,0.4-1.8,1.2-0.8,2.4c0.7,1,0.7,1.3-0.5,1.9c-0.7-1.1-0.3,0.1-1.7-4.4
						C134.6,301.6,136,300.5,138,300.8z"/>
					<path d="M224.2,213.1c0.1-0.6,0.1-1,0.2-1.6c-0.4,0-0.8,0.2-1,0c-1.6-1.3-0.2-2.1-0.1-2.1c1.7,0.1,3.4,0.2,5.6,0.4
						C227.1,211.1,225.8,212.1,224.2,213.1z"/>
					<path d="M147.9,321.1c-1.2-2.4,1.8-2.7,1.9-4.3c1.1,0.5,2.2,1,3.5,1.6c-0.1,0.2-0.3,1-0.3,1c-1.8-0.4-3,1-4.4,1.7
						C148.6,321.2,148.4,321.1,147.9,321.1z"/>
					<path d="M162.1,340.1c1.2-2.2,1.2-2.2-0.8-3.9c1.1-0.2,1.9-0.3,2.7-0.4c1.4,1.9,1.6,3,0.7,4.2
						C164.2,340.7,164.1,340.7,162.1,340.1z"/>
					<path d="M102.9,266.2c1-1.6,1.9-3,2.9-4.6c0.9,1.2,2,2,1.3,3.5C106.5,266.4,105.5,266.7,102.9,266.2z"/>
					<path d="M94.2,336.2c-1.5-1.3-2.7-2.3-4.1-3.5c0-0.7,0.3-1.6,1.7-1.3C93.9,331.9,94.5,332.8,94.2,336.2z"/>
					<path d="M262.3,280.8c0.1,0.7,0.2,1.3,0.3,2c-2.3,1.4-4.1-0.7-6.7-0.6C258.2,280.6,260.3,281.1,262.3,280.8z"/>
					<path d="M156.4,275.4c-1-0.5-1.9-1-3-1.6c0.5-1.3,1-2.6,1.5-4c1.9,1.1,1.9,1.1,0.8,3.2C156.1,273.7,157.7,273.9,156.4,275.4z"
						/>
					<path d="M75.5,294.9c0.1-1.3,0.3-2.5,0.5-4.1c1.2,0.9,2.3,1.6,3.1,2.5c0.5,0.5-0.3,1.7-1.2,1.7C77.2,295,76.5,294.9,75.5,294.9
						z"/>
					<path d="M81.5,273.8c1.8-2.9,4.2-2.3,4.8-0.6c0.1,0.4-0.1,1.2-0.4,1.4C85.1,274.8,83.6,274.3,81.5,273.8z"/>
					<path d="M125.4,238.7c1.1-2.2,2-4,3-6c0.5,0.7,1.2,1.3,1.3,2C130,237.2,128.2,237.4,125.4,238.7z"/>
					<path d="M87.6,213.1c2.3-1,2.3-1,4.5,1.5c-1.2,0.6-2.3,1.1-3.7,1.7C88.1,215.1,87.8,214.1,87.6,213.1z"/>
					<path d="M165.1,282.6c0.2-2.5-2-2.7-4-3.4c2.1-1.1,3.7-1.9,5.8-0.5C164.9,283,165,282.6,165.1,282.6z"/>
					<path d="M143.4,314.5c-0.5-1.2-0.8-2.2-1.3-3.3c2.5-0.8,3.2,1.7,5,2.1C146,314.9,144.6,314,143.4,314.5z"/>
					<path d="M217.9,285.4c-0.1,0.4-0.2,1-0.6,1.4c-0.6,0.7-2.8,0.6-3.3-0.1C212.7,285,216.3,283.3,217.9,285.4z"/>
					<path d="M90.8,358.4c-0.1,0.6-0.2,1.4-0.3,2c-1.8,0.6-3.5,1.1-5.4,1.7C84.4,359.8,89.5,358.8,90.8,358.4z"/>
					<path d="M144.9,278.4c-0.1,0.9-0.2,1.8-0.3,3c-2.2-1.4-1.4-1.4-3.8,0.4c-0.1-0.9-0.4-1.7-0.2-2
						C141.6,278.4,143,278,144.9,278.4z"/>
					<path d="M140.1,305.4c-0.6-1.6-0.9-2.6-1.4-3.9c1.7,0.1,2.9,0.2,4.9,0.3C142.3,303.2,141.4,304.1,140.1,305.4z"/>
					<path d="M238.1,274.9c0.4,2.1,0.7,3.6,1,5.3C236.2,282.4,235.4,277.9,238.1,274.9z"/>
					<path d="M21.3,186.1c0.7-0.6-0.7-2.8,1.8-2.5c0.3,1.8,0.2,3.2-1.6,4.2c-1,0.6-1.9,1.1-2.8,0C18.9,186.3,20.5,186.9,21.3,186.1z
						"/>
					<path d="M-41.9,240.2c2.2-4.3,2.2-5.2,4.2-4.4C-39,237.9-41.1,242.5-41.9,240.2z"/>
					<path d="M87.7,195.1c-0.5,0.2-1.1,0.6-1.8,0.9c-0.2,0.1-0.8-0.3-0.9-0.5c-0.6-4.5-0.1-3.7,0.8-4.7
						C86.4,192.1,87,193.4,87.7,195.1z"/>
					<path d="M167.1,271c1.1-0.9,2.1-1.6,2.3-3.2c0.1-1.2,0.8-1.3,2.4-1C169.5,271.6,169.1,272,167.1,271z"/>
					<path d="M182,258.9c-3.7,3.1-6.5,1.5-6.4,0.3C175.7,258.1,176.3,258.4,182,258.9z"/>
					<path d="M32.3,295.6c2.6-1.3,2.9-1,3.3,2.9C33.4,298.7,33.1,296.9,32.3,295.6z"/>
					<path d="M49.7,299.9c-0.6-2.5-0.1-2.9,4-2.7C54.6,298.9,53.8,298.7,49.7,299.9z"/>
					<path d="M344.6,218.7c-1.9,1.6-3.3,1-4.8-0.6C341.9,215.7,340.8,215.8,344.6,218.7z"/>
					<path d="M97,298c-1.3,1.3-2.6,2.6-3.9,3.8c-0.3-0.1-0.5-0.1-0.6-0.2c-0.8-1.9,1.5-2.4,1.8-3.9C94.6,297,95.1,297.1,97,298z"/>
					<path d="M111.3,261.7c-2.6-3.9-2.5-2.7-1.2-5.5c1.6,0.2,0.2,2.1,1.7,2.6C112.4,259,112.7,260.7,111.3,261.7z"/>
					<path d="M178.8,278.8c1.7-0.9,3.3-1.7,4.9-2.5c0.9,1.5-0.2,2.4-0.7,2.5C181.7,279,180.3,280,178.8,278.8z"/>
					<path d="M7.1,47.9c0.3,2.4-0.3,3.1-2.8,3.9C4,49.8,4.6,48.9,7.1,47.9z"/>
					<path d="M-27.7,235c0.7,1,1.3,1.9,2,3C-27.1,241.8-29.8,236.2-27.7,235z"/>
					<path d="M48.3,387.7c-1.4-1.5-1.5-2.6,0-3.6c1.1,0.6,2.3,1.3,3.4,2C51.1,388.1,48.8,385.3,48.3,387.7z"/>
					<path d="M-0.4,172.4c3.2-1.2,3.4-1.2,6.2-0.6c0.1,0.6,0.3,0.1-0.6,1.9c-1.6-1.1-1-0.6-2.2-1.5C0.9,173.5,1.7,173.3-0.4,172.4z"
						/>
					<path d="M-23,226.2c-1.3,0.6-2.4,1.2-3.3-0.2c-0.5-0.8,0.1-1.7,1.8-2.6C-24,224.3-23.5,225.2-23,226.2z"/>
					<path d="M141.7,261.8c-1,0.8-1.8,1.5-3,2.4c-0.5-0.9-0.9-1.7-1.3-2.5C140.3,260.6,140.3,260.6,141.7,261.8z"/>
					<path d="M135.2,182.1c0.1-3.1,0.5-2.1-2.2-4.5c2.7-1.9,4,2.2,2.9,4.5C135.7,182.1,135.4,182.1,135.2,182.1z"/>
					<path d="M75.2,197c-1.5,0.5-3.1-0.4-3.5-1.8c-0.3-0.8-0.3-0.8,1.3-1.5C73.7,194.7,74.4,195.8,75.2,197z"/>
					<path d="M86.1,396.9c0.7,0.4,1.3,0.7,2.2,1.2c-0.6,0.9-1.1,1.8-1.7,2.8C84.8,399.3,84.8,399.3,86.1,396.9z"/>
					<path d="M229.2,220.4c0.5-1.5,0.5-1.5,2.3-2.5c0.3,1.6,0.3,1.6,1.9,2.4C231.9,222.3,230.7,220.4,229.2,220.4z"/>
					<path d="M-20.4,227.3c1.2-2.3,1.7-4.4,3.8-2.7C-18.6,228.7-20.4,226.7-20.4,227.3z"/>
					<path d="M93,226.1c-1-1.3-1.8-2.4-2.6-3.4c1.8-2.1,2.4,1,4.1,0.7C94,224.4,93.6,225.1,93,226.1z"/>
					<path d="M330.6,222.8c1-0.2,1.6-1.6,2.8-0.6c1.2,1.1-0.8,1.8-0.6,3C330,223.1,330.3,223.6,330.6,222.8z"/>
					<path d="M-46.3,224.9c1.1-0.1,1.9-0.1,2.6-0.2c0.2,2.2,0.2,2.2-2.1,3C-45.9,227-46.1,226.2-46.3,224.9z"/>
					<path d="M366.5,146.4c-0.2,1.6,2.2,2.5,0.7,4.2c-0.9-0.5-2.5-0.5-2-3.2C365.2,146.9,366,146.7,366.5,146.4z"/>
					<path d="M-26.9,254.1c2,0.5,3,1,3.4,2.7c-0.8,0.3-1.5,0.6-2.5,1C-26.2,256.6-26.5,255.6-26.9,254.1z"/>
					<path d="M44.3,298.3c0.9-1.3,1.3-2.7,3.1-2.4C47.1,298.5,46.8,298.8,44.3,298.3z"/>
					<path d="M184.6,318.8c-2.3,1.3-2.1-0.1-3.2-4.2C183.7,315.1,183.6,317.2,184.6,318.8z"/>
					<path d="M52,292.4c0,0-0.6,0.7-1,1.1c-0.8-0.3,0.1-2.3-3.4-1.9c0,0.1-0.3,0.2,4-2.9C52.8,289.1,50.8,291,52,292.4z"/>
					<path d="M223.6,307.7c-0.6,2-0.3,3.2-2.6,3.2c-0.2,0-1.9-1.1,0.4-2.3C222.3,308.1,223.8,307.8,223.6,307.7z"/>
					<path d="M126.7,179.9c1.1-2.8,0.6-2.2,2.1-2.5c0.1,0,0.6,3.1,0.5,3.1C127.4,180.8,127.7,180.6,126.7,179.9z"/>
					<path d="M192.8,125.8c0.8-1.8-0.4-1.2,3.7-2.6c0,0.3,0.2,0.8,0.1,1C195.6,125.1,194.7,126.2,192.8,125.8z"/>
					<path d="M249.8,277c-0.5-1.4-0.8-2.1-1.2-3.1C253.8,272.1,253.3,272,249.8,277z"/>
					<path d="M327.4,144.1c-1.2-1-1.9-1.7-2.6-2.3c0.5-1,1.4-1.5,2.8-1.2C327.5,141.7,327.4,142.6,327.4,144.1z"/>
					<path d="M50,302.1c0.5-0.6,1-1.2,1.6-2c0.9,0.7,1.5,1.3,2.5,2.1C49.4,303.4,50.1,303.5,50,302.1z"/>
					<path d="M185.4,245.6c-1-0.4-2-0.9-3.1-1.3c0.9-0.8,1.6-1.5,2.4-2.3C186.1,245.5,186,244.8,185.4,245.6z"/>
					<path d="M331.5,158.3c0.9-1.6,1.8-3.3,2.7-4.9C335.6,155.3,334.9,156.8,331.5,158.3z"/>
					<path d="M198.3,319.2c1.7-0.7,2,0.5,2.7,1c-0.3,1.6-0.9,2.6-3,2.5C199.6,320.5,199.6,321.3,198.3,319.2z"/>
					<path d="M177.3,178.1c0.7-2.3,0.4-4,3.9-1.8C180,176.9,179,177.3,177.3,178.1z"/>
					<path d="M-97.9,116.5c-1.1-0.5-2-0.7-2.2-1.1c-0.8-1.5,0.8-3.4,2.1-1.1C-97.8,114.8-97.9,115.4-97.9,116.5z"/>
					<path d="M333.9,228.3c0.1,0.5,0.4,1.1,0.2,1.5c-0.5,1.6-1.2,2.3-2.3,2.5C333.1,227.6,332.6,228.2,333.9,228.3z"/>
					<path d="M157.6,273c1.9,0.6,1.3,0.5,2.3,0.6c0.1,0.9,0.1,1.8,0.2,2.7C157.7,276.3,158.6,274.4,157.6,273z"/>
					<path d="M54.1,313.4c-2.9-2-2.6-1.3-2-3.4C54.1,310.3,54.7,311.3,54.1,313.4z"/>
					<path d="M-113.2,71.8c-0.1,1-0.2,2-0.3,3.2c-1-0.2-1.9-0.2-1.7-1.4C-115,72.6-114.9,71.4-113.2,71.8z"/>
					<path d="M332.4,212.8c-0.5,0.9-0.9,1.9-1.2,1.9c-1.5,0-1.5-1.2-1.6-2.6C330.4,212.3,331.1,212.5,332.4,212.8z"/>
					<path d="M-115.8,80.7c1.5-0.7,2.5-1.2,3.5-1.7C-110.1,80.6-113.9,82.6-115.8,80.7z"/>
					<path d="M55.1,177.7c-2.1,1.8-2.1,1.8-3.5-0.6C53.1,175.5,53.6,177.8,55.1,177.7z"/>
					<path d="M116.1,327.9c1.8-0.4,2.9-0.6,4.1-0.9c-0.1,0.8-0.1,1.6-0.3,2.9C118.8,329.3,117.8,328.8,116.1,327.9z"/>
					<path d="M142.7-89.2c1.1,0.5,1.7,0.7,2.8,1.2c-1,0.9-1.6,1.5-2.5,2.4C142.9-86.8,142.8-87.6,142.7-89.2z"/>
					<path d="M-0.4,160.7c1,2.2,1,2.2-0.5,3.6C-1.9,163-1.5,162-0.4,160.7z"/>
					<path d="M-7.4,211.8c-0.7,1.8,1.3,3-0.5,4.3C-9.4,214.2-9.4,214-7.4,211.8z"/>
					<path d="M50.1,310.1c-1.3,0.3-1.9,0.4-2.8,0.5c-0.3-1.7-0.6-1,0.8-2.5C48.6,308.6,49.2,309.2,50.1,310.1z"/>
					<path d="M77.6,388.7c-0.6-0.9-1.1-1.7-1.7-2.5c1.1-0.7,2-0.4,2.6,0.5C79,387.2,78.9,387.3,77.6,388.7z"/>
					<path d="M43.3,281.9c-1-1-1.6-1.5-2.3-2.3c2.1-0.4,1.2-0.5,3.5,0.3C44.1,280.5,43.8,281.1,43.3,281.9z"/>
					<path d="M-32.1,217c0,1.9,0,1.9-2.5,2.6C-35.2,217.2-33,217.7-32.1,217L-32.1,217z"/>
					<path d="M-5.5,313.5c0.4-1.2,0.5-1.8,0.9-2.8c0.9,0.9,1.5,1.6,2.6,2.7C-3.5,313.4-4.2,313.4-5.5,313.5z"/>
					<path d="M177,301c0.8-1,1.1-1.7,1.6-2.1c1.3-0.9,2.6,0.8,0.8,1.9C179,301.1,178.4,301,177,301z"/>
					<path d="M363.4,141.3c-0.5,0.5-0.8,0.9-1.2,1.2c-1.6-0.3-1.8-1.5-2.4-3.1C361.1,140.1,362.1,140.6,363.4,141.3z"/>
					<path d="M-21.2,229.9c-1-1.8-0.9-3.2-0.4-4.7C-20.2,227.8-20.3,226.6-21.2,229.9z"/>
					<path d="M51,293.5c0.4,0.9,0.8,1.8-0.5,2.9c-0.5-1-0.9-1.9-1.4-3.1C51.1,293.4,50.6,293.4,51,293.5z"/>
					<path d="M122.3,297.8c-2.5,1.3-2.5,1.3-3.6-0.8C120.1,296.1,121.1,296.8,122.3,297.8z"/>
					<path d="M195.1,241.8c1.1-1.8,1.5-1.7,3.3,0.4C197.2,243.7,196.3,242,195.1,241.8z"/>
					<path d="M-37.9,215c-0.1,0.9-0.1,1.7-0.2,2.7C-40.2,216.7-40.2,216.7-37.9,215z"/>
					<path d="M289.4,226.6c-0.3,2.4,0.3,1.8-3,2.6c-0.2-0.4-0.6,0,2.5-2.8C289,226.5,289.2,226.5,289.4,226.6z"/>
					<path d="M331.3,163.9c1.2-3.3,0.7-2.5,2-3.1C333.9,162.5,334.5,161.8,331.3,163.9z"/>
					<path d="M346,162.3c1,1.4,1,1.4,0.8,4C345.4,165.3,345.5,164.1,346,162.3z"/>
					<path d="M17,283.4c-0.8-3.5-1-3.5,2.3-0.8C18.4,282.9,17.8,283.1,17,283.4z"/>
					<path d="M307.2,202.6c0.5,1.3,0.7,2.2-0.7,2.5c-0.4,0.1-1.1-0.1-1.2-0.4C305,203.3,306.2,203.2,307.2,202.6z"/>
					<path d="M46.8,360.2c-1.8,0.6-2.6,0.1-2.9-1.5C45.3,358.4,46.2,358.6,46.8,360.2z"/>
					<path d="M-26.7,271.4c0.2,1.9,0,2.8-1.3,3.3C-29.3,273.1-28,272.6-26.7,271.4z"/>
					<path d="M-120.3,74.4c-0.3,0.9-0.4,1.6-0.7,1.7c-0.5,0.2-1.2,0.1-1.6-0.1c-0.2-0.1-0.2-1.3,0-1.4
						C-122,74.3-121.4,74.4-120.3,74.4z"/>
					<path d="M10.4,175.2c0.2,0.8,0.4,1.2,0.5,1.9C6.6,177.4,7.2,177.4,10.4,175.2z"/>
					<path d="M-5.5,222.3c-1-1.2-1.3-0.2-2.1,0.9c-0.2-4.2-0.4-3.8,2.5-1.5C-5.3,221.9-5.4,222.1-5.5,222.3z"/>
					<path d="M36.3,302c0.6,0.2,0.2-0.2,1.7,1.4c-0.3,0.4-0.5,0.9-0.8,1C35.6,304.6,34.7,302.6,36.3,302z"/>
					<path d="M234.1,218c0.3-1,0.6-2,0.9-3C237.5,216.1,236,218.6,234.1,218z"/>
					<path d="M291,228.6c0.3-1.9,0.3-1.9,2.1-2C292.6,228.7,292.6,228.7,291,228.6z"/>
					<path d="M111.4,237.5c1.3-0.5,2.1-0.9,3.1-1.3C114,238.7,113.7,238.9,111.4,237.5z"/>
					<path d="M68.4,238.3c-0.7,0.6-1.2,1.1-1.8,1.7c-0.3-0.7-0.7-1.2-0.6-1.6C66.4,237.3,67.2,237.4,68.4,238.3z"/>
					<path d="M337.1,216.6c0.5-1.6-0.2-1.5,2.1-1.2C338.9,217.3,339.3,216.9,337.1,216.6z"/>
					<path d="M368.3,188.7c0.3-0.3,0.3-0.4,0.4-0.5c2.1-0.8,2.6,0.9,1.9,1.4C369.5,190.3,368.9,189.5,368.3,188.7z"/>
					<path d="M16.9,278.7c-1.6-0.6-2.3-1-1.9-2.5C16.3,276.4,16.4,277.3,16.9,278.7z"/>
					<path d="M110.8,232.8c0.6,0.9,1.2,1.1,0.6,2.7c0,0.1-0.9,0.1-0.9,0C109.7,234.2,110.5,233.5,110.8,232.8z"/>
					<path d="M16.7,166.8c-1,0.3-1.9,0.6-3.1,0.9C14.4,165.6,14.4,165.6,16.7,166.8z"/>
					<path d="M-60.5,220.9c0-0.9,0.1-1.5,0.1-2.6c0.9,0.5,1.6,0.9,2.3,1.3C-58.2,220.4-57.9,220.2-60.5,220.9z"/>
					<path d="M-52.2,227.7c0.4-0.7,0.8-1.3,1.4-2.2c0.5,0.5,0.8,0.8,1.1,1.1C-50.7,227.7-52.7,230.2-52.2,227.7z"/>
					<path d="M244.1,278.3c-1.5,1.6-1.5,1.6-2.8,0.1C242.2,277.5,243,277.4,244.1,278.3z"/>
					<path d="M208.2,288.7c0.9-1.4,0.9-1.4,2.7,0.3C210.7,289.9,211.3,290,208.2,288.7z"/>
					<path d="M383.8,174.2c0.1,2.2-2.2,1.1-2.9,2.3C382.3,174.2,382.4,174.1,383.8,174.2z"/>
					<path d="M-32.1,250.2c0.4-1.2,0.7-2.6,2.6-2.7C-30.1,249-30.1,249-32.1,250.2z"/>
					<path d="M-28.7,14c0.8-1.3,1.9-1.7,3.1-1.3C-25.4,13.7-24.8,13.4-28.7,14z"/>
					<path d="M224.2,256.9c0.4-2.7,0.4-2.7,2.7-1.8C226,255.6,225.3,256.1,224.2,256.9z"/>
					<path d="M200.8,307.6c-1.1-1.1-0.1-2.4,2.8-1.2C202.4,307.9,200.3,307.5,200.8,307.6z"/>
					<path d="M184.4,298.9c-0.4,0.8-0.6,1.4-1,1.7c-0.1,0.1-1-0.1-1.1-0.2C182.1,298.1,182.8,298.8,184.4,298.9z"/>
					<path d="M184.7,231.5c0.8-0.1,1.7-0.1,2.8-0.2C186.3,233.2,186.3,233.2,184.7,231.5z"/>
					<path d="M229.6,216.9c-2,1.2-2.1,1.1-2.3-1.4C228.1,216,228.8,216.5,229.6,216.9z"/>
					<path d="M223.6,307.7c-1.4-1.4,0.8-2.5,2.6-2.4C223.3,308,223.5,307.7,223.6,307.7z"/>
					<path d="M146.3,273.1c-2.1,0.9-2.7,0.2-3-1.1C143.9,271.1,143.3,271,146.3,273.1z"/>
					<path d="M5.9,181.4c-1.3,3.8-0.9,3.3-1.7,3.3C4.1,182.4,3.8,181.1,5.9,181.4z"/>
					<path d="M153.2,328.2c-1.4-1.7-1.4-1.7,0-3.3C153.2,326.2,153.2,327.2,153.2,328.2z"/>
					<path d="M-13.1,227.4c-1.7-0.3-1.7-1.4-1.7-2.8C-13.2,225.5-13.2,225.5-13.1,227.4z"/>
					<path d="M348.8,129.1c2.5-1.3,2.1-1.2,2.5-0.8C349.4,131.3,349.2,132.3,348.8,129.1z"/>
					<path d="M156.8,203.9c-2.5,3-2,2.8-2.7,2.2c0.2-1.4,1.6-1.6,2.3-2.6C156.5,203.7,156.7,203.8,156.8,203.9z"/>
					<path d="M208.7,245.6c1-2.4,2.7-0.7,2,0.2C210,246.7,209.3,246.3,208.7,245.6z"/>
					<path d="M202,185.5c0.5-0.9,1.1-1.9,2.5-0.7C201.9,186.2,202.5,186.1,202,185.5z"/>
					<path d="M346,222.3c0.7,1.7-0.4,2.2-1.4,3.2C344.4,224,344.6,223.1,346,222.3z"/>
					<path d="M133.9,309.6c-1.3-0.5-1.3-0.5-1.7-2.4C133.7,308,133.7,308,133.9,309.6z"/>
					<path d="M189.1,316.1c-1.2,1.6-1.2,1.6-3,0.9C186.2,316.2,185.7,316.5,189.1,316.1z"/>
					<path d="M158.9,278.6c1.7-2.1,1.8-2.1,3.6-1.5C159.4,279.1,160.2,278.8,158.9,278.6z"/>
					<path d="M371.7,167.4c1.4-0.5,0.8-0.4,1.9-0.3c-0.5,2.7-0.3,2.3-1,2.4C372.4,168.8,372.1,168.2,371.7,167.4z"/>
					<path d="M349.8,205.1c0.5-0.8,1.1-1.5,1.6-2.3C352.1,204.4,352.1,204.4,349.8,205.1z"/>
					<path d="M94.6,358c-1.8-0.1-1.5-1.3-2.1-2.4C94.4,355.7,94.7,356.6,94.6,358z"/>
					<path d="M-53.5,183.9c0.6-0.6,1.1-1.1,1.8-1.8C-51.4,184.5-51.5,184.6-53.5,183.9z"/>
					<path d="M215.5,282.5c-1.4,0.1-2.1,0.1-3,0.2c0-0.4-0.1-0.9,0-1.1C213.6,280.3,214.2,281.4,215.5,282.5z"/>
					<path d="M-112.1,75c2.7-2,2.7-2,3.3,0.1C-109.7,75.1-110.6,75-112.1,75z"/>
					<path d="M-0.6,167.5c-1.2-0.2-1.1,0.3-0.8-2.1C-0.1,165.5-0.3,165-0.6,167.5z"/>
					<path d="M164.6,223.2c2.3,1.1,2.2,0.3,1.3,2.7C165.1,225.8,165.4,226.2,164.6,223.2z"/>
					<path d="M365.9,166.5c1,0.4,1.6,0.7,2.3,1C366.8,168.9,366.8,168.9,365.9,166.5z"/>
					<path d="M280.3,248.6c-1.6-0.8-1.6-0.8,0.1-2.8C280.4,246.8,280.4,247.6,280.3,248.6z"/>
					<path d="M347.4,134.6c-1.1,0.8-1.8,1.2-2.8,1.9C344.9,135,344.9,135,347.4,134.6z"/>
					<path d="M152.8,202.7c0.5-0.1,0.6-0.2,0.6-0.1c0.6,0.5,1.4,1,0.8,1.9c-0.1,0.2-0.9,0.2-0.9,0.2
						C153.1,204,153,203.4,152.8,202.7z"/>
					<path d="M186.6,251c-1.3-1.6-0.8-2.4-0.1-3.3C187.7,248,187.5,247.3,186.6,251z"/>
					<path d="M9.7,157.5c-0.4,0.8-0.8,1.7-1.2,2.6C7.8,158.7,7.8,158.7,9.7,157.5z"/>
					<path d="M208,234.7c1.3,1.4,1.3,1.4-0.1,2.5C207.9,236.3,208,235.6,208,234.7z"/>
					<path d="M-20.1,207.9c0.3,1.8-0.3,2.2-1.2,2.2c-0.2,0-0.6-0.7-0.5-0.8C-21.4,208.8-20.9,208.5-20.1,207.9z"/>
					<path d="M46.2,310.6c-1.4-0.2-2.2-0.6-2.3-2.1C45.4,308.5,45.9,309.2,46.2,310.6z"/>
					<path d="M364.2,155.9c0.1,0.8,0.2,1.5,0.4,2.4C363.1,158.1,363.1,158.1,364.2,155.9z"/>
					<path d="M216,241.6c-0.3,0.7-0.5,1.3-0.8,1.7c-0.1,0.1-1.1-0.2-1.1-0.4c0-0.5,0.1-1.1,0.4-1.6
						C214.6,241.2,215.2,241.5,216,241.6z"/>
					<path d="M365.5,179.5c-1.7-0.3-1.6-1.2-1.4-2.6C365.5,177.5,366,178.1,365.5,179.5z"/>
					<path d="M252.2,289c-1.6,1.3-1.6,1.3-2.4-1.5C250.8,288.1,251.4,288.5,252.2,289z"/>
					<path d="M37.7,293.2c0.3-0.9,0.5-1.5,0.8-2.4c0.6,0.9,1,1.5,1.6,2.3C39.4,293.2,38.7,293.2,37.7,293.2z"/>
					<path d="M176.2,277.9c0.5-0.8,1-1.3,1.5-2.1C178.4,277.9,178.4,277.9,176.2,277.9z"/>
					<path d="M61.5,216.6c1.7,0,1.5,1.3,2.3,2.1C62,218.7,62,218.7,61.5,216.6z"/>
					<path d="M52.4,229.2c-0.4,0.7-0.7,2-2.2,0.8c-0.1-0.1,0.1-0.9,0.3-1.1C50.7,228.8,51.3,229,52.4,229.2z"/>
					<path d="M356,162.2c0.8-1.2,1.3-2,2.7-1.4C358.3,161.9,357.8,162.6,356,162.2z"/>
					<path d="M46.2,265.2c-0.5,1.5,0,1.2-1.9,1.1C44.5,265.1,43.9,265.3,46.2,265.2z"/>
					<path d="M227.3,251.9c2,0.7,1.9,0.1,1.2,2.2C227.5,253.9,227.8,254.4,227.3,251.9z"/>
					<path d="M37,290.7c0,1.5-0.8,2.3-2.5,2.9C34.9,291.1,37.8,290.9,37,290.7z"/>
					<path d="M112.8,198c-0.4-0.5-0.7-1.1-1.3-1.9c0.6,0,1.2-0.1,1.5,0.1C113.5,196.7,113.9,197.4,112.8,198z"/>
					<path d="M236.7,280.3c-0.2,0.6,0.1,0.2-1,1.4c-0.2-0.2-0.6-0.5-0.6-0.7c0-1.6,1.1-1,1.6-1C236.7,280.1,236.7,280.3,236.7,280.3
						z"/>
					<path d="M230.1,302.5c0.3,1.7-0.6,2.2-1.2,2.9C228.1,304.9,228,305.5,230.1,302.5z"/>
					<path d="M67.5,400.6c-0.4,1.3-0.7,2-1.1,3.2C65.7,402.3,65.6,401.5,67.5,400.6z"/>
					<path d="M105.5,205.8c-1.6,1-1.6,1-2.9,0.2C104,204.6,105.4,206,105.5,205.8z"/>
					<path d="M-21.8,207.1c-0.3,1.6-1.2,1.6-2.4,0.9C-23.4,207.7-22.6,207.4-21.8,207.1z"/>
					<path d="M105.5,205.8c0.8-0.3,1.6-0.7,2.5-1.1C107.3,206.9,107.2,207,105.5,205.8C105.5,205.8,105.5,205.8,105.5,205.8z"/>
					<path d="M-39.9,221.7c-0.8,0.8-1.2,2.4-3.3,1C-41.8,222.3-40.9,222-39.9,221.7z"/>
					<path d="M195.1,322.4c-0.4,2.6-0.1,2.3-1.1,2.1c-0.6-0.8-1.1-1.7,0.1-2.3C194.4,322.3,194.7,322.3,195.1,322.4z"/>
					<path d="M-78.5,204.3c0.1-1.8,0.9-1.8,1.8-1.8C-76.2,203.3-75.9,202.9-78.5,204.3z"/>
					<path d="M370.3,148.4c1.1,0.9,1.1,1.9,0.6,2.8C370.1,151.2,370.3,151.7,370.3,148.4z"/>
					<path d="M383.3,142.9c-0.9,0.5-1.4,0.8-2.3,1.2c0.2-1,0.2-1.6,0.4-2.5C382.1,142.1,382.5,142.4,383.3,142.9z"/>
					<path d="M-114.6,77.1c1-0.3,1.7-0.4,2.7-0.7C-112.6,78-113.4,77.8-114.6,77.1z"/>
					<path d="M156.4,148.5c-1.5-0.4-1.1-0.1-1.2-1.3C156.9,147.5,156.7,147.1,156.4,148.5z"/>
					<path d="M144.1,276.9c0.8-0.8,1.3-1.3,2.1-2C146.5,276.7,146.1,277.3,144.1,276.9z"/>
					<path d="M137.4,238.1c0-3.4-0.3-2.9,0.9-1.5C139,237.4,138.6,237.7,137.4,238.1z"/>
					<path d="M92.3,189c1.2-1.1,1.2-1.1,2.2,0.4C93.6,189.2,93,189.1,92.3,189z"/>
					<path d="M106.1,277.5c0.1-0.7,0.2-1.3,0.4-2.1c0.5,0.4,0.9,0.5,1,0.8C107.8,277,107.9,277.8,106.1,277.5z"/>
					<path d="M-32,217c-0.4-0.4-1.2-0.8-1.1-1.1c0.1-0.9,0.8-1.1,1.9-0.7C-32.2,217.2-32.1,217-32,217z"/>
					<path d="M16.1,185.5c-0.7,0.1-1.5,0.2-2.4,0.3C14.3,184.5,14.3,184.5,16.1,185.5z"/>
					<path d="M43.8,168.4c1.5,0.4,1.2-0.1,1.3,1.6C43.9,169.9,44.2,170.4,43.8,168.4z"/>
					<path d="M80.4,369.4c-0.4-0.3-0.8-0.6-1.2-1c0,0,0.4-0.6,0.4-0.6c0.5,0.2,0.9,0.5,1.3,0.7C80.7,368.9,80.6,369.1,80.4,369.4z"
						/>
					<path d="M387.1,170.5c-0.1-1.3-0.5-0.8,1.4-1.7C388.9,169.7,389.2,169.3,387.1,170.5z"/>
					<path d="M161.9,330c-1.3-0.7-1.3-1.3-0.9-2c0.1-0.1,0.7-0.1,0.7-0.1C161.9,328.5,161.9,329.1,161.9,330z"/>
					<path d="M331.2,166.3c0.4,1,0.5,0.5-0.1,2c-0.7,0-0.5,0.3-0.7-1.9C330.7,166.4,331,166.4,331.2,166.3z"/>
					<path d="M103.8,270.8c1.3,1.1,1.3,1.1,0.8,2.8C104.3,272.6,104,271.7,103.8,270.8z"/>
					<path d="M110.6,247.8c-2.2-0.4-1-1.4-1.1-2.1C110.3,245.6,110,245.2,110.6,247.8z"/>
					<path d="M74,310.7c-0.7,0.8-1.1,1.2-1.6,1.7C71.7,310.8,71.7,310.8,74,310.7z"/>
					<path d="M50,302.1c0.1,1.4,0.5,0.9-1.7,1.7C48.4,302.3,49,302,50,302.1z"/>
					<path d="M150,273.7c2.1,0.1,1.6,1.4,1.9,2.1C151.1,276.1,151.5,276.5,150,273.7z"/>
					<path d="M112.9,202.3c-0.7-0.1-1.2-0.1-1.9-0.2C112,200.8,112,200.8,112.9,202.3z"/>
					<path d="M71.7,213.9c-1.8,1.4-1.4,1.4-2,0.7C71.5,212.9,71,213,71.7,213.9z"/>
					<path d="M45.8,183.3c-0.5-0.2-1-0.4-1.7-0.6C45.1,182.1,45.1,182.1,45.8,183.3z"/>
					<path d="M-12.4,164.8c-1.3,0-1.6-0.6-1.2-1.8C-12.4,163.1-12.1,163.7-12.4,164.8z"/>
					<path d="M6.5,163.5c2.1-1.6,1.6-1.4,2.1-1c-0.7,1.1-0.2,0.8-1.7,1.5C6.8,163.8,6.6,163.7,6.5,163.5z"/>
					<path d="M-44.6,208.2c-1.3-1.2-1.9-1.9-0.2-2.9C-44.7,206.2-44.7,206.9-44.6,208.2z"/>
					<path d="M23.7,187.7c-0.3,0.5-0.7,0.9-1.1,1.4C22,188,22,188,23.7,187.7z"/>
					<path d="M194.1,218.8c2.2-0.8,1.8-0.9,2.1,0C194,219.5,194.4,219.6,194.1,218.8z"/>
					<path d="M191.4,225.4c0.5,1.4,0.2,2-1.3,2.3C190.8,226,190.4,226.6,191.4,225.4z"/>
					<path d="M177.4,253.9c0-0.5,0-1,0-1.6c0,0,0.5-0.1,0.5-0.1c0.1,0.5,0.3,1,0.4,1.5C178,253.8,177.7,253.9,177.4,253.9z"/>
					<path d="M232.2,223.6c-2.2,0.9-1.8,1-2.2,0.1C232.1,222.6,231.6,222.6,232.2,223.6z"/>
					<path d="M300.8,194.9c1.3-1.3,1.9-1.1,2.3,0.3C302.4,195.1,301.9,195,300.8,194.9z"/>
					<path d="M362.2,154.2c2.2-0.7,1.7-0.8,2.1,0.1C362.2,155.2,362.7,155.3,362.2,154.2z"/>
					<path d="M285.3,220.5c2.5,1.3,2.1,0.8,1.7,2C285.1,221.8,285.6,222.3,285.3,220.5z"/>
					<path d="M-0.6,314.7c0.2-0.7,0.4-1.3,0.7-1.9c0.4,0.3,0.7,0.3,0.7,0.5C1,314.1,0.8,314.7-0.6,314.7z"/>
					<path d="M220.5,284.6c-0.9-0.2-1.5-0.3-2.1-0.4c0.1-0.3,0.1-0.8,0.3-0.9C219.5,282.6,220,283,220.5,284.6z"/>
					<path d="M119.5,362.4c-0.5,1.8-0.2,1.4-1.3,1.3C118.3,362,117.9,362.2,119.5,362.4z"/>
					<path d="M36.7,280.7c-0.4,0.8-0.6,1.4-0.9,2.1C35,281.5,35,281.5,36.7,280.7z"/>
					<path d="M164.1,187.9c2.2-1.5,1.8-1.4,2.1-0.9C164.1,188.5,164.5,188.4,164.1,187.9z"/>
					<path d="M338.9,230.2c0.7,1.4,0.2,1.8-1.2,2.3C338.2,231.5,338.5,231,338.9,230.2z"/>
					<path d="M-10.8,226.5c0.6-0.6,1-1,1.8-1.8C-9.2,226.1-9.4,226.7-10.8,226.5z"/>
					<path d="M339.2,138c-0.5,1.8-0.3,1.6-0.9,1.6c-0.5-1.4-0.5-0.9,0.2-1.8C338.8,137.8,339,137.9,339.2,138z"/>
					<path d="M-81.5,188.7c0.1,2.1-0.8,1.9-2.3,2.1C-82.8,189.9-82.3,189.5-81.5,188.7z"/>
					<path d="M-44.5,211.3c-0.3-1-0.4-1.5-0.6-2.2C-43.8,209.3-43.2,209.7-44.5,211.3z"/>
					<path d="M144.8,326.9c1.6,0.6,1.6,0.6,0.9,1.9C145.4,328.2,145.2,327.8,144.8,326.9z"/>
					<path d="M37,290.8c-0.5-1.5-0.5-1.5,1.7-1.5C36.7,290.9,36.9,290.7,37,290.8z"/>
					<path d="M-26.9,194.1c0.4,1.4-0.2,1.6-1.6,1.9C-27.7,194.2-28.1,194.7-26.9,194.1z"/>
					<path d="M146.6-105.4c-0.4,0.7-0.6,1.2-1,1.8C145.1-104.9,145.1-104.9,146.6-105.4z"/>
					<path d="M381.6,179c-1-0.7-1-0.3-0.1-1.8C382.4,177.8,382.3,177.4,381.6,179z"/>
					<path d="M248.1,281.2c0.8-0.6,1.3-0.9,1.8-1.2C250.2,279.9,251.2,282.2,248.1,281.2z"/>
					<path d="M-52.7,73.9c0.8-0.7,1.3-1.1,1.9-1.6C-50.6,73.6-50.9,74.1-52.7,73.9z"/>
					<path d="M152.7,288.2c-0.3,0.5-0.6,1-1,1.5C151.2,288.5,151.2,288.5,152.7,288.2z"/>
					<path d="M339.7,162.5c-1.2,1.2-0.9,1.2-1.4,0.2C339.7,162,339.3,162,339.7,162.5z"/>
					<path d="M9.7,168.1c-1.2-0.9-1-0.7-1-1.2C10.4,167,10.2,166.7,9.7,168.1L9.7,168.1z"/>
					<path d="M46.9,178.9c2.3,0.7,1.9,0.4,1.8,1.1C46.4,179.7,46.7,180,46.9,178.9z"/>
					<path d="M175.7,262.9c0.4-0.5,0.7-0.9,1-1.4C177.3,263,177.3,263,175.7,262.9z"/>
					<path d="M159.9,271.6c1-0.2,1.6-0.4,2.7-0.6C161.8,272.4,161.2,272.8,159.9,271.6z"/>
					<path d="M-5.9,218.5c-2-0.3-1.7,0-1.7-0.8C-5.6,217.5-5.9,217.3-5.9,218.5z"/>
					<path d="M60.1,214.6c-1,1.8-0.7,1.6-1.5,1.1C59.6,214,59.3,214.2,60.1,214.6z"/>
					<path d="M309.4,215.5c-0.5,1.6-1.1,0.8-2.3,0.3C308.2,215.6,308.8,215.5,309.4,215.5z"/>
					<path d="M90.8,397.9c-1.4,1-1.1,0.9-1.4,0.6C90.6,397.1,90.3,397.2,90.8,397.9z"/>
					<path d="M117.7,364.1c-1.5,1.2-1.2,1.1-1.6,0.8c0.5-1.3,0.3-0.9,1.3-1.3C117.5,363.8,117.6,363.9,117.7,364.1z"/>
					<path d="M-47.5,248.4c0.5,0,1,0,1.6,0.1C-46.6,250.1-47,248.6-47.5,248.4z"/>
					<path d="M359.9,193.8c1.8-0.9,1.4-0.9,1.8-0.4c-1.1,1-0.7,0.7-1.7,0.8C360,194.1,360,194,359.9,193.8z"/>
					<path d="M78.1,297.3c-1.5-0.8-1.3-0.5-1.1-1.1C78.6,296.8,78.4,296.6,78.1,297.3z"/>
					<path d="M186.8,299.2c-1.3,1.6-0.9,1.4-1.9,0.8C185.6,298.8,185.2,299.1,186.8,299.2z"/>
					<path d="M-28.2,231.8c0,0,0.4-0.1,0.5-0.1c0.2,0.5,0.4,1,0.6,1.4C-28.1,233.4-28,233.7-28.2,231.8z"/>
					<path d="M347.8,169c-0.8,0.7-1.3,0.7-1.6-0.1c-0.1-0.2,0.1-0.5,0.1-0.7C346.8,168.4,347.3,168.7,347.8,169z"/>
					<path d="M282.9,204.7c-0.8,1.4-0.3,1.2-1.6,1.1C281.8,204.6,281.4,204.9,282.9,204.7z"/>
					<path d="M147.1,294.7c-2,1-1.6,1-1.9,0.4C147.2,294.2,146.8,294.2,147.1,294.7z"/>
					<path d="M164.7,208.2c-1.6,1.1-1.2,1-1.6,0.6C164.4,207.3,164,207.4,164.7,208.2z"/>
					<path d="M341.1,213.9c1,1.5,1,1.5,0.6,2.6C341.2,216.4,341.3,216.8,341.1,213.9z"/>
					<path d="M218.3,243.4c-1.1,1.6-0.7,1.3-1.5,1.1C217.2,243.3,216.9,243.6,218.3,243.4z"/>
					<path d="M368.7,195.4c2-0.1,1.6-0.2,1.7,0.6C368.4,196.2,368.7,196.4,368.7,195.4z"/>
					<path d="M144.8,290.2c1,0.1,1.5,0.2,2.2,0.3C146.2,291.5,145.7,291.5,144.8,290.2z"/>
					<path d="M353.3,146.8c-0.3,1.2-0.8,1.3-1.9,0.9C351.7,146.7,352.3,146.6,353.3,146.8z"/>
					<path d="M350.6,149.5c-1.2-0.5-0.9-0.3-0.7-1.1C351.2,148.7,351,148.4,350.6,149.5z"/>
					<path d="M26.8,358.5c-0.5,1.4-0.1,1.2-1.4,1.2C25.6,358.5,25.3,358.8,26.8,358.5z"/>
					<path d="M369.5,154.8c-0.3-1.4,0.5-1.5,1.1-1.7C371.1,153.7,371.2,153.3,369.5,154.8z"/>
					<path d="M12.6,323.7c1.6,0.4,1.3,0.1,1.2,1.3C12.9,324.8,13.2,325.1,12.6,323.7z"/>
					<path d="M235.4,196.3c0,0.6,0,0.9-0.1,1.1c-0.3-0.1-0.6-0.1-0.8-0.3c-0.1-0.1,0-0.5,0.1-0.7
						C234.8,196.3,235.1,196.3,235.4,196.3z"/>
					<path d="M171.8,237.2c0.6,0.2,1,0.3,1.3,0.4c0.1,0,0,0.6-0.1,0.6C171.6,238.7,171.9,238.3,171.8,237.2z"/>
					<path d="M372.9,181.7c-1,1.1-0.6,1.1-1.8,0.6C371.8,181.3,371.3,181.4,372.9,181.7z"/>
					<path d="M188.8,320.1c0.5-0.7,0.1-0.8,1.6,0.1C190,320.9,190.4,320.9,188.8,320.1z"/>
					<path d="M-60.1,226.2c-1.3,1.4-1,1.3-1.5,0.8C-60.5,225.3-60.9,225.5-60.1,226.2z"/>
					<path d="M40.1,152.6c-1.1-0.3-1,0-0.8-1.2C39.9,151.5,39.7,151.1,40.1,152.6z"/>
					<path d="M199.3,316.7c-0.1-0.6-0.3-1.2-0.5-2.1C200.4,315.2,199.9,315.9,199.3,316.7z"/>
					<path d="M38.2,150.4c1.2-1.5,0.9-1.4,1.5-0.9C38.4,151,38.7,150.9,38.2,150.4z"/>
					<path d="M3.9,164c1.3-1.3,1-1.2,1.5-0.7C3.9,164.5,4.2,164.4,3.9,164z"/>
					<path d="M198.3,124c0.3,0,0.6,0.1,0.8,0.1c-0.1,0.3-0.2,0.6-0.3,0.8c-0.1,0.1-0.6,0-0.6-0.2C198.1,124.6,198.3,124.3,198.3,124
						z"/>
					<path d="M58.6,213.1c-1.5,0.4-1.2,0.4-1.4-0.2C58.7,212.5,58.5,212.5,58.6,213.1z"/>
					<path d="M60.9,206.3c0.5-0.9,0.6-1.2,0.8-1.4c0.1-0.1,0.6,0.2,0.6,0.3C62.2,206.2,61.6,206.1,60.9,206.3z"/>
					<path d="M-26.3,32c-0.3,0.4-0.5,0.7-0.7,0.9c-0.1,0.1-0.5-0.2-0.5-0.3C-27.5,31.6-26.8,31.9-26.3,32z"/>
					<path d="M-26.6,19.7c0.4-0.2,0.9-0.5,1.5-0.9c0.2,1.4-0.6,1.3-1.3,1.4C-26.7,20.3-26.6,20-26.6,19.7z"/>
					<path d="M-36.1,18c0.4,0.8,0.8,1-0.2,1.6C-36.6,17.9-36.7,18.2-36.1,18z"/>
					<path d="M376.4,186.4c0,0.6,0.3,0.4-1.2,0.8C375.1,186.2,374.8,186.4,376.4,186.4z"/>
					<path d="M-36.7,14.5c0.9-1,0.6-0.9,1.2-0.3C-36.6,15-36.3,14.9-36.7,14.5z"/>
					<path d="M-29.1,255.4c0.5,0.2,0.8,0.3,1.1,0.4c-0.1,0.3-0.2,0.6-0.5,0.8c-0.1,0.1-0.6,0-0.7-0.1
						C-29.2,256.3-29.1,255.9-29.1,255.4z"/>
					<path d="M361.3,177.9c0.1-1.5,0-1.3,0.5-1.3C361.9,178.1,362,177.9,361.3,177.9z"/>
					<path d="M118,339c1.4,0,1.2-0.2,1.2,0.4C117.8,339.7,118,339.8,118,339z"/>
					<path d="M160.8,351.4c-0.7,1.3-0.3,1.2-1.5,0.8C159.6,351.3,159.3,351.5,160.8,351.4z"/>
					<path d="M215.4,293.1c-0.9-0.3-0.8,0.1-0.6-1.1C215.6,292.3,215.5,292,215.4,293.1z"/>
					<path d="M109.5,242.9c-0.9,0.7-0.6,0.6-1.3,0.1C108.9,242.3,108.6,242.4,109.5,242.9z"/>
					<path d="M315.2,201.9c-0.4,0.1-0.7,0.3-1.1,0.4c0-0.2-0.2-0.5-0.1-0.5C315.2,201.3,315,201.5,315.2,201.9z"/>
					<path d="M284.5,218.2c1,0.4,0.9,0.1,0.6,1.2C284.3,219.3,284.5,219.6,284.5,218.2z"/>
					<path d="M140.2,249.5c0.2,1.3,0.3,1.1-0.3,1.1C139.8,249.4,139.7,249.6,140.2,249.5z"/>
					<path d="M252.5,171.3c0.7,0.4,1.3,0.4,0.6,1.5c-0.1,0.1-0.6,0-0.7,0C252.5,172.4,252.5,172.1,252.5,171.3z"/>
					<path d="M61.7,363.4c-0.6-1.4-0.6-1.2,0-1.4C62.1,363.5,62.2,363.2,61.7,363.4z"/>
					<path d="M352.7,154.9c-0.1,1.4,0.1,1.1-0.8,1.2C352,154.6,351.8,154.9,352.7,154.9z"/>
					<path d="M40.7,276.8c-0.6,1-0.3,0.8-1.3,0.7C39.5,276.7,39.1,276.9,40.7,276.8z"/>
					<path d="M83.1,190c-0.3,1-0.1,0.7-0.9,0.7C82.7,189.8,82.4,190,83.1,190z"/>
					<path d="M106,201.3c0.5,0.3,0.5,0,0.3,0.9C105.6,201.9,105.6,202.1,106,201.3z"/>
					<path d="M-54.7,227.6c1.4-0.9,2-0.5,2.5,0.1C-52.3,228.2-51.9,228.1-54.7,227.6z"/>
					<path d="M123.5,364.1c1,0.4,0.8,0.1,0.7,1C123.2,364.9,123.5,365.1,123.5,364.1z"/>
					<path d="M-16.6,270.5c-0.8,0.9-0.4,0.9-1.6,0.3C-17.7,270.1-18.1,270.2-16.6,270.5z"/>
					<path d="M146.7-87.9c1.4,0.8,1.3,0.5,1,1.1C146.2-87.5,146.4-87.3,146.7-87.9z"/>
					<path d="M120.8,196.4c0,0-0.4-0.1-0.4-0.1c0-0.4,0-0.9,0-1.3C121.2,195.1,121.2,194.8,120.8,196.4z"/>
					<path d="M76.3,380.4c-0.3,1,0,0.8-1,0.8C75.5,380.2,75.3,380.5,76.3,380.4z"/>
					<path d="M47.5,268.2c-1.4,0.7-1.1,0.8-1.4,0C47.6,267.7,47.3,267.6,47.5,268.2z"/>
					<path d="M157.8,348.3c-0.8,1.1-0.5,1-1.1,0.4C157.7,347.9,157.4,348,157.8,348.3z"/>
					<path d="M0.9,237.9c0,0.7,0.2,0.6-0.7,0.6C0.2,237.9,0,238.1,0.9,237.9z"/>
					<path d="M185.2,225.4c-0.7,0-0.5,0.2-0.7-0.7C185,224.7,184.9,224.5,185.2,225.4z"/>
					<path d="M190.3,212.5c1.2,0.9,0.9,0.6,0.9,1.4C190.1,213.9,189.7,214.2,190.3,212.5z"/>
					<path d="M175.4,328.2c-0.5,1.2-0.1,1-1.2,0.9C174.5,327.8,174.3,328.1,175.4,328.2z"/>
					<path d="M1.6,170c0.4,0,0.8-0.1,1.3-0.1c0,0,0.1,0.4,0.1,0.4C1.5,170.9,1.7,170.8,1.6,170z"/>
					<path d="M323.1,133.8c0.3-0.8,0-0.7,1.1-0.6C324,134.3,324.2,134.2,323.1,133.8z"/>
					<path d="M-36.9,149.7c1.6-0.1,1.4-0.3,1.4,0.4C-37.2,150.2-36.9,150.3-36.9,149.7z"/>
					<path d="M86.8,198.5c-0.5,0-0.9,0-0.9,0c-0.1-0.3-0.1-0.7,0-1c0-0.1,0.6-0.1,0.7,0C86.7,197.7,86.7,198,86.8,198.5z"/>
					<path d="M195.7,227.4c1.4,0.2,1.1,0,1.1,0.9C195.3,227.9,195.5,228.1,195.7,227.4z"/>
					<path d="M139,335.4c-0.3-0.3-0.6-0.6-0.9-1c0.1-0.1,0.4-0.3,0.4-0.3C139.7,335.2,139.5,335.1,139,335.4z"/>
					<path d="M184.9,237c-0.9,1.4-0.7,1.2-1.2,0.9C184.6,236.5,184.4,236.6,184.9,237z"/>
					<path d="M202.5,229.9c1.1,0.3,0.8,0.1,0.8,0.9C202.2,230.7,202.4,230.9,202.5,229.9z"/>
					<path d="M5.8,152.6c0.7,0.5,0.8,0.2-0.2,1.5C4.9,153.6,4.9,154,5.8,152.6z"/>
					<path d="M37.1,130.8c1.5-0.1,1.2-0.2,1.3,0.4C37,131.4,37.2,131.5,37.1,130.8z"/>
					<path d="M351.4,139.2c-1.1-1.1-1.1-0.8-0.6-1.3C351.9,139,351.8,138.7,351.4,139.2z"/>
					<path d="M-25.6,267.6c-0.1,1.1,0.2,0.9-1,1.1C-26.6,268-26.9,268.2-25.6,267.6z"/>
					<path d="M51.7,288.8c1.5-2.1,1.1-1.9,1.8-1.4C51.8,289.1,52.1,288.9,51.7,288.8z"/>
					<path d="M328.3,162.6c0.3,1.3,0.4,1.1-0.4,1.2C327.9,162.4,327.7,162.7,328.3,162.6z"/>
					<path d="M9.6,168.1c1.1,1.3,1.4,1-1,1.2C8.4,168.8,8.3,169.1,9.6,168.1C9.7,168.1,9.6,168.1,9.6,168.1z"/>
					<path d="M377.4,204.1c-0.2,1.7,0.1,1.4-1.1,1.2C376.4,203.6,376.1,203.8,377.4,204.1z"/>
					<path d="M181.3,267.5c1.3,0.5,1.1,0.2,0.7,1.2C180.8,268.2,181,268.5,181.3,267.5z"/>
					<path d="M20.8,234.9c-0.1,1.4,0.1,1.2-0.4,1.2C20.2,234.7,20.1,235,20.8,234.9z"/>
					<path d="M9.2,149.7c1,0.3,0.8,0,0.8,0.9C9,150.5,9.3,150.7,9.2,149.7z"/>
				</g>
				<g>
					
						<rect x="-109.5" y="-49" transform="matrix(0.8301 -0.5576 0.5576 0.8301 -36.4295 72.8072)" class="st1" width="421.5" height="290.4"/>
					<path d="M97.3,265.2c-1.4-0.1-2.4-0.6-2.7-2.4c1.4,0.3,2.6,0.5,3.1,2.1C97.6,265,97.5,265.1,97.3,265.2z"/>
					<path d="M275.6,143.8c1.6-1.5,1.6-1.5,3.1-0.4C277,144.5,277.7,144.4,275.6,143.8z"/>
					<path d="M293.7,131.1c1.3-0.6,1.7-0.1,2.1,0.7C295.2,132.3,295.5,132.3,293.7,131.1z"/>
					<path d="M225.1-4.1c2.1-0.5,2.3,1.2,3.2,1.7c1.5,0.8,1.4,1.9,1.6,3.1c0.8,0.1,1.4,0.2,2.2,0.4c1-2.1,1.7-4.5,4.3-5.2
						c-0.3-1.2-0.5-2.1-0.7-3c0.9-0.8,1.7-1.5,2.7-2.4c0.8,3.1-0.1,3.7,2.6,3.5c1.5-0.1,1.8,0.8,1.9,2.2c-1.2,0.4-2.4,0.8-3.6,1.2
						c-1.5,1.9,0.4,3.8,0.1,5.9c-1.2-0.1-2.4-0.7-3.4,0.5c-0.3,0.4-1.4,0.5-1.7,0.3c-2.3-2.2-3,1.6-6.3,0.3
						c-1.1-0.5-2.6-0.2-4.1-0.2c-0.7-0.9-0.2-2,0.5-2.8c0.8-0.9,0.7-1.7,0.5-2.8C224.8-2.3,225-3.2,225.1-4.1z M238-2
						c-1,0.2-1.7,0.2-2,0.5c-0.8,1.1-0.3,1.9,0.6,2.9C237,0.3,237.3-0.5,238-2z"/>
					<path d="M138,13c-0.3-0.4-0.5-0.8-0.8-1.1c-2.1,1.3-2.1,1.3-2,4.1c-0.9,0.8-1.8,1.5-2.9,2.4c-0.1-0.7-0.5-1.4-0.4-2.1
						c0.5-3.3-0.1-4.2-3.2-4.4c5.2-6.4,10.4,0.1,6.5-3.6c0.6-0.4,1.1-0.8,1.7-1.3c1,1.1,1.9,2.1,2.8,3.1c1.8-2.1,3-2.2,5.8-0.5
						c-0.9,2.9-1,6.2-4.2,8c-0.6,0.4-1.2,1-2.1,0c0.9-0.6,0.9-2.1,2.6-1.8c0.2,0,0.8-0.8,0.8-1.2c0-0.3-0.7-0.8-1.1-0.8
						c-0.6,0-1.2,0.4-3.9,1.9C136.7,14.3,137.2,13.6,138,13c0.5,0,1,0.1,1.7,0.2c-0.1-0.8-0.2-1.4-0.3-2.4
						C138.7,11.8,138.4,12.4,138,13z"/>
					<path d="M213.4,45.2c-0.2-0.5-0.4-0.9-0.8-1.6c1.2-0.3,2.3-0.5,3.6-0.8c0,1.8,0.1,3.3,0.1,4.9c2.1,0.5,2.4,2.3,2.8,4.4
						c-1.8-1-1.1-1.2-2.9,1.5c-1.8,2.7-5.1,1-4.7-0.7c1-4.4,2.3-4.5,0.7-5.8C211,46.1,212.9,45.8,213.4,45.2z"/>
					<path d="M11.1,145.7c-1.4,2.6-3,4.9-6.8,4.3c-0.2-0.8-0.5-1.7-0.8-2.8c1.4-0.2,2.6-0.2,3.2-1.6c0.3-0.6,1.5-0.8,2.4-1.2
						c0.3-1.8-1.6-1.3-2.4-2.2c-0.4-1.5-0.7-3.1-1.3-5.3c2.2,1.5,3.2,3.4,5,4.3c1.8,0.9,3.4,2.1,5,3.1C14,146.1,14,146.1,11.1,145.7
						z"/>
					<path d="M26.8,123.2c-0.5,1.2-1.7,2.4-0.1,3.6c-1,1.2-2,2.1-3.5,2.2c0.4-3.4,0.8-4.2-1.1-4c0.5,1.3-1.3,3,1.1,3.9
						c1.1,1.8-0.9,2.3-1.3,3.4c-1.4,0.1-2.5,0.2-3.9,0.3c0.5-1.7,1-3.2,0.3-5c-0.3-0.9,0.5-2.2,0.9-3.6c1.9,0.9,3.6-1.5,5.6,0.3
						c0.2-0.7,0.4-0.5-1.2-1.6c-1.1-0.8-1.1-0.8,0.1-2.3c0.9,0.3,1,2.1,2.5,1.7C26.3,122.1,26.8,123.4,26.8,123.2z"/>
					<path d="M-75.8,148c0.8-4.5,3.6,0.8,4.7-2.6c-0.8-0.4-1.5-0.7-2.3-1.1c0.4-0.5,0.8-1,1.2-1.5c2.7,0.9,5.5,1.3,7.8,3.2
						c1.1,0.9,1.2,0.8,1.2,2.8C-67.6,151.1-71.5,148.7-75.8,148z"/>
					<path d="M213.2-19.9c-0.2-1.3-0.3-2-0.5-2.9c0.5-0.2,1-0.4,1.6-0.7c0.5,2-0.2,3.5-1.2,4.9c2-0.7,3.6-1.8,3.9-4.1
						c1.4,2.3-1.1,3.6-1.2,5.7c1.7,0.1,1.7-1.5,2.4-2.2c1,0.9,1,0.9,0,3.5c-1.6,0.6-3.1,0.4-4.1-0.9c-1.4,0.7-2.7,1.3-4.2,2
						c-0.3-0.8-0.5-1.4-0.7-2c-1.1-0.4-2.4,1.1-3.5-0.3c-0.7-1-2.3-1.4-2-3.2c1.6,0.6,3.2,1.6,4.8,1.6
						C210-18.4,211.6-19.3,213.2-19.9z"/>
					<path d="M297.6,44c0.2-1.7,0.9-3,2.1-4c-1.4-1.6,1.9-2.1,0.6-3.6c1.7,0.1,3.1,0.3,4.6,0.4c-0.1,1.9-3.8,1.7-2.8,4.5
						c0.8,0,1.6,0,2.3,0c0.5,1.5,1,3,1.7,4.8C302.9,46.2,300.1,46.1,297.6,44z"/>
					<path d="M267.2-10c-0.8-0.1-1.1-0.2-1.6-0.3c0.5-1.1,0.6-2.3-0.7-3.2c3.2-0.4,3.6-0.1,3.9,2.6c1.6-1.6,0.8-1,2.9-2.1
						c-0.4,0.9-0.6,1.3-0.8,1.8c2.9,2.5-0.5,4-0.3,5c0.3,2-2.3,1.6-2.5,3.2c-6.7-0.9-2.6,0.4,0-3.8c-0.8-0.3-1.6-0.6-2.5-1
						C266-8.4,266.5-9,267.2-10z"/>
					<path d="M121.8,5.5c-2.5-0.6-1.8-2.9-3.1-3.9c0.4-1.1,0.8-2.1,1.2-3.1c-2-1.9-2-1.9,0.7-5.2c1,0.5,2,2.2,3.6,6.3
						C123.5,1.5,122.6,3.5,121.8,5.5z"/>
					<path d="M161.3-79.7c-0.8-0.3-1.5-0.9-2.3-1c-2-0.1-3.5-0.8-4.9-2.2c-0.5-0.5-1.3-0.6-1.9-1.1c-0.3-0.2-0.5-0.7-0.8-1.2
						c3-1.1,8.1,0.1,8.9,2.7c0.5,1.6,4.3,2.8,3.1,5.2c-0.9,1.6-2.3,2.2-4.3,1.7C159.8-76.8,160.4-78,161.3-79.7z"/>
					<path d="M230.8-5.8c-1.7-0.8-5,0-1.9-3.9c0.7-0.9,1.2-2.1,2.7-2.4c1-0.2,1.8-1.4,2.7-2.2c1.2,0.7,1.7,1.5,1.1,2.9
						c-0.5,1.3-0.7,2.7-1.1,4.3C230.4-5.6,230.7-5.8,230.8-5.8z"/>
					<path d="M292.6,42.5c1.6-3.3,1.2-6.6,1-9.8c2.4-0.5,3.9,0.6,3,2.5c-1.7,4.1,1.4,8.5-0.8,9.3c-1.1,0.4-1.7-0.1-2.1-1.1
						C293.7,43,293.1,42.8,292.6,42.5z"/>
					<path d="M7.8,133.7c3.9-1.6,5.6,0.1,4.9,5.3c-1.3,0.1-2.8,1.2-4-0.2C6.7,136.5,7.7,134.4,7.8,133.7z"/>
					<path d="M118.9-45.4c0.4,2.8-1.9,3.8-2,4.2c-0.6,2.5-2.7,2.3-4.7,2.8c-0.2-1.3-0.4-2.5-0.6-3.7c1.1,0,2.4,0.3,3.4-0.1
						c0.9-0.4,1.5-1.5,2.1-2.3c-0.5-1-0.9-1.8-1.3-2.7c1.1-0.4,1.8-0.8,2.6-1.1c0,0.1-0.3-0.7,0.8,2.3
						C119.1-45.8,119-45.6,118.9-45.4z"/>
					<path d="M203.2-130.1c0,0-0.1,0-0.1,0c0.8,0-3.9,2.9-3.9,2.9c-0.6-1-0.9-1.6-1.3-2.3c-1.8,1.8,0.6,3.5-0.1,5.2
						c0,0.1,1.4,0.8,2.2,1.3c0.8-0.5,1.6-1,2.6-1.6c-1-1.9,0.4-2.9,1.5-4.1L203.2-130.1z"/>
					<path d="M143.9-46.8c-2.6-3.5,2.3-2.3,1.5-5.6c-6.1,1.8-4.7,1.8-6.6,0.2c0.6-1.5,1.3-0.3,1.9-0.1c0.4-0.5,0.8-1,1.1-1.4
						c1.5,0.2,3.2,0,4.2,0.8c0.8,0.7,1.3,2.5,1.1,3.6C146.5-47.2,150.8-48,143.9-46.8z"/>
					<path d="M131.6-1.6c-1.7-3-5.1,1.4-5.8-1.6c-0.6-2.5,4.4-3.1,9.3,0l0-0.1C134.7-1.3,132.7-2.4,131.6-1.6L131.6-1.6z"/>
					<path d="M178.6,146.1c-1.5,0.1-3.2-0.5-3.9,2.2c-0.5-1.3-1-1.9-0.9-2.3c0.5-1.6,0.9-3.2,0.3-4.9c1.9,0,3.5,0,5.5,0
						C177.8,144,178.1,142.7,178.6,146.1z"/>
					<path d="M162.8,129.4c-0.3-1-0.6-2-0.9-3c1.7-0.4,3.3-0.5,4.7-1.1c1.3-0.6,2.5-1.5,4.3-0.7c-0.7,0.9-1.3,1.7-2,2.5
						c-1.1-1.5-0.6-1.4-2.7-0.1c0.2,0.9,0.3,1.7,0.5,2.9C165.2,129.6,164.2,129.5,162.8,129.4z"/>
					<path d="M124.6-90.3c1.1-1.7,3.1-2.6,4-4.7c2.8,3.6,0.9,4.2-1.1,5.2c1.1,2.5,1.2,1.7-0.7,3.8C126.1-87.4,125.4-88.8,124.6-90.3
						z"/>
					<path d="M-6.3,36.8c2.1-0.6,3.5-3.6,6.4-1.6c-0.6,1.4-0.3,3.3-2,3.9C-3.9,39.8-5.1,38.5-6.3,36.8z"/>
					<path d="M201.3,44.2c-0.1,1.7-1.4,1.9-2.6,2.3c-1.8-0.8-1.5-2.3-1.5-3.5c-2.2-1.9-1.9-1.4-1.5-2.3
						C200.5,41.5,199.3,40.6,201.3,44.2L201.3,44.2z"/>
					<path d="M139.8,30.1c-2.3-2.2-1.8-1.3-1.7-4.3c-0.7-0.2-0.4-0.4-1.8,1.7c-3.1-2.3-1.7-5.4-0.5-3.9c1,1.3-1.1,2,3-0.4
						C139.5,25.4,140.8,27.4,139.8,30.1z"/>
					<path d="M134.3-65.2c0.8-0.7,1.4-1.4,2.2-1.8c3.5-1.7,4.1,2.7,1.6,3.9C136.7-62.5,135.8-63,134.3-65.2z"/>
					<path d="M142.7,0.3c0-0.1-0.8,0.3-1.4,0.5c0-1.2,0.1-2.4,0.1-4c2.4,0.9,4.7,1.8,7,2.6c0.2,1.7-1.4,0.9-2.1,1.4
						C144.2,0.6,143.5,1.7,142.7,0.3z"/>
					<path d="M242.8,60.2c0,1.1,0.1,1.7-0.1,2.2c-0.4,1.1-1.6,2.1-0.6,3.6c0.1,0.1-0.4,0.9-0.7,0.9c-0.3,0.1-1-0.3-1.1-0.5
						c-0.8-3,1.1-2-2.6-3.2C237.6,62.3,236.9,62.9,242.8,60.2z"/>
					<path d="M224.2-7.2c-5.4,4.1-3.5,3.5-8.4,3.1c1.6-3.3,0.2-1.3,4.8-2.6C224.3-7.8,223.2-9,224.2-7.2z"/>
					<path d="M220.9-31c-0.7-5-1-2.9,2.1-4.5c0.7-0.4,1.3-1,2.1-1.6c0.2,2.5,0.6,3.9-1.3,4.2C222.8-32.7,222-31.8,220.9-31z"/>
					<path d="M216.3-23.4c-2.5-1.6-2.2-0.9-1.3-3c0.7-1.6,0.7-1.5,2.5-0.9c0.9,0.3,1.8,0.1,2.9,0.2c-0.9,2.9-3.1,1.5-4.9,1.9
						C216.7-23.4,216.6-23.7,216.3-23.4z"/>
					<path d="M171.2,0.1c-1.2-0.7-2.7,1.2-3.5-0.8c1.2-0.5,2.4-1,3.5-1.4c2.8-1,5.1,4.6-1.1,3.5C170.5,1,170.8,0.6,171.2,0.1z"/>
					<path d="M15.2,122.9c1.5-0.2,2.6-0.3,2.8,1.1c0.4,2.1-0.5,3.3-3.3,4.5C14.8,126.6,15,124.8,15.2,122.9z"/>
					<path d="M121.9-30.2c-2.1-2.7-3.6-2.3-2.3-6.5c0.3-0.9,1-1.3,1.7-0.8c0.5,0.3,0.9,1.6,0.8,1.8c-1.7,1.5-0.3,2.8,0,4.2
						C122.2-31.2,122-31,121.9-30.2z"/>
					<path d="M201.3,44.3c0.6-0.5,1.2-0.9,2-1.5c3.7,2.7,2.7,1.8,3.1,3.5c-1.9,0-1.3,0-2.2-0.3c-0.5,0.8-0.4,2.2-1.7,1.8
						C201.2,43.8,201.3,44.2,201.3,44.3z"/>
					<path d="M-34.5,238.9c1.4,1.7,2.7,3.3,1.3,5.4C-36.3,243.1-36.7,241.3-34.5,238.9z"/>
					<path d="M-26.3,137.6c-0.7-4.5-0.7-4.5-3.2-6.3c1-0.3,1.7-0.4,2.5-0.7c0.1-0.6,0.2-1.4,0.3-2.6c0.8,1.6,1.5,2.5,0.9,4
						C-26.3,133.3-23.9,136.1-26.3,137.6z"/>
					<path d="M112.1-73.5c-1.2-0.1-2.3-0.3-3.4-0.4c-0.1-1.7-0.2-3.2-0.4-5c0.6,0.2,1.5,0.4,1.5,0.6
						C110.1-76.5,112.1-75.8,112.1-73.5z"/>
					<path d="M5.8-0.6C5.7-3.3,5.3-4.5,6.5-5.2c0.3-0.2,1.6,0.4,2,1.5c0.3,1,0.5,2,0.8,3.3C7.3-1.2,8.1-1.2,5.8-0.6z"/>
					<path d="M18.3,90c1.8,0.5,3.8-0.7,5.6,0.9c-0.2,0.4-0.4,1-0.6,1.1C20.4,92.8,17.4,93.3,18.3,90z"/>
					<path d="M221.8-29.7c0.5-0.1,4-1.3,4.3,1.8c0.1,1.1-1.1,2-1.8,1.5c-1-0.7-1.8-1.6-2.7-2.4C221.6-29.1,221.7-29.4,221.8-29.7z"
						/>
					<path d="M133.6,151.1c-0.8-0.6-1.5-1.2-2.2-1.8c0.6-2,1.9-0.8,2.9-0.9c-0.5-1.8,1-2.2,2.2-3
						C136.8,148.2,134.8,149.3,133.6,151.1z"/>
					<path d="M148.5-86.7c0.8,0.7,1.5,1.4,2.4,2.3c-1.4,1-2.5,1.7-3.7,2.5C146.2-83.8,146.7-85.2,148.5-86.7z"/>
					<path d="M226.1,161.5c0.4-1.3,0.8-2.7,1.2-4.1c1.5,0.4,2.7,1.1,2.9,2.7C229.4,162.3,227.3,160.4,226.1,161.5z"/>
					<path d="M271.2,144.8c0,2-0.9,2.8-3.8,3.3C267.4,144.9,267.3,144.7,271.2,144.8z"/>
					<path d="M155.8,155.5c0.5,1.6-1.5,1.9-1.6,3.2c-2.2-0.4-2.1-2.1-2.7-3.7C156.3,155.4,155.8,155.3,155.8,155.5z"/>
					<path d="M232.8-77.2c-0.1,0.6-0.2,1.4-0.3,2c-1.8,0.6-3.5,1.1-5.4,1.7C226.5-75.8,231.5-76.8,232.8-77.2z"/>
					<path d="M188.5,151.5c1.1-0.7,1.8-1.2,2.7-1.8c0.9,0.8,1.7,1.5,2.8,2.5C191.8,153,190.2,153.2,188.5,151.5z"/>
					<path d="M202.5,187.4c0.9-1.3,1.6-2.5,2.6-3.9c0.6,0.6,1.1,0.9,1.4,1.5c1.1,1.9-0.7,2.1-3.1,2.7
						C203.3,187.7,203.2,187.6,202.5,187.4z"/>
					<path d="M230.9-23.9c0.4,0.9,0.8,1.6,1.2,2.5c-1.9,1.2-3.4,0.2-5,0C226.9-22.2,226.3-21.7,230.9-23.9z"/>
					<path d="M86.9,20c1.1,0.3,5.9,0.9,3.6,2.8c-0.7,0.6-1.5,1-2.1,1.4C88,22.9,87.5,21.7,86.9,20z"/>
					<path d="M169.6,81.1c-1.6,0.4-3,1.1-4.1-0.5c0.9-1.1,1.8-2.3,3.8-2C169.3,79.3,169.4,80.2,169.6,81.1z"/>
					<path d="M15.5,105.1c-2.8-1.5-3.5-2.5-3.2-3.6c0.3-1,1.2-1.1,3.5-0.4C15,102.2,13.9,103.3,15.5,105.1z"/>
					<path d="M283.7,21.7c-0.4-1.7-0.7-3.4-1.1-5.1c0.7-0.1,1.1-0.2,1.1-0.2c0.6,1.1,1.3,2.1,1.6,3.3
						C285.7,20.7,285.4,21.8,283.7,21.7z"/>
					<path d="M178.3,5.4c0.7-0.6,1.5-1.2,3-2.3c-1,2.4,1.2,2.8,1.5,4.4C179.4,7.7,180.4,8.1,178.3,5.4z"/>
					<path d="M172,21.5c-1.1,2.9-3.1,1.1-4.5,2.8C167.9,13.4,166.9,23.4,172,21.5z"/>
					<path d="M191.8-135.7c-0.6-2.5-0.1-2.9,4-2.7C196.7-136.7,195.8-136.9,191.8-135.7z"/>
					<path d="M274,13.7c1.1-1.4,2-2.6,3.1-3.9c1,0.7,1.3,1.8,0.6,2.9C276.9,14.2,275.5,14,274,13.7z"/>
					<path d="M157.8-50.6c-1,1-1.9,1.9-3.1,3c-0.7-1-1.5-2-2.4-3.2C154.4-50.7,156.1-50.6,157.8-50.6z"/>
					<path d="M-87.5,63.8c1.4-0.9,2.3-2.1,4.4-1c-0.4,0.8-0.7,1.9-1.3,2.2C-85.5,65.6-86.4,64.5-87.5,63.8z"/>
					<path d="M157.1,135.9c-3.4-0.4-4.7-2.1-3.9-4.9C154.5,132.6,155.7,134,157.1,135.9z"/>
					<path d="M44,226.4c4-1.4,5.2,1.2,4.6,2.1C47.9,229.6,46.7,228.4,44,226.4z"/>
					<path d="M52.3,11.5c-0.7-1.8-1.3-3.5-3-4.4C49,7,49.2,6,49.2,5.4c0.5,0.2,1.2,0.2,1.5,0.6c0.8,1,1.3,2.2,2,3.2
						C53.3,10.1,53.2,10.7,52.3,11.5z"/>
					<path d="M159,151.2c0.7,1,1.3,1.8,1.9,2.6c-2.2-0.5-3.2,1.9-5.1,1.7C155.8,155.6,155.4,155.9,159,151.2z"/>
					<path d="M50.6,102c0.3,2.2,0.6,3.8,0.8,5.5C48.5,106.3,48.1,104.8,50.6,102z"/>
					<path d="M191.2,37.1c0.4-0.4,0.8-0.9,1.2-1.3c2.3,2.2,2.4,2.4,1.8,4.9C192.3,38,193,38.9,191.2,37.1z"/>
					<path d="M240.9-13.9c0.6,0.2,1.3,0.7,1.6,0.5c1.9-1.2,2.7,0,3.4,1.4C243.4-10.9,243-11.1,240.9-13.9z"/>
					<path d="M125.1-77c-0.1-1.6-1.4-2.8-0.3-4.3C127.7-78.6,127.7-77.9,125.1-77z"/>
					<path d="M190.4-47.9c-1.4-1.5-1.5-2.6,0-3.6c1.1,0.6,2.3,1.3,3.4,2C193.1-47.5,190.9-50.3,190.4-47.9z"/>
					<path d="M127.6,138.6c2.2-1.2,2.9,1.7,3.9,4.4C129.6,144,129.6,143,127.6,138.6z"/>
					<path d="M232.4,10.6c-1,1.5-1.9,2.9-4.3,2.9c0.7-1.2,1.2-2.2,1.9-3.4C232.7,10.8,232.4,10.7,232.4,10.6z"/>
					<path d="M181.7,73.4c0,1.6,0.1,3,0.1,4.5c-1.7-0.5-2-1.1-2.1-2.9C179.7,73.9,179.7,73.9,181.7,73.4z"/>
					<path d="M118.9-45.4c0.4-1.1,0.8-1.9-0.7-2.9c0.1,0,0,0.1,0.6-1.1c1.3,0.9,2.3,1.6,3.8,2.6C121.1-46.3,120.4-45.1,118.9-45.4z"
						/>
					<path d="M228.1-38.7c0.7,0.4,1.3,0.7,2.2,1.2c-0.6,0.9-1.1,1.8-1.7,2.8C226.8-36.3,226.8-36.3,228.1-38.7z"/>
					<path d="M309,48.4c2.2,2.1,1.6,2.2-2,3.9C306.4,51.8,306.2,52.5,309,48.4z"/>
					<path d="M150.2,11.8c0.9,0.7,1.6,1.2,2.2,1.7c-0.4,2.7-0.4,2.7-2.2,2.6C150.2,14.8,150.2,13.5,150.2,11.8z"/>
					<path d="M185.8,80.1c-1.1-0.5-1.8-0.8-2.6-1.1c0.4-1.6,1-2.4,2.9-2.1C186,77.9,185.9,78.7,185.8,80.1z"/>
					<path d="M132.4-85c-0.6,2.6-2.2,2.8-4,3C129.3-83.3,130-84.9,132.4-85z"/>
					<path d="M192-133.5c0.5-0.6,1-1.2,1.6-2c0.9,0.7,1.5,1.3,2.5,2.1C191.4-132.3,192.2-132.1,192-133.5z"/>
					<path d="M86.4,228c2.2,2.5,2.1,2.8-0.7,4.5c0.1-0.9,0.5-1.7,0.3-2.2C85.4,229.4,85.8,228.8,86.4,228z"/>
					<path d="M2.6,145.7c-1.3-2.5,2.5-4.3,3-0.9C4.6,145.1,3.6,145.4,2.6,145.7z"/>
					<path d="M137.5,20.5c2.3-0.6,2.3-0.6,3.4,1.3C138.9,22.5,138.9,22.5,137.5,20.5z"/>
					<path d="M156.2,139.1c2.3,0.3,3.5-2.4,5.9-0.2c-1.5,0.1-2.7-0.2-3.4,1.3C158.4,140.9,157.3,140.4,156.2,139.1z"/>
					<path d="M201.2,38.2c1.2-0.5,1.9-2.6,4.3-1.4C203.9,37.9,203,39.3,201.2,38.2z"/>
					<path d="M180.3-47.7c0.5,1.1,0.7,1.6,1,2.4c-2.9,0.5-2,0.5-3.2-0.5C178.8-46.4,179.4-46.9,180.3-47.7z"/>
					<path d="M2.3,133.8c-1.9-2.4-1.6-3.3,0.9-4.7C3.1,129,3.2,128.5,2.3,133.8z"/>
					<path d="M183.7,177.4c1.3-1.8,2.6-1.3,4.1,1.1C187.4,179.3,188.1,179.3,183.7,177.4z"/>
					<path d="M196.1-122.3c-2.9-2-2.6-1.3-2-3.4C196.1-125.3,196.8-124.3,196.1-122.3z"/>
					<path d="M243.4,0.6c-0.3-1.3-0.5-2.3-0.8-3.5C245.1-2.3,245.3-1.6,243.4,0.6z"/>
					<path d="M151.9,8.5c-0.3,1.2,0.5,0.5-3,2.6c-0.1-0.1-0.2-0.1-0.3-0.2c-0.4-1.8-0.1-2.6,1.3-3.2c0-0.1,0-0.4,0.2,1.5
						C151.1,8.1,150.6,8.2,151.9,8.5z"/>
					<path d="M120.1-9.9c-0.5,0.6-0.9,1.1-1.3,1.7c-1.5-0.9-1.5-0.9-1.6-2.8C118.1-10.7,118.9-10.4,120.1-9.9z"/>
					<path d="M148.8,167.1c-1.7-1.7,0.3-2.5,0.7-3.6C150.3,164.8,150.7,166,148.8,167.1z"/>
					<path d="M192.1-125.5c-1.3,0.3-1.9,0.4-2.8,0.5c-0.3-1.7-0.6-1,0.8-2.5C190.7-127,191.2-126.4,192.1-125.5z"/>
					<path d="M176.2-4.1c1-0.2,1.7-0.4,2.5-0.7c0.4,1.6-0.6,2.1-1.6,2.9C176.8-2.7,176.6-3.3,176.2-4.1z"/>
					<path d="M-12.8,298.9c0.1-1,0.1-1.7,0.2-2.7c0.7,0.1,1.3,0.1,1.9,0.2C-10.2,298.3-11.1,298.8-12.8,298.9z"/>
					<path d="M118.3-70.5c1.6-0.1,2.6,0.3,3,1.8C119.5-67.9,119.5-67.9,118.3-70.5z"/>
					<path d="M219.7-46.9c-0.6-0.9-1.1-1.7-1.7-2.5c1.1-0.7,2-0.4,2.6,0.5C221-48.4,220.9-48.3,219.7-46.9z"/>
					<path d="M242.2,12.5c-1-0.1-1.8-0.1-2.7-0.2C239.7,10,243.3,9.9,242.2,12.5z"/>
					<path d="M138.7,140.4c0-0.8-0.1-1.6,0.1-2.3c0.1-0.3,0.8-0.8,1.1-0.7c0.4,0.1,0.9,0.9,0.8,1.1c-0.4,0.8-1,1.4-1.5,2.1
						C139.1,140.5,138.9,140.4,138.7,140.4z"/>
					<path d="M176.4,18.2c-1.3,0.9-1.9,1.3-2.9,1.9c-0.1-1.1-0.1-1.7-0.2-2.8C174.3,17.7,175,17.9,176.4,18.2z"/>
					<path d="M129.8-51.5c0.6,1.2,1.1,2,1.5,2.8c-1.1,0.4-0.3,0.5-3.1-0.6C128.7-50,129.1-50.6,129.8-51.5z"/>
					<path d="M124.3-55.2c-0.4-0.8-0.6-1.4-0.9-2c1.6-1.4,2.4,0.6,3.6,0.8C126.1-56.1,125.3-55.7,124.3-55.2z"/>
					<path d="M244.5-4.5c-1.9-0.5-1.2-1.6-1.2-2.8c0.8,0.2,1.3,0.3,2,0.5C245-6,244.8-5.2,244.5-4.5z"/>
					<path d="M272.4,10.7c-0.6,1.3-1,2.3-2.5,2.2c-0.5-1.1-0.3-1.9,0.6-2.4C271,10.3,271.6,10.6,272.4,10.7z"/>
					<path d="M263,2.1c2.7-1.6,3.7,0.3,3.2,1C265.7,4.1,264.8,3.2,263,2.1L263,2.1z"/>
					<path d="M104.9-43.8c-1.3-0.9-3.3,1.2-4.2-1.1C102-43.9,103.9-46,104.9-43.8z"/>
					<path d="M157.2-43.6c1.6,0.6,3,0.6,2.8,2.7C158.4-41.1,157.8-42,157.2-43.6z"/>
					<path d="M161.6-3.8c0.8,0.3,1.5,0.5,2.5,0.9c-0.5,0.9-0.9,1.4-1.4,2.2C161-3.6,161.1-3,161.6-3.8z"/>
					<path d="M80.2,28.4c-0.6,1.2-1.1,2.3-1.8,3.7C77.4,30.5,77.7,29.8,80.2,28.4z"/>
					<path d="M207.3,26.6c-1.1-0.1-1.6-0.2-2.4-0.3c0-0.7,0-1.3,0-2C206.5,24.2,206.5,25.3,207.3,26.6z"/>
					<path d="M182.4,15.1c-1-0.5-1.9-1-2.9-1.5C180.9,12.3,181.5,12.5,182.4,15.1z"/>
					<path d="M150.7-47.7c-0.2-0.9-0.4-1.6-0.7-2.9c1.2,0.5,1.9,0.7,3.2,1.2C152.1-48.7,151.5-48.3,150.7-47.7z"/>
					<path d="M188.8-75.4c-1.8,0.6-2.6,0.1-2.9-1.5C187.3-77.3,188.2-77,188.8-75.4z"/>
					<path d="M4.9,69.3c-1-1.2-1.6-2-0.7-3.3C5.4,66.9,5.8,67.7,4.9,69.3z"/>
					<path d="M125.5-7.8c-0.6,0.9-1.1,1.5-1.5,2.1c-1.1-0.2-1.4-0.7-1.1-1.6C123.4-8.3,124.2-8.4,125.5-7.8z"/>
					<path d="M233.5-17.6c-0.1,2-1.8,2.3-2.7,3.6C230.1-15.9,229.7-15.3,233.5-17.6z"/>
					<path d="M19.8,100c-1.1,1.2-1.1,1.2-2.9,0.1C18.1,99,18.1,99,19.8,100z"/>
					<path d="M272.7,139c-2.3,0.5-0.9,2.3-1.6,4.2c-0.7-1.4-1-2.2-1.4-3C272.4,138.3,271.9,138.4,272.7,139z"/>
					<path d="M134.8,27.5c-1.2,0.2-2.2,0.4-3.3,0.6C131.1,26.4,133.6,25.1,134.8,27.5z"/>
					<path d="M-34.5,269c0-0.3,0-0.6,0.1-0.7c0.6-0.7,1.3-1.4,2.3-0.8C-31.2,268-32.2,270.5-34.5,269z"/>
					<path d="M224.2,154.4c-0.1,2,0.4,1-1.3,3.9c-0.3-0.1-0.6-0.2-1.3-0.4C224.5,154.1,224.3,154.4,224.2,154.4z"/>
					<path d="M61.6,240.1c1.7,1.9,1.6,2.8-0.3,4C61.6,241.5,61.5,242.6,61.6,240.1z"/>
					<path d="M120.1-74.9c1.2,0.2,2.6-1.7,3.4,0.7C122.3-74.1,121-73.2,120.1-74.9z"/>
					<path d="M109.9-29.9c1,0.4,1.8,0.7,2.6,1c0,1-0.4,1.4-1.3,1.3C110.1-27.8,109.8-28.5,109.9-29.9z"/>
					<path d="M221.7,166.6c-1.9-1.7-1.9-1.9,0.2-3.7C221.9,164.1,221.8,165.3,221.7,166.6z"/>
					<path d="M16.5,115c1.5-2,1.5-2,2.6,0C18.1,115.1,17.3,115,16.5,115z"/>
					<path d="M145.7,4.4c-1.4,1-2.5,0.2-3.8-0.8C145.2,2.3,145.5,4.7,145.7,4.4z"/>
					<path d="M191,33.9c0.8-1,1.5-1.7,2.3-2.6c0.1,0.6,0.5,1.2,0.3,1.5C193.1,33.6,192.4,34.3,191,33.9z"/>
					<path d="M224.3,168.8c-0.9,0.6-1.6,1.1-2.5,1.7c0-1.4,0.3-2.4,1.6-2.6C223.6,167.9,223.9,168.4,224.3,168.8z"/>
					<path d="M192.1,145.1c-0.2-2.2-0.2-2.2,1.6-2.5C193.3,143.6,193.9,145,192.1,145.1z"/>
					<path d="M180.8,124.6c-0.6,0-1.2,0.1-1.7,0.1c-0.5-0.9-0.4-1.6,0.5-1.8C180.7,122.8,181,123.5,180.8,124.6z"/>
					<path d="M151.9,19.1c-1.3-0.1-2.3,0.1-2.8-0.3c-0.6-0.5-0.3-1.3,0.6-1.7C150.3,17.6,150.8,18.1,151.9,19.1z"/>
					<path d="M147.8,5.7c-0.7,0.3-1.5,0.6-2.9,1.2c0.4-1.3,0.6-1.9,0.8-2.6c0,0,0,0,0,0C148,5.8,147.8,5.8,147.8,5.7z"/>
					<path d="M211.1,9.8c0.2,0.9,0.3,1.6,0.4,2.3c-0.8,0.2-0.4,0.5-1.9-1.4C210,10.3,210.5,10.1,211.1,9.8z"/>
					<path d="M186.5,7.1c1.3,0.1,2.4,0.5,2.5,2.4C185.7,7.5,186,8,186.5,7.1z"/>
					<path d="M15.8,210.6c-2.6,0.2-1.8-2.4-0.9-2.3C16.2,208.6,15.9,209.5,15.8,210.6z"/>
					<path d="M266.8,3.5c0.2,2.7,0.2,2.7-2.1,3.4C265.4,5.7,266,4.9,266.8,3.5z"/>
					<path d="M243.7-15.9c-2.4,0.3-2.5,0.3-2.7-2.1C241.9-17.4,242.7-16.8,243.7-15.9z"/>
					<path d="M142.7,21.1c1.1-2.2,1.1-2.2,3.4-0.9C144.9,20.6,143.9,20.8,142.7,21.1z"/>
					<path d="M136.4-45.1c0.5-2.3,0.5-2.3,2.5-1.4C138-46,137.3-45.6,136.4-45.1z"/>
					<path d="M178.8,70.1c1.9-0.7,1.9-0.7,2.1,2.1C180.1,71.3,179.5,70.7,178.8,70.1z"/>
					<path d="M95.3,15.5c-1.4-0.2-2-0.7-1.6-2C94.8,13.5,95.5,13.9,95.3,15.5z"/>
					<path d="M17.9,108.7c0-0.7,0-1.4,0-2.3c0.5,0.1,1,0.1,1.1,0.3C20,107.8,19.1,108.3,17.9,108.7z"/>
					<path d="M236.7-77.6c-1.8-0.1-1.5-1.3-2.1-2.4C236.4-80,236.7-79.1,236.7-77.6z"/>
					<path d="M16.5,107.9c0.2,2.5,0.5,2.1-1.1,2.1C15.5,107.5,15.2,107.9,16.5,107.9z"/>
					<path d="M152,92.7c-2.2-1.1-1.8-2.3-1.4-3.5C151.4,89.1,151.1,88.6,152,92.7z"/>
					<path d="M189.2,107.4c0.3,1.6,0.2,2.5-1.4,2.7C187,108.8,187.7,108.1,189.2,107.4z"/>
					<path d="M244.4,4.6c-0.5,0.6-1,1.2-1.8,2.2C242.1,4.9,242.2,4,244.4,4.6z"/>
					<path d="M132.3,119.5c-1.4-0.8-0.4-2-0.8-3.2C134.6,117.6,131.8,119.4,132.3,119.5z"/>
					<path d="M101.6-52.7c-1.8-0.5-2.8-1-2.4-2.8C99.9-54.7,100.5-53.9,101.6-52.7z"/>
					<path d="M193.8,25.4c0.9,0.5,1.9,1,3.1,1.6C195.1,27.7,195.1,27.7,193.8,25.4z"/>
					<path d="M144.5-76.1c-1,1.5-1.9,1-3,0.3C142.6-76.8,143.4-76.7,144.5-76.1z"/>
					<path d="M-39,46.2c0.6-1.1,1.3-1.1,2.8,0.1C-39.2,47.1-38.7,47.2-39,46.2z"/>
					<path d="M230.4,156.1c-2.6-0.9-2.6-0.9-1.8-2.5C229.8,153.8,229.8,154.8,230.4,156.1z"/>
					<path d="M188-0.7c1,1.1,1.6,2,0.6,3.3C187.8,1.6,187.1,0.9,188-0.7z"/>
					<path d="M2-6.4C1.1-7.9,0.3-8.8,1.3-9.7C2.4-9.5,2.2-10,2-6.4z"/>
					<path d="M225.6,164.2c0.6,1.8-0.1,2.1-1.5,1.8C224.5,165.5,225,165,225.6,164.2z"/>
					<path d="M209.5,40.4c0.5-0.9,0.9-1.5,1.2-2.1c0.3,0,0.5,0,0.5,0.1C211.8,39.6,211.7,40.5,209.5,40.4z"/>
					<path d="M114.2,239.6c1.2,0.4,2.1,0.6,3.2,0.9C115.6,241.7,115.6,241.7,114.2,239.6z"/>
					<path d="M188.3-125c-1.4-0.2-2.2-0.6-2.3-2.1C187.5-127.1,188-126.4,188.3-125z"/>
					<path d="M172.6,141.8c-1.1-0.4-1.7-0.4-2-0.7c-0.1-0.1,0.1-1,0.3-1.1c0.4-0.1,1.1-0.1,1.4,0.2
						C172.6,140.4,172.5,141.1,172.6,141.8z"/>
					<path d="M201.9,27.7c-2.4-0.7-2.4-0.7-1-2.6C201.2,26,201.5,26.7,201.9,27.7z"/>
					<path d="M181.7,38.6c1.9,0.9,1.8,0.3,1.2,2.2C181.6,40.3,181.8,40.9,181.7,38.6z"/>
					<path d="M78.9,215.1c0.7,0.3,1.2,0.6,1.8,0.9c-0.3,0.6,0.3,0.4-2.6,0.8C78.3,216.1,78.6,215.6,78.9,215.1z"/>
					<path d="M10.4,128c0.7,0.8,1.2,1.3,2.1,2.2c-1.1-0.1-1.7,0-2.2-0.2C9.2,129.5,9.9,128.9,10.4,128z"/>
					<path d="M269.5-27.1c-2,0.2-2.8-0.2-3-1.5C267.2-29.4,266.6-29.6,269.5-27.1z"/>
					<path d="M-4.6,83.4c-1.7,1.8-1.7,1.8-2.8-0.1C-6.5,83.3-5.8,83.3-4.6,83.4z"/>
					<path d="M3.1,129c0.5-1.4,0.4-1.7,1.8-2c0.1,0,0.5,0.5,0.4,0.6c-0.3,0.4-0.5,0.9-0.9,1.2C4,129,3,129,3.1,129z"/>
					<path d="M170.3-17.7c0.6,1.9-0.6,2.1-1.4,2.6C168.2-15.7,168-15.1,170.3-17.7z"/>
					<path d="M-41.2,19.1c1.5,0.5,1.3,0.1,0.6,2C-41.7,20.6-41.6,21.2-41.2,19.1z"/>
					<path d="M209.6-35c-0.4,1.3-0.7,2-1.1,3.2C207.7-33.3,207.6-34.1,209.6-35z"/>
					<path d="M231.7,158.7c1.4-1.5,2-0.7,2.9,0.7C233.5,159.2,232.7,159,231.7,158.7z"/>
					<path d="M216.5,161.9c0.3,0.9,0.9,1.8-1.2,2.2C215.9,161.3,215.6,161.7,216.5,161.9z"/>
					<path d="M225.3-13.3c1.5,0.4,0.9-0.1,2.5,1.4C226.3-11.1,225.8-11.8,225.3-13.3z"/>
					<path d="M159.4,6.3c0.8,0.7,1.2,1,1.7,1.4C159.7,8.6,159.7,8.6,159.4,6.3z"/>
					<path d="M143.2-83.6c-0.9,1.7-1.7,1.4-2.7,0.5C141.3-83.3,142-83.4,143.2-83.6z"/>
					<path d="M171.5-11.7c-0.5,1.5-1.2,2.2-2.7,1.1C169.8-11.1,170.7-11.4,171.5-11.7z"/>
					<path d="M13,119.3c0.9,0.1,1.5,0.2,2.3,0.3c-0.5,0.8-0.9,1.4-1.5,2.4C13.5,120.9,13.3,120.3,13,119.3z"/>
					<path d="M41,231.2c0-2,1.1-1.8,2.2-1.5C42.6,230.1,41.9,230.6,41,231.2z"/>
					<path d="M131.6-1.6c1.7,2.5,2,2.2-0.5,1.6C131.7-1.7,131.7-1.6,131.6-1.6z"/>
					<path d="M135.1-3.3c1.3-0.4,1.8,0.3,2,1.6C135.5-1.5,135.3-3.8,135.1-3.3z"/>
					<path d="M113.7,26.4c1.5,1,0.7,1.9,0.7,2.7C113.3,29.1,113.6,29.6,113.7,26.4z"/>
					<path d="M232.4,10.7c1.4-2.7,1-2.4,1.7-2C233.8,9.6,234.2,10.9,232.4,10.7C232.4,10.6,232.4,10.7,232.4,10.7z"/>
					<path d="M264.8,112.7c-0.1-1.2-0.2-1.8-0.3-2.5C265.8,110.9,265.8,110.9,264.8,112.7z"/>
					<path d="M181.2-17.6c-1-0.3-1.6-0.4-2.2-0.6C179.8-18.8,180.7-19.6,181.2-17.6z"/>
					<path d="M204.4,181.1c-1.3-1.3-1.3-0.9-0.2-1.8C205.1,181,205.1,180.6,204.4,181.1z"/>
					<path d="M2,141.1c-1.4,1.5-2.6-0.1-2-0.5C0.8,139.9,1.4,140.2,2,141.1z"/>
					<path d="M136.8-50.8c1.2,0.5,1.8,0.7,2.6,1c-0.7,0.4-1.2,0.7-1.8,1.1C137.4-49.3,137.2-49.7,136.8-50.8z"/>
					<path d="M222.4-66.2c-0.4-0.3-0.8-0.6-1.2-1c0,0,0.4-0.6,0.4-0.6c0.5,0.2,0.9,0.5,1.3,0.7C222.8-66.8,222.6-66.5,222.4-66.2z"
						/>
					<path d="M81.9,26.2c-0.8-0.7-1.2-1.1-1.9-1.7c0.8-0.2,1.4-0.4,2.1-0.6C82.1,24.7,82,25.2,81.9,26.2z"/>
					<path d="M156.9,15.7c1.3-1.1,1.8-0.6,2.3,0.3C158.2,16.5,158.9,16.6,156.9,15.7z"/>
					<path d="M249.6-6.4c-0.6-0.2-1.2-0.1-1.3-0.4c-0.1-0.3-0.1-1,0.2-1.2c0.2-0.2,0.8-0.1,1.2-0.2C249.7-7.6,249.7-7.1,249.6-6.4z"
						/>
					<path d="M229.1-17.3c-0.7-0.1-1.3-0.1-2.7-0.3c1.1-0.7,1.7-1,2.6-1.5C229.1-17.1,229-17.4,229.1-17.3z"/>
					<path d="M120.8-84.4c2.5-1.3,2-1.2,2.3-0.6C120.8-83.7,121.2-83.7,120.8-84.4z"/>
					<path d="M192-133.5c0.1,1.4,0.5,0.9-1.7,1.7C190.4-133.3,191.1-133.6,192-133.5z"/>
					<path d="M141.1-73.5c1.6,0.6,1.7,1.3,1.2,2c-0.1,0.2-0.6,0.1-0.9,0.2C141.3-72,141.2-72.6,141.1-73.5z"/>
					<path d="M33.2,128.9c-0.6,1.4-0.2,1.1-1.5,1C32.1,128.5,31.8,128.9,33.2,128.9z"/>
					<path d="M161.5,48.7c-0.6-0.1-1.1-0.1-1.2-0.3c-0.2-0.2-0.2-0.7-0.1-1c0.1-0.2,0.8-0.3,0.9-0.1C161.3,47.6,161.3,48,161.5,48.7
						z"/>
					<path d="M263.2,4.3c-0.3,0-0.8,0-1-0.1c-0.7-0.9,0.3-1.2,0.6-1.8C263.2,1.6,263.2,3.2,263.2,4.3z"/>
					<path d="M78.3-51c-0.8,1.7-0.4,1.4-1.6,1.4C76.5-50.4,76.2-50.1,78.3-51z"/>
					<path d="M167.7,92.5c-1,1.4-0.3,1.2-2.3,1C165.7,92.3,165.1,92.6,167.7,92.5z"/>
					<path d="M117.4,127.4c-0.6,0-1.2,0-2,0C116.1,126.1,116.7,126.2,117.4,127.4z"/>
					<path d="M33.2,185.1c0.2,0.9,0.3,1.5,0.4,2.2c-0.4,0-0.6,0.1-0.8-0.1C31.9,186.7,32,186,33.2,185.1z"/>
					<path d="M129,126.4c0.1-2,0.1-2,1.8-1.7C130.5,126.4,128.3,126.4,129,126.4z"/>
					<path d="M127.4,158.7c-0.2,0.8,0,1.7-1.4,1c-0.1,0-0.1-0.8,0.1-0.9C126.3,158.6,126.8,158.7,127.4,158.7z"/>
					<path d="M67-44c0.8-0.3,0.5-0.6,1.3,1C67.3-42.6,67.6-42.4,67-44z"/>
					<path d="M161.7,149.4c0.3,1.6-0.3,2-1.1,2.2C159.9,150.9,159.8,151.4,161.7,149.4z"/>
					<path d="M82.9,213.2c-1,1.2-0.4,1.2-2,0.6C81.6,212.9,81,212.9,82.9,213.2z"/>
					<path d="M199.2,137.3c0.6-1.3,1.2-1.5,2.3-0.4C200.6,137.1,200.1,137.2,199.2,137.3z"/>
					<path d="M78,221.6c-0.7,0.5-1.4,0.9-2.2,1.5C75.8,221.3,76.8,221.5,78,221.6z"/>
					<path d="M219,168.7c1.1,1.6,1.1,1.2,0,1.9C218.1,168.9,218,169.3,219,168.7z"/>
					<path d="M296.5,117.7c-0.4,1.3,0.1,1.1-1.5,1.1C295.1,117.3,294.8,117.6,296.5,117.7z"/>
					<path d="M206.5,181.5c0.9,0,1.8,0.1,2.7,0.1C208,182.9,208,182.9,206.5,181.5z"/>
					<path d="M45.1,294.5c0.8-0.3,1.5-1,2.9-0.1C44.8,295.2,45.3,295.3,45.1,294.5z"/>
					<path d="M152.2-87c-1.5,0.6-1.2,0.6-1.5-0.2C152.2-87.9,151.9-88,152.2-87z"/>
					<path d="M136-54.1c-1.7,0.7-2,0.1-2-1.3C134.7-55,135.1-54.7,136-54.1z"/>
					<path d="M121.7-11.6c1.7,0.4,1.3,1.1,0.5,2.2C121.2-11,121.4-10.4,121.7-11.6z"/>
					<path d="M83.1,17.4c-1.2,1.6-1.8,1.1-2.7,0C81.4,17.4,82,17.4,83.1,17.4z"/>
					<path d="M132.7,3.7c-0.3,0.6-0.5,1.2-1,2.3C130.9,4.5,131.5,4,132.7,3.7z"/>
					<path d="M171.8,145.6c0.1-0.7,0.2-1.3,0.4-2.2C173.1,144.6,173.1,144.6,171.8,145.6z"/>
					<path d="M24.4,99.1c-1,0.9-1.6,0.8-2.3-0.1C22.9,98.2,23.6,98.4,24.4,99.1z"/>
					<path d="M154.3,16.2c-0.7,1.3-0.7,1.3-1.9,0.3C153.2,16.4,153.7,16.3,154.3,16.2z"/>
					<path d="M114.7,59.7c-0.4,0.3-0.7,0.7-1.1,1c0,0-0.5-0.4-0.5-0.4c0.3-0.4,0.6-0.8,0.9-1.2C114.2,59.3,114.5,59.5,114.7,59.7z"
						/>
					<path d="M229.1-17.4c2.2,2.7,1.7,2.2-1.6,1.2C229.4-17.5,229.2-17.3,229.1-17.4z"/>
					<path d="M220.5-2.7c0.5,0.7,0.9,1.4,1.5,2.3C220.3-0.6,220.8-1.9,220.5-2.7z"/>
					<path d="M287.7,118.9c-0.6,0.4-1.1,0.8-2.2,1.4C286,118.6,287,118.9,287.7,118.9z"/>
					<path d="M122.5,33.9c0-1.3-0.5-0.9,1.5-1.7C124.4,33.1,124.7,32.8,122.5,33.9z"/>
					<path d="M115.6,8.5c-1.5,0.8-1.3,1.1-1-1.2C115.1,7.2,114.9,7,115.6,8.5L115.6,8.5z"/>
					<path d="M45.6-2.2c-0.2,0.4-0.4,0.8-0.7,1c-0.2,0.1-0.7,0-0.9-0.2c-0.1-0.2-0.1-0.7,0.1-0.9c0.1-0.2,0.6-0.1,0.9-0.2
						C45.1-2.4,45.3-2.3,45.6-2.2z"/>
					<path d="M20,75.7c-1.3-1.1-1.1-0.8-0.5-1.5C20.7,75.4,20.6,75.1,20,75.7z"/>
					<path d="M278.9,113.2c-1,1.4-0.5,1.3-2,1C277.2,112.9,276.8,113.3,278.9,113.2z"/>
					<path d="M-10,31.1c0.4-0.2,0.9-0.5,1.3-0.7c0.1,0.1,0.2,0.4,0.2,0.4C-9.9,31.9-9.6,31.8-10,31.1z"/>
					<path d="M103.6-54.4c0.4,0.8,0.7,0.5-0.9,1.5C102.1-53.9,101.9-53.5,103.6-54.4z"/>
					<path d="M151.9,8.5c-1.3-0.3-0.8-0.1-2.1-0.9c0,0.1-0.2,0.2,1.6-0.7C151.6,7.4,151.8,8,151.9,8.5z"/>
					<path d="M124,9c1.6-1.3,1.2-1.3,1.7-0.7C124.3,9.8,124.7,9.7,124,9z"/>
					<path d="M156.6,13.1c2.1,0.5,1.7,0.3,1.8,1C156.5,14.8,156.9,15.1,156.6,13.1z"/>
					<path d="M131.5-11.8c-0.2-1.8-0.5-1.5,0.8-1.6C132.2-11.5,132.4-11.8,131.5-11.8z"/>
					<path d="M-21.4,192.6c0.5,0.2,1,0.3,1,0.4c-0.2,1.6-0.6,1.1-1.3,1C-21.6,193.6-21.5,193.2-21.4,192.6z"/>
					<path d="M74.3,239c-0.2,0.5-0.4,1-0.5,1c-0.4,0-0.8-0.1-1.1-0.4c-0.1-0.1,0.1-0.6,0.2-1C73.3,238.8,73.7,238.9,74.3,239z"/>
					<path d="M148.1,22.7c0.8,1.7,0.7,1.1,0.2,2.3C147,24.3,147.2,23.7,148.1,22.7z"/>
					<path d="M192.9,132.5c1.4,0.3,1.2-0.1,0.9,1.4C192.7,133.5,193,133.9,192.9,132.5z"/>
					<path d="M164.6,148.9c1.1-1.8,0.7-1.6,1.6-1.1C165.1,149.6,165.5,149.4,164.6,148.9z"/>
					<path d="M165.2,86.4c-0.5,0.1-1.1,0.3-1.5,0.1c-0.5-0.2-0.1-0.9,0.7-1C165.3,85.5,165.1,85.3,165.2,86.4z"/>
					<path d="M140.4-40.4c-0.1,1.8-0.1,1.8-2,1.6C140.7-40.6,140.5-40.4,140.4-40.4z"/>
					<path d="M114.7-23.8c-0.2,1.1-0.4,1.8-0.7,3.1C113.2-22.2,113.3-23,114.7-23.8z"/>
					<path d="M141.7-41.2c-0.1,0.6,0.2,0.4-1.3,0.8C140.2-41.7,139.1-41.8,141.7-41.2z"/>
					<path d="M122.8-29.8c0.8,0.4,0.8,0,0.1,1.7C122.2-28.4,122.2-28,122.8-29.8z"/>
					<path d="M316.6,41c-0.5,0.9-0.3,1.4-1.7,0.5c-0.1,0,0.2-0.8,0.3-0.8C315.6,40.7,316,40.9,316.6,41z"/>
					<path d="M114.6-24.8c-0.4-1.4-0.5-1.1,0.6-1.3C115.2-24.6,115.3-24.9,114.6-24.8z"/>
					<path d="M143.2-15.5c1.5,1.1,0.9,0.5,1.8,2.2C142.4-14.5,142.7-13.9,143.2-15.5z"/>
					<path d="M3.7,212.7c-0.5,1.3,0,1.2-1.6,1C2.6,212.5,2.2,212.8,3.7,212.7z"/>
					<path d="M0.5,137.3c0.5,0.8,0.7,0.5-0.7,1.4C-0.7,138-0.8,138.3,0.5,137.3z"/>
					<path d="M42.9,221.7c-0.7,1.9-0.3,1.5-1.5,1.4C41.7,221.7,41.4,222.1,42.9,221.7z"/>
					<path d="M154.9,11.6c0.5,0.1,1,0,1.1,0.2c0.1,0.1,0.1,0.7-0.1,0.9c-0.2,0.2-0.7,0.2-0.9,0C155,12.5,155,12.1,154.9,11.6z"/>
					<path d="M81.6,42.6c-0.8,1.2-0.3,1.1-1.6,0.8C80.4,42.2,80,42.4,81.6,42.6z"/>
					<path d="M147.1,121.5c-0.1-2.4-0.3-2,0.5-2C147.6,121.9,147.7,121.5,147.1,121.5z"/>
					<path d="M172.3,205.9c-1.4-0.5-1.9-0.9-1.6-1.8C171.6,203.8,171.3,203.5,172.3,205.9z"/>
					<path d="M34.2,119.4c-0.1,0.7-0.2,1.3-0.3,1.8c-0.3-0.1-0.5-0.1-0.6-0.2C32.7,120.1,32.8,119.6,34.2,119.4z"/>
					<path d="M126.8-82.2c-1.6-0.4-1.4-0.3-1.4-0.8c0.9-0.2,0.5-0.4,1.6,0.4C127-82.5,126.9-82.4,126.8-82.2z"/>
					<path d="M65.6,237.9c0.4-0.3,0.7-0.6,1.1-0.9c0,0,0.4,0.3,0.4,0.3c-0.2,0.4-0.5,0.8-0.7,1.3C66.1,238.3,65.8,238.1,65.6,237.9z
						"/>
					<path d="M150.4,159.3c1.8,0.6,1.5,0.3,1.3,1C150,159.6,150.2,159.9,150.4,159.3z"/>
					<path d="M232.9-37.7c-1.4,1-1.1,0.9-1.4,0.6C232.6-38.5,232.3-38.4,232.9-37.7z"/>
					<path d="M104.4,232.2c0.2-0.4,0.4-0.9,0.7-1.3c0,0,0.4,0.1,0.4,0.1C105.2,232.8,105.3,232.6,104.4,232.2z"/>
					<path d="M203.4,182c1.4,0.1,1.2-0.3,1.1,1.2C203.2,183.1,203.5,183.3,203.4,182z"/>
					<path d="M199.4,186.5c0.1-0.4,0.1-0.9,0.2-1.3c0,0,0.5,0,0.5,0C200.3,186.8,200.3,186.6,199.4,186.5z"/>
					<path d="M13.5,72.8c0.1-0.2,0.1-0.6,0.2-0.7c0.4-0.3,1-0.5,1.6-0.4C13.6,73.4,14,73.2,13.5,72.8z"/>
					<path d="M83.9,3.7c-0.4-0.1-0.9-0.2-1.3-0.3c0,0,0-0.5,0-0.5C84.3,3,84.1,2.9,83.9,3.7z"/>
					<path d="M118.5-22.2c0.5-0.7,0.2-0.8,1.4,0C119.6-21.4,119.9-21.4,118.5-22.2z"/>
					<path d="M230,168.7c-1,1.3-0.7,1.2-1.2,0.8C229.7,168.2,229.5,168.3,230,168.7z"/>
					<path d="M110.5-19.8c-0.1-0.5-0.3-0.9-0.4-1.4C111.1-20.8,111.1-20.8,110.5-19.8z"/>
					<path d="M70.5,0.9C69.9,2.2,70.4,2,69,1.9C69.3,0.7,68.9,1,70.5,0.9z"/>
					<path d="M99.7,36.8c0.7,0.4,0.5,0,0.9,1.3C99,38,99.4,37.6,99.7,36.8z"/>
					<path d="M155.6,37c0.3,0.4,0.6,0.7,1,1.1c-0.1,0.1-0.3,0.3-0.4,0.3C154.8,37.2,155,37.4,155.6,37z"/>
					<path d="M168.9-77.1c-0.5,1.4-0.1,1.2-1.4,1.2C167.7-77.1,167.3-76.8,168.9-77.1z"/>
					<path d="M32.3,123.1c-0.8,1.1-0.5,0.9-1.4,0.7C31.5,122.5,31.2,122.7,32.3,123.1z"/>
					<path d="M147.8,5.7c0.6-0.5,1.3-1.1,2.3-1.9C149.6,6.5,147.9,5.4,147.8,5.7z"/>
					<path d="M154.6-111.9c1.6,0.4,1.3,0.1,1.2,1.3C154.9-110.8,155.2-110.5,154.6-111.9z"/>
					<path d="M230.7-5.8c0.6,0.5,1.9,0.5,1.1,1.9C230.2-4.3,231-5.8,230.7-5.8z"/>
					<path d="M36.1-4.5c-0.9,1-0.4,1-1.6,0.5C35-5,34.5-4.9,36.1-4.5z"/>
					<path d="M95.7-48.1c-0.4,0.1-0.7,0.2-1.1,0.4c-0.1-0.2-0.2-0.5-0.1-0.5C95.7-48.7,95.5-48.6,95.7-48.1z"/>
					<path d="M47.6-16c-0.3,1,0.1,0.9-1.1,0.6C46.8-16.3,46.5-16.2,47.6-16z"/>
					<path d="M17,1.5c-0.6,1.3-0.1,1.2-1.6,0.9C15.9,1.3,15.5,1.6,17,1.5z"/>
					<path d="M-11.3,18.9c1.4,0.9,1.1,0.5,0.8,1.6C-11.8,20-11.4,20.3-11.3,18.9z"/>
					<path d="M212,19.2c-1.9-0.6-1.5-0.2-1.6-1.5C211,17.5,210.6,17.3,212,19.2z"/>
					<path d="M208,21.9c-0.5-0.1-0.9-0.1-1-0.3c-0.1-0.2-0.1-0.7,0.1-0.9c0.2-0.2,0.7-0.1,0.9,0C208.1,20.9,208,21.3,208,21.9z"/>
					<path d="M-61.9,202.4c0.4,1,0.7,1.6,1.2,2.6C-62.1,204.4-62.5,203.9-61.9,202.4z"/>
					<path d="M204.4,32.6c1.3-0.8,1-0.8,1.3-0.4C204.6,33.2,204.9,33.1,204.4,32.6z"/>
					<path d="M117.4,94c-0.3-0.1-0.7-0.1-0.7-0.3c-0.1-0.2,0-0.6,0.1-0.7c0.1-0.1,0.6,0,0.7,0.1C117.6,93.2,117.4,93.6,117.4,94z"/>
					<path d="M185,48c-0.3,0.5-0.4,0.9-0.7,1.2c-0.1,0.1-0.6-0.2-0.6-0.2C184,47.5,184,47.9,185,48z"/>
					<path d="M224.2,22.9c0.8,1.8,0.8,1.4,0.1,1.8C223.4,22.9,223.3,23.2,224.2,22.9z"/>
					<path d="M175.3,57.7c-0.4-0.1-0.7-0.1-0.9-0.2c0.1-0.3,0.1-0.6,0.2-0.9c0-0.1,0.5-0.1,0.5,0C175.1,56.9,175.2,57.2,175.3,57.7z
						"/>
					<path d="M11.9-1.3c-1.5,0.3-1.9-0.3-2-1.1C10.6-3,10.2-3.2,11.9-1.3z"/>
					<path d="M274.8,9c-1.9-0.6-1.6-0.4-1.6-1c1.5,0,1-0.1,1.8,0.6C274.9,8.7,274.8,8.8,274.8,9z"/>
					<path d="M83.3,35.8c-0.1,0.4-0.2,0.7-0.4,1c0,0.1-1.1,0.1-0.6-1C82.4,35.7,82.8,35.8,83.3,35.8z"/>
					<path d="M148.3,12.7c-0.4-0.7-0.7-1.1-1.1-1.8C149.3,11,149.1,10.7,148.3,12.7z"/>
					<path d="M146.3,0.9c0.5,0.8,0.2,1.3-1,1.6C145.8,0.5,145.5,0.8,146.3,0.9z"/>
					<path d="M112.5,130.1c-0.7,1.6-0.5,1.4-1.2,1.1C112.1,129.6,111.8,129.8,112.5,130.1z"/>
					<path d="M11.7,201.4c-1.5-0.3-1.3,0-1.2-1.3C11.8,200.3,11.4,200,11.7,201.4z"/>
					<path d="M130.9,24.7c-0.5,1.4-0.1,1.3-1.4,1C129.8,24.8,129.4,25,130.9,24.7z"/>
					<path d="M115.6,8.5c1.9,0.1,1.2,1.4,0.6,1.4C114.9,9.7,115.8,8.1,115.6,8.5z"/>
					<path d="M-6.6,92.9c-0.8-1.9-0.8-1.5-0.2-1.8C-5.7,92.8-5.7,92.4-6.6,92.9z"/>
					<path d="M164.2,139.6c1.4-1.1,1.1-1.1,1.6-0.5C164.3,140.4,164.7,140.3,164.2,139.6z"/>
					<path d="M-78.1,139.3c0.3-0.5,0.5-1.7,1.4-0.6c0.1,0.1-0.1,0.6-0.2,0.7C-77.2,139.5-77.5,139.4-78.1,139.3z"/>
					<path d="M-107.1,74.6c-0.8,1.3-1.4,1.2-2.2,0C-108.5,74.6-107.9,74.6-107.1,74.6z"/>
					<path d="M149.6,171.9c-1.2,2.1-0.9,1.9-1.5,1.7C148.2,172.1,147.9,172.6,149.6,171.9z"/>
					<path d="M203.7-72.2c-0.6-1.4-0.6-1.2,0-1.4C204.2-72.1,204.2-72.4,203.7-72.2z"/>
					<path d="M127.7-21.7c-0.2,0.4-0.3,0.7-0.4,1c-0.6-0.3-1.1-0.1-0.4-1.3C127-22,127.4-21.8,127.7-21.7z"/>
					<path d="M165.7,15.6c0.7-0.6,1.1-1,1.5-1.5C167.3,15.3,167.3,15.3,165.7,15.6z"/>
					<path d="M152.5-44.1c0.2,0.3,0.4,0.7,0.5,1c0,0-0.3,0.2-0.4,0.2C151.8-43.9,151.9-43.7,152.5-44.1z"/>
					<path d="M77.2,3.9c0.4,0.1,0.7,0.2,0.9,0.3c-0.1,0.3-0.2,0.7-0.3,0.9c-0.1,0.1-0.6,0-0.7-0.1C77.1,4.7,77.1,4.3,77.2,3.9z"/>
					<path d="M121.2,48.4c-0.7,1.1-0.5,1-1,0.7C121,48,120.7,48.1,121.2,48.4z"/>
					<path d="M12.6,126.7c-0.5,0.9-0.1,0.8-1.4,0.4C11.9,126.3,11.6,126.5,12.6,126.7z"/>
					<path d="M31.8,218.3c0.4,0.1,0.7,0.2,0.9,0.4c0.1,0.1-0.1,0.6-0.2,0.6c-0.3,0-0.6-0.1-0.9-0.1
						C31.7,218.9,31.7,218.7,31.8,218.3z"/>
					<path d="M132.3,119.5c0.5,0.5,1.1,1,0.2,1.9C131.5,120.5,132.5,119.5,132.3,119.5z"/>
					<path d="M135.7,151.7c-0.8,1.2-0.4,1-1.5,0.6C135,151.2,134.7,151.4,135.7,151.7z"/>
					<path d="M124.9,160.7c-0.1,0.4-0.1,0.7-0.3,0.8c-0.2,0.1-0.6,0-0.7-0.1c-0.1-0.1,0-0.5,0.1-0.7
						C124.2,160.6,124.5,160.7,124.9,160.7z"/>
					<path d="M224.9,14.5c1.2,0.8,0.9,0.4,1,1.4C224.9,15.8,225.2,16.1,224.9,14.5z"/>
					<path d="M252.2-2.3c-0.6,0-0.4,0.3-0.7-1.1C252.1-3.5,251.9-3.7,252.2-2.3z"/>
					<path d="M77.5,203.5c0.3,0.1,0.6,0.1,0.8,0.2c-0.1,0.2-0.1,0.6-0.2,0.6c-0.2,0.1-0.5,0-0.7-0.1
						C77.4,204.2,77.5,203.8,77.5,203.5z"/>
					<path d="M218.4-55.2c-0.3,1,0,0.8-1,0.8C217.5-55.4,217.4-55.1,218.4-55.2z"/>
					<path d="M228.3,9.7c-0.3-1.3-0.3-0.8,0.2-1.9c0.6,1.4,0.5,0.9,0.2,1.8C228.6,9.7,228.5,9.7,228.3,9.7z"/>
					<path d="M314.5,52.9c-0.9-0.1-0.8,0.1-0.8-0.8C314.5,52.1,314.3,51.9,314.5,52.9z"/>
					<path d="M-15.4,17.3c0.3,0,0.6,0,0.8,0c-0.1,0.3-0.1,0.6-0.2,0.8c0,0.1-0.5,0-0.6-0.1C-15.6,17.9-15.4,17.6-15.4,17.3z"/>
					<path d="M170.8,149c0.5,1.3,0.5,1-0.2,1.3C170.4,148.9,170.3,149.2,170.8,149z"/>
					<path d="M28.4,192.6c1.5-0.9,1.2-0.8,1.5-0.3C28.5,193.2,28.8,193.2,28.4,192.6z"/>
					<path d="M128.9,126.4c0.6,0.2,1,0.6,0.4,1.1c-0.1,0.2-0.5,0.1-0.8,0.1C129.1,126.3,129,126.4,128.9,126.4z"/>
					<path d="M130.7,112.3c0,1,0.3,0.8-0.9,0.8C129.9,112.2,129.7,112.4,130.7,112.3z"/>
					<path d="M9.2,154c-1,0-0.9,0.2-0.7-0.9C9.4,153.3,9.2,153.1,9.2,154z"/>
					<path d="M94.9,217.4c-1.4-0.3-1.1-0.1-0.9-1.2C95.3,216.6,94.9,216.3,94.9,217.4z"/>
					<path d="M187.6,153.7c0.1-0.3,0.2-0.6,0.3-0.9c0,0,0.5,0,0.5,0.1C188.3,154,188.3,153.8,187.6,153.7z"/>
					<path d="M263.6,107.1c0,1.5,0.2,1.3-0.4,1.3C263,107,262.9,107.3,263.6,107.1z"/>
					<path d="M126.1,30.7c-0.6,1.1-0.4,0.9-1.1,0.5C125.6,30.2,125.4,30.3,126.1,30.7z"/>
					<path d="M195.3,158c-1.4-0.4-1.1-0.2-1.1-0.9C195.7,157.6,195.5,157.4,195.3,158z"/>
					<path d="M256.6,121.9c0.4,0.3,0.7,0.5,1,0.6C256.6,122.7,256.9,122.8,256.6,121.9z"/>
					<path d="M-30.7,41.4c-1.1-0.4-0.9-0.1-0.6-1.3C-30.6,40.4-30.7,40.1-30.7,41.4z"/>
					<path d="M-0.3-4.8C0-4.6,0.2-4.5,0.4-4.4C0.3-4.2,0.2-3.9,0-3.8c-0.1,0.1-0.4-0.1-0.4-0.1C-0.5-4.2-0.4-4.4-0.3-4.8z"/>
					<path d="M184.1-8.5c0.2-0.3,0.4-0.6,0.7-0.9c0,0,0.4,0.2,0.4,0.3C184.6-7.8,184.7-8.1,184.1-8.5z"/>
					<path d="M274.2,114.2c0,0,0,0.4,0,0.5c-0.4,0.1-0.9,0.2-1.3,0.3C273,114,272.7,114.1,274.2,114.2z"/>
					<path d="M266.3,120c1.3,0.4,1.2,0.1,0.7,1.1C265.9,120.6,266.1,120.9,266.3,120z"/>
					<path d="M78.1-27.7c1,0.4,0.8,0.1,0.7,1C77.8-27,78.1-26.8,78.1-27.7z"/>
					<path d="M9.4,219.7c-0.9-0.2-0.8,0.1-0.7-0.9C9.5,218.9,9.3,218.7,9.4,219.7z"/>
					<path d="M171.8-5.3c0.9,1.1,0.8,0.8,0.4,1.2C171.3-5.2,171.3-4.9,171.8-5.3z"/>
					<path d="M112.3,226.9c1.2-1,0.9-1,1.4-0.5C112.6,227.6,112.9,227.5,112.3,226.9z"/>
					<path d="M136.9,56.1c-0.3-0.1-0.5-0.2-0.7-0.3c0.1-0.3,0.3-0.6,0.5-0.8c0,0,0.5,0.2,0.6,0.3C137.2,55.5,137,55.8,136.9,56.1z"
						/>
					<path d="M224.2,154.4c0.9-1.3,0.6-1.2,1.1-0.7C224.1,154.4,224.2,154.4,224.2,154.4z"/>
					<path d="M143.5-104.1c0.4-0.1,0.8-0.2,1.3-0.4c0,0.2,0.1,0.5,0.1,0.5C143.5-103.4,143.7-103.6,143.5-104.1z"/>
					<path d="M44.8,82.7c-0.6-0.7-0.7-0.3,0.4-1.5C45.9,81.9,46,81.5,44.8,82.7z"/>
					<path d="M-48.3,177.9c-1.2,1.5-0.9,1.4-1.5,0.9C-48.6,177.3-49,177.4-48.3,177.9z"/>
					<path d="M-8.8,38.8c0.5,0.2,0.9,0.3,1.2,0.4c0.1,0-0.1,0.7-0.1,0.7C-9.2,39.8-8.9,39.6-8.8,38.8z"/>
					<path d="M201.2,178.1c-0.1,0.4-0.1,0.7-0.2,0.9c-0.1,0.1-0.6,0-0.6-0.1c-0.1-0.2-0.1-0.6,0.1-0.7
						C200.5,178,200.9,178.1,201.2,178.1z"/>
					<path d="M96.1,249.9c0.4-0.1,0.8-0.3,1.2-0.4c0,0.2,0.1,0.5,0.1,0.5C96.1,250.6,96.3,250.4,96.1,249.9z"/>
					<path d="M56.1,104.8c1,0.2,0.9-0.2,0.9,1.1C56,105.6,56.3,105.8,56.1,104.8z"/>
					<path d="M15.3,131.3c0.4,0.3,0.8,0.4,0.8,0.6c0,0.3-0.2,0.7-0.4,0.8c-0.2,0.1-0.7-0.1-0.8-0.3
						C14.9,132.2,15.1,131.9,15.3,131.3z"/>
					<path d="M163.4-72.2c-0.6,0.9-0.3,0.7-1,0.3C163-72.7,162.8-72.6,163.4-72.2z"/>
					<path d="M102.1,248.4c0.8,0.3,1.1,0.4,1.4,0.6c0.1,0.1-0.1,0.6-0.2,0.6C102.1,249.8,102.3,249.1,102.1,248.4z"/>
					<path d="M26.8,123.3c0.4-0.2,0.8-0.4,1.4-0.7c0.1,0.5,0.2,0.9,0.5,1.8C26.6,123.1,26.8,123.2,26.8,123.3z"/>
					<path d="M220.2,171.5c0.1,0.9,0.3,0.7-0.9,0.8C219.3,171.7,219,171.9,220.2,171.5z"/>
					<path d="M63.1-1.4c0.9,0.2,0.8-0.1,0.7,1C62.7-0.7,62.9-0.5,63.1-1.4z"/>
					<path d="M301,32.5c-0.7,1.4-0.3,1.1-1.4,1.1C300.1,32.5,299.8,32.8,301,32.5z"/>
					<path d="M7.7,131.9c-0.3,1.1,0.1,0.9-1.2,0.9C6.6,132.1,6.2,132.2,7.7,131.9z"/>
					<path d="M34,153.6c1.3,1.1,1,0.6,0.9,1.8C33.6,155,33.9,155.4,34,153.6z"/>
					<path d="M84.7,181.2c-0.4,0.9-0.2,0.7-0.8,0.5C84.1,180.9,84,181.1,84.7,181.2z"/>
				</g>
			</g>
		</g>
	</mask>
	<g class="st2">
		<g>
			<g>
				<path class="st3" d="M157.8,232.3c-56,15-113.7-18.3-128.7-74.3c-15-56,18.3-113.7,74.3-128.7c56-15,113.7,18.3,128.7,74.3
					C247.1,159.6,213.8,217.3,157.8,232.3z M104.2,32.2c-54.4,14.6-86.7,70.6-72.2,125c14.6,54.4,70.6,86.7,125,72.2
					c54.4-14.6,86.7-70.6,72.2-125C214.6,50,158.5,17.6,104.2,32.2z"/>
			</g>
			<path class="st3" d="M250,98.8L250,98.8c-3.4-2.1-4.8-6.4-3.2-10.1c1.8-4.2-0.2-9.1-4.5-10.7c-3.8-1.4-5.9-5.4-4.9-9.4
				c1.1-4.5-1.8-8.9-6.3-9.7c-4-0.7-6.8-4.3-6.5-8.3c0.2-4.6-3.4-8.4-8-8.5c-4,0-7.4-3-7.9-7c-0.6-4.5-4.8-7.7-9.3-6.9h0
				c-4,0.7-7.8-1.7-9-5.5c-1.4-4.4-6.1-6.7-10.4-5.1c-3.8,1.4-8-0.2-9.9-3.8c-2.1-4.1-7.2-5.5-11.2-3.2c-3.5,2-7.9,1.2-10.4-2
				c-2.8-3.6-8.1-4.1-11.6-1.1c-3,2.6-7.6,2.6-10.6-0.1c-3.4-3-8.7-2.6-11.6,1c-2.5,3.1-7,3.9-10.4,1.8c-3.9-2.4-9-1-11.2,3
				c-1.9,3.5-6.2,5.1-9.9,3.6c-4.3-1.7-9.1,0.6-10.5,5c-1.3,3.8-5.2,6.1-9.1,5.4c-4.5-0.9-8.8,2.2-9.4,6.8c-0.6,4-4,6.9-8,6.9
				c-4.6,0-8.3,3.8-8.1,8.3c0.2,4-2.7,7.5-6.7,8.2c-4.5,0.8-7.5,5.2-6.5,9.6c0.9,3.9-1.3,7.9-5.1,9.3c-4.3,1.6-6.4,6.4-4.6,10.6
				c1.6,3.7,0.1,8-3.3,10h0c-4,2.3-5.2,7.5-2.7,11.3c2.2,3.4,1.6,7.9-1.5,10.5c-3.5,3-3.8,8.3-0.6,11.6c2.8,2.9,2.9,7.4,0.4,10.6
				c-2.9,3.6-2.2,8.8,1.5,11.5c3.2,2.4,4.2,6.8,2.3,10.3v0c-2.2,4-0.6,9.1,3.5,11.1c3.6,1.8,5.4,5.9,4.1,9.8c-1.5,4.3,1,9,5.4,10.3
				h0c3.9,1.1,6.3,4.9,5.8,8.9c-0.7,4.5,2.6,8.7,7.2,9.1c4,0.4,7.1,3.7,7.3,7.7c0.2,4.6,4.1,8.1,8.7,7.7c4-0.3,7.7,2.3,8.5,6.3v0
				c1,4.5,5.5,7.2,9.9,6c3.9-1,7.9,0.9,9.5,4.7c1.8,4.2,6.7,6.1,10.8,4.2c3.6-1.7,8-0.5,10.2,2.9c2.5,3.8,7.7,4.8,11.4,2.2l0,0
				c3.3-2.3,7.8-1.9,10.5,1c3.1,3.3,8.4,3.4,11.6,0.1c2.8-2.9,7.3-3.3,10.5-0.9c3.7,2.7,8.9,1.8,11.4-2c2.2-3.3,6.6-4.5,10.2-2.7
				c4.1,2,9.1,0.2,10.9-4c1.6-3.7,5.7-5.6,9.6-4.5c4.4,1.3,9-1.4,10-5.9c0.9-3.9,4.6-6.6,8.6-6.2c4.6,0.5,8.6-3,8.8-7.6
				c0.2-4,3.4-7.3,7.4-7.6c4.6-0.4,7.9-4.5,7.3-9l0,0c-0.5-4,2-7.7,5.9-8.8c4.4-1.2,7-5.8,5.6-10.2v0c-1.2-3.8,0.6-8,4.2-9.7
				c4.1-1.9,5.8-7,3.7-11c-1.9-3.6-0.8-8,2.4-10.3c3.7-2.7,4.5-7.9,1.6-11.5c-2.5-3.2-2.3-7.7,0.6-10.6c3.2-3.3,3-8.6-0.4-11.6
				c-3-2.7-3.6-7.2-1.3-10.5C255.1,106.3,254,101.1,250,98.8z M159,236.7c-58.5,15.7-118.6-19-134.3-77.5
				C9,100.7,43.7,40.5,102.2,24.9c58.5-15.7,118.6,19,134.3,77.5C252.2,160.9,217.5,221,159,236.7z"/>
			<g>
				<path class="st3" d="M147.6,194.3c-35,9.4-71.2-11.5-80.6-46.5c-9.4-35,11.5-71.2,46.5-80.6c35-9.4,71.2,11.5,80.6,46.5
					C203.5,148.8,182.7,184.9,147.6,194.3z M114.4,70.2C81,79.1,61.1,113.6,70,147c9,33.4,43.4,53.3,76.8,44.4
					c33.4-9,53.3-43.4,44.4-76.8C182.2,81.1,147.8,61.2,114.4,70.2z"/>
			</g>
		</g>
		<g>
			<g>
				<path class="st3" d="M46.6,121.9l1.2-7.4l3.7,0.6l-1.2,7.4L46.6,121.9z"/>
				<path class="st3" d="M61,100.6c-1.4,1-2.9,1.5-4.6,1.7c-1.7,0.1-3.3-0.2-4.9-1c-1.6-0.8-2.9-1.9-3.7-3.3c-0.9-1.4-1.3-3-1.4-4.7
					c0-1.7,0.4-3.4,1.2-5.1c0.7-1.5,1.7-2.7,2.8-3.6c1.1-0.9,2.4-1.5,3.7-1.8l1.2,4.2c-1.8,0.4-3.1,1.4-3.8,2.8
					c-0.4,0.9-0.6,1.7-0.6,2.6c0,0.9,0.3,1.7,0.8,2.4c0.5,0.7,1.2,1.3,2.1,1.8c0.9,0.5,1.8,0.7,2.7,0.7c0.9,0,1.7-0.3,2.4-0.8
					c0.7-0.5,1.3-1.2,1.8-2c0.8-1.5,0.8-3.1,0-4.7l4.1-1.6c0.6,1.3,0.8,2.6,0.8,4.1c-0.1,1.4-0.5,2.9-1.2,4.4
					C63.5,98.3,62.4,99.6,61,100.6z"/>
				<path class="st3" d="M75.6,74l3,2.6l-9.4,11L55.5,75.8L64.7,65l3,2.6l-5.9,6.9l2.3,2l5.2-6.1l2.9,2.5L67,79l2.5,2.2L75.6,74z"/>
				<path class="st3" d="M84.6,66l-2.3,1.6l2.8,3.9l-4.2,3L70.5,59.7l6.7-4.8c1.3-0.9,2.6-1.5,3.9-1.8c1.3-0.3,2.5-0.2,3.6,0.3
					c1.1,0.4,2.1,1.2,2.8,2.3c0.8,1.1,1.2,2.2,1.2,3.3c0.1,1.1-0.2,2.3-0.8,3.4l6.5,2.4L90,68L84.6,66z M81.6,57.6
					c-0.7-0.1-1.5,0.2-2.3,0.8L77,60l3.1,4.3l2.3-1.6c0.9-0.6,1.4-1.2,1.5-1.9c0.2-0.7,0-1.4-0.5-2.1C82.9,58,82.3,57.7,81.6,57.6z"
					/>
				<path class="st3" d="M95.2,49.5L90,51.5l-1.5-3.8l15-6l1.5,3.8l-5.1,2l5.2,13l-4.7,1.9L95.2,49.5z"/>
				<path class="st3" d="M109,40.6l5-1.1l3.7,17.7l-5,1.1L109,40.6z"/>
				<path class="st3" d="M126.4,42.1l0.1,4l8-0.3l0.1,3.9l-8,0.3l0.2,6.2l-5.1,0.2l-0.6-18l14.1-0.5l0.1,3.9L126.4,42.1z"/>
				<path class="st3" d="M141.4,38.6l5.1,0.7l-2.5,17.9l-5.1-0.7L141.4,38.6z"/>
				<path class="st3" d="M163,58.6l-1.2,3.7l-13.7-4.6l5.7-17.1l13.4,4.5l-1.2,3.7l-8.6-2.9l-1,2.9l7.6,2.5l-1.2,3.6l-7.6-2.5
					l-1,3.1L163,58.6z"/>
				<path class="st3" d="M174.5,48.4l7.1,4.7c1.7,1.1,2.9,2.3,3.8,3.8c0.9,1.5,1.3,3,1.3,4.6c0,1.6-0.5,3.2-1.5,4.7
					c-1,1.5-2.2,2.6-3.7,3.3c-1.4,0.7-3,0.9-4.7,0.7c-1.7-0.2-3.4-0.9-5-1.9l-7.1-4.7L174.5,48.4z M173.8,64.7
					c1.3,0.8,2.6,1.2,3.8,0.9c1.3-0.2,2.3-1,3.2-2.3c0.8-1.3,1.1-2.6,0.8-3.8c-0.3-1.2-1.1-2.3-2.4-3.1l-2.7-1.8l-5.4,8.3
					L173.8,64.7z"/>
				<path class="st3" d="M194.8,75.9l4.7,5.9l-2.9,2.3l-4.7-5.9L194.8,75.9z"/>
			</g>
			<g>
				<path class="st3" d="M65,179.7l4.6,6l-3,2.3l-4.6-6L65,179.7z"/>
				<path class="st3" d="M77.6,204.8c-0.8-1.5-1.1-3.1-1-4.8c0.1-1.7,0.7-3.2,1.7-4.7c1-1.5,2.3-2.6,3.8-3.3
					c1.5-0.7,3.1-0.9,4.8-0.7c1.7,0.2,3.3,0.8,4.9,1.9c1.4,0.9,2.4,2,3.2,3.3c0.8,1.2,1.2,2.6,1.3,4l-4.3,0.6
					c-0.2-1.8-0.9-3.2-2.3-4.2c-0.8-0.6-1.6-0.9-2.5-1c-0.9-0.1-1.7,0.1-2.5,0.5c-0.8,0.4-1.5,1-2,1.9c-0.6,0.8-0.9,1.7-1,2.6
					c-0.1,0.9,0,1.7,0.4,2.5c0.4,0.8,1,1.5,1.8,2c1.4,0.9,2.9,1.2,4.7,0.7l1,4.3c-1.3,0.4-2.7,0.5-4.1,0.2c-1.4-0.3-2.8-0.9-4.2-1.8
					C79.6,207.6,78.4,206.3,77.6,204.8z"/>
				<path class="st3" d="M108.4,216.8l-1.4,3.7l-13.6-5.1l6.3-16.9l13.2,5l-1.4,3.7l-8.5-3.2l-1.1,2.8l7.5,2.8l-1.3,3.6l-7.5-2.8
					l-1.2,3.1L108.4,216.8z"/>
				<path class="st3" d="M122.2,218.3l-2.8-0.3l-0.5,4.8l-5.1-0.6l2-17.9l8.2,0.9c1.6,0.2,3,0.6,4.1,1.3c1.1,0.7,2,1.5,2.5,2.6
					c0.5,1.1,0.7,2.3,0.6,3.6c-0.1,1.3-0.6,2.4-1.3,3.3c-0.7,0.9-1.7,1.6-2.9,2l3.2,6.1l-5.4-0.6L122.2,218.3z M125.5,210.1
					c-0.5-0.5-1.2-0.8-2.3-1l-2.8-0.3l-0.6,5.3l2.8,0.3c1,0.1,1.9,0,2.4-0.4c0.6-0.4,0.9-1,1-1.8C126.2,211.3,126,210.6,125.5,210.1
					z"/>
				<path class="st3" d="M138.6,209.3l-5.5,0.7l-0.5-4l16-2.1l0.5,4l-5.5,0.7l1.8,13.9l-5.1,0.7L138.6,209.3z"/>
				<path class="st3" d="M150.5,203l4.9-1.5l5.4,17.2l-4.9,1.5L150.5,203z"/>
				<path class="st3" d="M165.3,201.5l1.8,3.5l7.1-3.7l1.8,3.5l-7.1,3.7l2.9,5.5l-4.5,2.4l-8.3-16l12.6-6.5l1.8,3.5L165.3,201.5z"/>
				<path class="st3" d="M173.3,192.1l4-3.1l11,14.3l-4,3.1L173.3,192.1z"/>
				<path class="st3" d="M200.5,185.3l2.9,2.6l-9.7,10.8l-13.4-12l9.4-10.5l2.9,2.6l-6.1,6.8l2.3,2l5.3-6l2.8,2.5l-5.3,6l2.5,2.2
					L200.5,185.3z"/>
				<path class="st3" d="M191.5,174l3.9-7.6c0.9-1.8,2-3.2,3.4-4.2c1.4-1,2.8-1.6,4.4-1.7c1.6-0.1,3.2,0.2,4.8,1
					c1.6,0.8,2.9,1.9,3.7,3.3c0.8,1.4,1.2,2.9,1.2,4.6c0,1.7-0.5,3.4-1.4,5.2l-3.9,7.6L191.5,174z M207.7,172.9
					c0.7-1.4,0.9-2.7,0.5-3.9c-0.4-1.2-1.2-2.2-2.6-2.9c-1.4-0.7-2.7-0.8-3.9-0.4c-1.2,0.4-2.2,1.3-2.9,2.7l-1.5,2.9l8.8,4.5
					L207.7,172.9z"/>
				<path class="st3" d="M210.8,148.8l1.1-7.4l3.7,0.5l-1.1,7.4L210.8,148.8z"/>
			</g>
		</g>
		<path class="st3" d="M115.5,74.5c-31.1,8.3-49.6,40.3-41.2,71.4c8.3,31.1,40.3,49.6,71.4,41.2c31.1-8.3,49.6-40.3,41.2-71.4
			C178.6,84.6,146.6,66.1,115.5,74.5z M127,178.6l-41.7-24l12.1-21l20.6,11.9L150.7,89l21,12.1L127,178.6z"/>
	</g>
</g>
<g>
</g>
<g>
</g>
<g>
</g>
<g>
</g>
<g>
</g>
<g>
</g>
<g>
</g>
<g>
</g>
<g>
</g>
<g>
</g>
<g>
</g>
<g>
</g>
<g>
</g>
<g>
</g>
<g>
</g>
</svg>
