<?xml version="1.0" encoding="utf-8"?>
<!-- Generator: Adobe Illustrator 25.3.0, SVG Export Plug-In . SVG Version: 6.00 Build 0)  -->
<svg version="1.1" id="Calque_1" xmlns="http://www.w3.org/2000/svg" xmlns:xlink="http://www.w3.org/1999/xlink" x="0px" y="0px"
	 viewBox="0 0 150 50" style="enable-background:new 0 0 150 50;" xml:space="preserve">
<style type="text/css">
	.Ombre_x0020_portée{fill:none;}
	.Lueur_x0020_externe_x0020_5 pt{fill:none;}
	.Néon_x0020_bleu{fill:none;stroke:#8AACDA;stroke-width:7;stroke-linecap:round;stroke-linejoin:round;}
	.Ton_x0020_clair_x0020_chrome{fill:url(#SVGID_1_);stroke:#FFFFFF;stroke-width:0.3629;stroke-miterlimit:1;}
	.Swing_GS{fill:#FFDD00;}
	.Alysse_GS{fill:#A6D0E4;}
	.st0{fill:#FFFFFF;}
	.st1{fill:#C3066B;}
	.st2{fill:none;}
</style>
<linearGradient id="SVGID_1_" gradientUnits="userSpaceOnUse" x1="0" y1="0" x2="6.123234e-17" y2="-1">
	<stop  offset="0" style="stop-color:#656565"/>
	<stop  offset="0.618" style="stop-color:#1B1B1B"/>
	<stop  offset="0.6292" style="stop-color:#545454"/>
	<stop  offset="0.9831" style="stop-color:#3E3E3E"/>
</linearGradient>
<g>
	<path class="st0" d="M0.3,16c0-1.4,1-2.3,2.5-2.3s2.5,0.9,2.5,2.3v5.7h9.2V16c0-1.4,1-2.3,2.5-2.3s2.5,0.9,2.5,2.3v16.2
		c0,1.4-1,2.3-2.5,2.3s-2.5-0.9-2.5-2.3v-6.7H5.4v6.7c0,1.4-1,2.3-2.5,2.3s-2.5-0.9-2.5-2.3V16z"/>
	<path class="st0" d="M27.5,27.6c0,2.1,1.5,3.7,4.1,3.7c3.4,0,3.4-2,5.2-2c1.1,0,1.8,0.8,1.8,1.6c0,2.4-4.3,3.6-7,3.6
		c-6.3,0-8.6-3.8-8.6-7.4c0-4.7,3.2-7.9,8.5-7.9c5.2,0,8.1,3.3,8.1,6.6c0,1.4-0.5,1.8-2,1.8H27.5z M35.4,25.2
		c-0.2-1.9-1.8-3.2-3.8-3.2c-2.2,0-3.6,1.2-4.1,3.2H35.4z"/>
	<path class="st0" d="M42.7,15.7c0-1.3,0.9-2,2.2-2c1.4,0,2.2,0.7,2.2,2v16.7c0,1.3-0.9,2-2.2,2c-1.4,0-2.2-0.7-2.2-2V15.7z"/>
	<path class="st0" d="M49.7,22.3c-0.1-0.3-0.3-0.8-0.3-1c0-1.4,1.1-2.1,2.2-2.1c1.7,0,2.1,1.3,2.2,1.7l3,9.2H57l3-9.2
		c0.1-0.4,0.6-1.7,2.2-1.7c1.1,0,2.2,0.7,2.2,2.1c0,0.2-0.2,0.7-0.3,1L59.9,33c-0.4,1.1-0.7,1.4-3,1.4c-2.2,0-2.5-0.4-3-1.4
		L49.7,22.3z"/>
	<path class="st0" d="M70.2,27.6c0,2.1,1.5,3.7,4.1,3.7c3.4,0,3.4-2,5.2-2c1.1,0,1.8,0.8,1.8,1.6c0,2.4-4.3,3.6-7,3.6
		c-6.3,0-8.6-3.8-8.6-7.4c0-4.7,3.2-7.9,8.5-7.9c5.2,0,8.1,3.3,8.1,6.6c0,1.4-0.5,1.8-2,1.8H70.2z M78.1,25.2
		c-0.2-1.9-1.8-3.2-3.8-3.2c-2.2,0-3.6,1.2-4.1,3.2H78.1z"/>
	<path class="st0" d="M92.8,19.2c3.8,0,6.5,1.9,6.5,3.8c0,1.2-1,1.7-2.1,1.7c-2.1,0-1.4-2.4-4.6-2.4c-1.8,0-3.8,1.1-3.8,4.7
		c0,2.5,1.3,4.2,3.8,4.2c3.1,0,2.5-2.6,4.8-2.6c1.1,0,1.9,0.7,1.9,1.6c0,1.8-2.2,4.2-6.8,4.2c-5.5,0-8.1-3.1-8.1-7.3
		C84.3,22.4,87.3,19.2,92.8,19.2z"/>
	<path class="st0" d="M101.9,15.7c0-1.3,0.9-2,2.2-2c1.4,0,2.2,0.7,2.2,2v16.7c0,1.3-0.9,2-2.2,2c-1.4,0-2.2-0.7-2.2-2V15.7z"/>
	<path class="st1" d="M112.7,13.6c1.3,0,2.3,0.9,2.3,2.1c0,1.2-1,2.1-2.3,2.1s-2.3-0.9-2.3-2.1C110.4,14.5,111.4,13.6,112.7,13.6z
		 M110.5,21.2c0-1.1,0.5-2,2.2-2s2.2,0.9,2.2,2v11.2c0,1.1-0.5,2-2.2,2s-2.2-0.9-2.2-2V21.2z"/>
	<path class="st0" d="M126.3,19.2c3.7,0,6.5,1.9,6.5,3.8c0,1.2-1,1.7-2.1,1.7c-2.1,0-1.4-2.4-4.6-2.4c-1.8,0-3.8,1.1-3.8,4.7
		c0,2.5,1.3,4.2,3.8,4.2c3.1,0,2.5-2.6,4.8-2.6c1.1,0,1.9,0.7,1.9,1.6c0,1.8-2.2,4.2-6.8,4.2c-5.5,0-8.1-3.1-8.1-7.3
		C117.9,22.4,120.8,19.2,126.3,19.2z"/>
	<path class="st0" d="M135.3,15.7c0-1.3,0.9-2,2.2-2c1.4,0,2.2,0.7,2.2,2v9.2l5-5c0.5-0.4,1-0.8,1.7-0.8c1,0,2.1,0.8,2.1,1.8
		c0,0.7-0.3,0.9-0.7,1.3l-3.3,3.1l4.7,5.7c0.2,0.2,0.5,0.6,0.5,1.3c0,1-0.9,2-2.1,2c-1.1,0-1.7-0.5-2-0.9l-4.2-5.4l-1.6,1.2v3.1
		c0,1.3-0.9,2-2.2,2c-1.4,0-2.2-0.7-2.2-2V15.7z"/>
</g>
<g>
	<rect x="15.4" y="24" class="st2" width="95.1" height="3.9"/>
</g>
<g>
</g>
<g>
</g>
<g>
</g>
<g>
</g>
<g>
</g>
<g>
</g>
<g>
</g>
<g>
</g>
<g>
</g>
<g>
</g>
<g>
</g>
<g>
</g>
<g>
</g>
<g>
</g>
<g>
</g>
</svg>
